<svg xmlns="http://www.w3.org/2000/svg" viewBox="0 0 24.21 24.07"><title>Asset 1</title><path d="M11.42,0A12,12,0,0,1,24.18,11.22,11.63,11.63,0,0,1,21,20.1,12,12,0,0,1,13,24a12.29,12.29,0,0,1-9-3A12.11,12.11,0,0,1,0,13,11.67,11.67,0,0,1,3.13,4,12.15,12.15,0,0,1,11.42,0ZM10.56,10.1H8.39v2.56h2.24c0,2.27,0,4.55,0,6.65h2.56c.2-2.06-.06-4.59.14-6.65H15.5c0-.91.26-1.61.26-2.56a20.23,20.23,0,0,1-2.5-.07c-.3-2.3.24-3.28,2.63-2.89V4.9C11.91,4,10.13,6.17,10.56,10.1Z" style="fill:#464448;fill-rule:evenodd"/></svg>