<svg xmlns="http://www.w3.org/2000/svg" viewBox="0 0 448.77 242.87"><title>Asset 1</title><path d="M1.31,242.63C11.58,234.1,21,222.13,34.77,219.5c14-2.68,30.07-.36,43.81,2.73,13,2.92,25.53,7.34,38.93,7.58s26-6.13,37.36-12.89c23.52-14,42.95-33.84,64.6-50.39,23-17.54,50.88-23.58,79.19-25.23,24.93-1.44,49.7.7,74.6.44,22.91-.23,43.1-7,59-24C461.9,86.29,447.2,32,422.69,2c-.48-.58-1-1.15-1.46-1.71-1-1.09-2.21,1-1.44,1.87,14.57,16.82,23.43,39,26.13,61,1.46,11.85.61,24.16-3.62,35.38-4.45,11.81-13.61,21.4-23.79,28.56-19.7,13.86-44.46,12.63-67.36,11.66-25.86-1.09-52.41-1.43-78,2.89a135.4,135.4,0,0,0-34.24,10.46c-11.88,5.49-22.1,13.59-32.16,21.85-20.37,16.72-39.76,35.18-63.67,46.84-13,6.36-25.51,7.69-39.69,5-13.13-2.51-25.71-7.18-39.09-8.39-11.65-1.06-24.25-2.8-35.48,1.39S9.4,233.17.46,240.59c-.93.77-.35,3,.85,2Z" style="fill:#fff"/></svg>