<?xml version="1.0" encoding="utf-8"?>
<!-- Generator: Adobe Illustrator 15.1.0, SVG Export Plug-In . SVG Version: 6.00 Build 0)  -->
<!DOCTYPE svg PUBLIC "-//W3C//DTD SVG 1.1//EN" "http://www.w3.org/Graphics/SVG/1.1/DTD/svg11.dtd">
<svg version="1.1" id="Calque_1" xmlns="http://www.w3.org/2000/svg" xmlns:xlink="http://www.w3.org/1999/xlink" x="0px" y="0px"
	 width="841.89px" height="595.28px" viewBox="0 0 841.89 595.28" enable-background="new 0 0 841.89 595.28" xml:space="preserve">
<g>
	<g>
		<path fill="#FFFFFF" d="M530.972,138.299c-14.739-14.175-40.372-16.076-58.582-8.176c-20.002,8.677-33.364,28.77-39.499,48.959
			c-3.182,10.469-4.493,21.427-4.761,32.336c-0.131,5.346,0.226,10.68,0.143,16.025c-0.079,5.1,0.246,10.235,2.71,14.797
			c1.624,3.006,5.599,5.959,9.038,6.365c3.245,0.383,7.301-3.288,10.378-4.083c8.924-2.306,20.253-3.421,21.81,8.263
			c2.627,19.729-32.63,6.785-41.421,4.319c-6.448-1.809-13.49-4.281-20.283-3.977c-11.658,0.523-23.317,3.685-34.176,7.787
			c-21.547,8.139-42.17,22.326-53.979,42.471c-12.133,20.699-15.783,46.465-16.754,70.058c-0.982,23.845-2.154,51.404,11.093,72.368
			c12.183,19.28,35.571,23.363,56.736,23.671c10.37,0.15,21.136-0.412,31.372-2.17c11.065-1.9,21.22-6.399,31.009-11.76
			c20.866-11.427,40.415-26.352,65.341-25.989c12.363,0.18,23.94,7.08,35.751,9.956c1.223,0.298,2.055-2.057,0.857-2.348
			c-12.628-3.076-24.479-9.873-37.723-10.065c-11.248-0.163-22.163,3.261-32.256,7.967c-20.777,9.688-38.73,25.2-61.743,29.649
			c-10.913,2.109-22.56,2.465-33.641,2.304c-11.658-0.169-23.482-1.695-34.31-6.191c-26.555-11.025-30.396-41.806-30.742-67.037
			c-0.358-26.141,1.332-52.897,10.906-77.5c9.726-24.992,31.223-41.804,55.416-51.912c11.58-4.838,23.963-7.923,36.483-8.823
			c7.206-0.518,15.012,2.547,21.838,4.466c8.134,2.287,16.321,4.685,24.744,5.622c5.039,0.561,11.942,0.597,15.359-3.904
			c3.708-4.882,2.76-13.272-1.083-17.783c-4.476-5.252-13.102-3.302-18.905-2.166c-4.048,0.793-6.934,2.834-10.664,4.228
			c-2.667,0.996-5.705-2.223-7.462-3.729c-2.714-2.327-3.286-6.784-3.605-10.078c-0.504-5.194-0.154-10.583-0.281-15.804
			c-0.157-6.459,0.214-12.917,0.988-19.329c2.912-24.125,13.902-46.913,34.485-60.646c18.301-12.211,47.819-11.726,64.118,3.95
			C530.63,141.31,531.835,139.129,530.972,138.299L530.972,138.299z"/>
	</g>
</g>
</svg>
