<svg xmlns="http://www.w3.org/2000/svg" viewBox="0 0 233.29 344.01"><title>Asset 1</title><path d="M225.93,12.8C211.19-1.37,185.55-3.27,167.34,4.63c-20,8.67-33.36,28.77-39.5,48.95a121.57,121.57,0,0,0-4.76,32.34c-.13,5.35.23,10.68.15,16-.08,5.1.24,10.23,2.71,14.79,1.62,3,5.6,6,9,6.37,3.25.38,7.31-3.29,10.38-4.09,8.93-2.3,20.26-3.42,21.81,8.27,2.63,19.73-32.63,6.78-41.42,4.32-6.45-1.81-13.49-4.28-20.28-4-11.66.52-23.32,3.68-34.18,7.79-21.54,8.14-42.17,22.32-54,42.47C5.17,198.59,1.52,224.35.55,248c-1,23.84-2.15,51.4,11.09,72.36C23.83,339.59,47.21,343.68,68.38,344a172.52,172.52,0,0,0,31.37-2.17c11.07-1.9,21.22-6.39,31-11.76,20.87-11.42,40.41-26.35,65.34-26,12.36.18,23.94,7.08,35.75,9.95,1.22.3,2.06-2.06.86-2.35-12.63-3.07-24.48-9.87-37.72-10.06-11.25-.16-22.17,3.26-32.26,8C142,319.26,124,334.78,101,339.22c-10.92,2.11-22.56,2.47-33.64,2.31-11.66-.17-23.49-1.7-34.31-6.19-26.56-11-30.4-41.81-30.75-67-.35-26.14,1.34-52.9,10.91-77.5,9.73-25,31.22-41.8,55.42-51.91a116.68,116.68,0,0,1,36.48-8.82c7.2-.52,15,2.54,21.84,4.46,8.13,2.29,16.32,4.69,24.74,5.62,5,.56,11.94.6,15.36-3.9,3.71-4.88,2.76-13.27-1.08-17.78-4.48-5.26-13.11-3.31-18.91-2.17-4.05.79-6.93,2.83-10.66,4.23-2.67,1-5.71-2.22-7.46-3.73-2.72-2.33-3.29-6.78-3.61-10.08-.5-5.19-.15-10.58-.28-15.8a132.84,132.84,0,0,1,1-19.33c2.91-24.13,13.9-46.91,34.48-60.65,18.3-12.21,47.82-11.72,64.12,4,1,.92,2.16-1.26,1.3-2.09Z" style="fill:#fff"/></svg>