<?xml version="1.0" encoding="utf-8"?>
<!-- Generator: Adobe Illustrator 15.1.0, SVG Export Plug-In . SVG Version: 6.00 Build 0)  -->
<!DOCTYPE svg PUBLIC "-//W3C//DTD SVG 1.1//EN" "http://www.w3.org/Graphics/SVG/1.1/DTD/svg11.dtd">
<svg version="1.1" id="Calque_1" xmlns="http://www.w3.org/2000/svg" xmlns:xlink="http://www.w3.org/1999/xlink" x="0px" y="0px"
	 width="841.89px" height="595.28px" viewBox="0 0 841.89 595.28" enable-background="new 0 0 841.89 595.28" xml:space="preserve">
<g>
	<path fill="#CFA751" d="M527,335.001c-6.028,31.822,25,86,14,118c-7,19-28,18-45,16c-26-3-48-16-74-20c-36-5-80,3-111-21
		c-29-22-31-61-12-90c21-32,61-40,83-70c22-28,17-67,32-99c8-16,20-33,39-39c13-4,34.668-7.908,47.001,2.666
		C500.001,132.667,561.667,152.002,527,335.001z"/>
</g>
</svg>
