<svg xmlns="http://www.w3.org/2000/svg" viewBox="0 0 358.88 174.79"><title>Asset 1</title><path d="M6.6,139.79c-3.19-13.8,7.23-12.7,4.45-26.12C6.87,97.26-.65,85.74.05,69.33c.69-12.67,10.22-18,20.66-21,18.8-5.22,39.09-9.93,58-14.66,17.34-4.34,26.34-7,48-12C162.61,13.38,200.81,0,237.71,0c22.28,0,49.21,2.67,70,10.67C323.14,16.6,340.05,23,349.13,33.16c8.44,9.43,9.75,12.67,9.75,24.61C358.88,77.9,354,101,337.3,113c-20.89,15.66-46.65,10.44-69.62,6.71-25.07-4.48-56.4-6.71-81.46-2.24-32.72,6-57.09,40.27-89.11,47-20.89,5.22-41.24,15.88-60.73,6.93C36.38,171.33,12.49,165.25,6.6,139.79Z" style="fill:#d48564"/></svg>