<?xml version="1.0" encoding="utf-8"?>
<!-- Generator: Adobe Illustrator 15.1.0, SVG Export Plug-In . SVG Version: 6.00 Build 0)  -->
<!DOCTYPE svg PUBLIC "-//W3C//DTD SVG 1.1//EN" "http://www.w3.org/Graphics/SVG/1.1/DTD/svg11.dtd">
<svg version="1.1" id="Calque_1" xmlns="http://www.w3.org/2000/svg" xmlns:xlink="http://www.w3.org/1999/xlink" x="0px" y="0px"
	 width="841.89px" height="595.28px" viewBox="0 0 841.89 595.28" enable-background="new 0 0 841.89 595.28" xml:space="preserve">
<g>
	<g>
		<path fill="#FFFFFF" d="M192.087,418.791c10.276-8.523,19.691-20.493,33.459-23.131c13.969-2.678,30.073-0.356,43.81,2.739
			c12.949,2.919,25.529,7.336,38.933,7.575c13.545,0.242,26.011-6.134,37.358-12.894c23.523-14.013,42.949-33.836,64.605-50.387
			c22.952-17.541,50.875-23.583,79.184-25.224c24.929-1.444,49.703,0.699,74.605,0.439c22.911-0.238,43.097-7.042,59.035-23.984
			c29.603-31.466,14.905-85.743-9.611-115.743c-0.476-0.574-0.96-1.142-1.452-1.702c-0.951-1.099-2.219,0.969-1.445,1.861
			c14.566,16.828,23.429,38.983,26.134,60.955c1.46,11.853,0.604,24.158-3.625,35.384c-4.447,11.805-13.608,21.4-23.79,28.559
			c-19.703,13.854-44.458,12.624-67.354,11.659c-25.865-1.09-52.41-1.433-78.01,2.892c-11.814,1.996-23.362,5.43-34.242,10.458
			c-11.886,5.492-22.101,13.59-32.161,21.846c-20.37,16.717-39.757,35.184-63.668,46.845c-13.03,6.354-25.517,7.687-39.698,4.975
			c-13.126-2.51-25.702-7.176-39.084-8.39c-11.653-1.058-24.25-2.801-35.483,1.395c-11.168,4.17-19.406,14.415-28.351,21.833
			C190.31,417.52,190.887,419.786,192.087,418.791L192.087,418.791z"/>
	</g>
</g>
</svg>
