<?xml version="1.0" encoding="utf-8"?>
<!-- Generator: Adobe Illustrator 15.1.0, SVG Export Plug-In . SVG Version: 6.00 Build 0)  -->
<!DOCTYPE svg PUBLIC "-//W3C//DTD SVG 1.1//EN" "http://www.w3.org/Graphics/SVG/1.1/DTD/svg11.dtd">
<svg version="1.1" id="Calque_1" xmlns="http://www.w3.org/2000/svg" xmlns:xlink="http://www.w3.org/1999/xlink" x="0px" y="0px"
	 width="841.89px" height="595.28px" viewBox="0 0 841.89 595.28" enable-background="new 0 0 841.89 595.28" xml:space="preserve">
<g>
	<path fill="#E8C19C" d="M273.095,409.585c-21.498-36.918-3-82.002,25-106.002c29-25,68-42,102-59c14-6,31-10,36-25c5-13,1-33-4-45
		c-14-33-41-79,16-86c27-3,35,18,48,41c7,13,12,26,12,42c1,35-31,54-35,87c-3,33,41,32,64,39c31,10,54,41,47,74
		c-7,28.002-25.246,42.418-47.095,52.751C537,424.334,330.939,508.92,273.095,409.585z"/>
</g>
</svg>
