<svg xmlns="http://www.w3.org/2000/svg" viewBox="0 0 446.65 237.42"><title>Asset 1</title><path d="M73.43,236c1.64-44.21-48.81-65-63.08-102.61C1.66,110.45-1.36,82.79,6.4,59.21,13.88,36.47,34.23,16.33,56.22,7.6c19.71-7.83,47.63-8.39,65.09,5.19C135.05,23.49,137,42.45,136.93,58.6c-.05,17.16-2.87,34.27-1.92,51.43,1,18.77,12.58,31.15,29.92,37.06,19.51,6.66,42.37,6.3,62.6,4.42,30.56-2.85,60.24-11.8,91-13,25.17-.95,51.65,1.76,75.07,11.44a89,89,0,0,1,31.84,22.13c5.27,5.8,8.92,14.23,12.11,21.27,5,11.09,13.37,32.8-.44,40.93-1.11.66-.89,2.82.52,2,15.19-8.94,7.78-30.61,2.36-43.22A119.68,119.68,0,0,0,428.1,171.6c-6.33-9-17-15.72-26.58-20.65-21.29-11-46-14.08-69.62-14.7-29.77-.79-58.47,6.32-87.68,10.9-23.33,3.66-48.42,5-71.64-.41-9.17-2.14-18.08-5.9-25-12.41-7.47-7-10.07-16.82-10.53-26.75-.78-17.23,2.07-34.45,2-51.68-.05-15.13-2.36-31.36-13.42-42.59-13.85-14-38.17-15.06-56.3-11.7C47.69,5.63,29.4,19.44,16.55,36.9,10.08,45.7,5,55.28,2.44,65.92-.4,77.5-.45,89.73.71,101.53,2.86,123.32,9.79,143.62,24,160.44,42.86,182.89,72.51,204,71.3,236.61c0,1.56,2.09.59,2.13-.61Z" style="fill:#fff"/></svg>