<?xml version="1.0" encoding="utf-8"?>
<!-- Generator: Adobe Illustrator 15.1.0, SVG Export Plug-In . SVG Version: 6.00 Build 0)  -->
<!DOCTYPE svg PUBLIC "-//W3C//DTD SVG 1.1//EN" "http://www.w3.org/Graphics/SVG/1.1/DTD/svg11.dtd">
<svg version="1.1" id="Calque_1" xmlns="http://www.w3.org/2000/svg" xmlns:xlink="http://www.w3.org/1999/xlink" x="0px" y="0px"
	 width="841.89px" height="595.28px" viewBox="0 0 841.89 595.28" enable-background="new 0 0 841.89 595.28" xml:space="preserve">
<g>
	<g>
		<path fill="#FFFFFF" d="M267.86,416.054c1.639-44.216-48.815-64.975-63.079-102.617c-8.691-22.936-11.707-50.598-3.951-74.178
			c7.479-22.737,27.833-42.881,49.823-51.61c19.711-7.825,47.627-8.386,65.082,5.196c13.749,10.7,15.676,29.66,15.625,45.808
			c-0.054,17.154-2.866,34.266-1.918,51.428c1.037,18.767,12.579,31.146,29.92,37.063c19.509,6.656,42.364,6.297,62.595,4.412
			c30.562-2.847,60.238-11.797,91.006-12.961c25.17-0.953,51.647,1.76,75.063,11.439c12.072,4.99,23.046,12.462,31.844,22.131
			c5.273,5.796,8.922,14.227,12.112,21.267c5.026,11.092,13.363,32.801-0.447,40.933c-1.106,0.651-0.886,2.815,0.525,1.984
			c15.189-8.943,7.776-30.605,2.357-43.215c-3.226-7.505-7.184-14.805-11.891-21.488c-6.325-8.98-16.979-15.711-26.573-20.649
			c-21.295-10.961-45.974-14.076-69.619-14.7c-29.773-0.786-58.472,6.322-87.681,10.903c-23.334,3.661-48.421,5-71.64-0.408
			c-9.174-2.137-18.087-5.899-25.014-12.412c-7.473-7.026-10.072-16.819-10.525-26.745c-0.787-17.234,2.065-34.45,2.011-51.687
			c-0.047-15.132-2.351-31.355-13.419-42.586c-13.843-14.046-38.171-15.066-56.298-11.699c-21.649,4.021-39.94,17.828-52.784,35.288
			c-6.472,8.798-11.512,18.383-14.115,29.017c-2.835,11.585-2.89,23.811-1.728,35.615c2.145,21.792,9.081,42.091,23.238,58.904
			c18.909,22.455,48.563,43.598,47.355,76.174C265.677,418.216,267.815,417.251,267.86,416.054L267.86,416.054z"/>
	</g>
</g>
</svg>
