<?xml version="1.0" encoding="utf-8"?>
<!-- Generator: Adobe Illustrator 15.1.0, SVG Export Plug-In . SVG Version: 6.00 Build 0)  -->
<!DOCTYPE svg PUBLIC "-//W3C//DTD SVG 1.1//EN" "http://www.w3.org/Graphics/SVG/1.1/DTD/svg11.dtd">
<svg version="1.1" id="Calque_1" xmlns="http://www.w3.org/2000/svg" xmlns:xlink="http://www.w3.org/1999/xlink" x="0px" y="0px"
	 width="283.46px" height="283.46px" viewBox="0 0 283.46 283.46" enable-background="new 0 0 283.46 283.46" xml:space="preserve">
<g>
	<g>
		<g>
			<g>
				<path fill-rule="evenodd" clip-rule="evenodd" fill="#807F7B" d="M143.736,142.925c4.498,2.2,9.327,1.5,14.013,2.809
					c-1.783,1.353-5.058,0.353-7.722,0.01c-2.667-0.341-5.794-0.033-8.021-1.581c-0.16-3.297,2.868-3.249,5.34-3.621
					c5.017-0.762,9.573-0.951,14.857-0.768c2.936,0.102,7.059,0.411,10.076,0.13c2.438-0.225,8.439-1.184,9.109-3.473
					c0.837-2.862-5.046-4.004-7.616-4.395c-4.052-0.615-8.206-0.116-11.935,0.625c-1.9,0.38-4.027,1.496-5.757,0.128
					c0.375-1.168,1.838-0.753,2.729-0.861c5.11-0.616,9.456-2.018,15.427-1.047c2.793,0.453,11.321,2.043,7.954,6.622
					c-1.422,1.932-4.677,2.98-6.817,3.374C165.854,142.617,151.682,139.328,143.736,142.925z"/>
				<path fill-rule="evenodd" clip-rule="evenodd" fill="#807F7B" d="M135.016,119.123c-4.392-5.49-9.787-10.788-14.624-16.669
					c-3.297-4.009-7.089-8.364-10.742-12.693c-1.239-1.468-2.22-3.28-3.451-4.226c-0.718-0.553-1.638-0.671-2.373-1.168
					c-2.786-1.879-3.248-5.113-5.706-7.352c0.352-3.707,3.117-7.781,6.38-7.89c0.301-0.512-0.409-1.141,0.399-1.396
					c2.736,1.173,3.511,4.294,5.624,6.088c1.247,1.061,2.85,1.708,3.913,3.072c0.71,0.909,0.946,2.242,1.623,3.168
					c7.364,10.084,16.413,18.91,24.025,29.09c0.471,0.316,1.974,1.688,2.481,2.133c2.271,2.825,2.382,4.328,6.206,6.735
					c0.685,4.709,4.395,8.606,6.072,13.048c-1.459,2.074-2.285,1.088-4.013-0.082c-1.897-1.284-5.742-3.609-8.224-4.748
					L135.016,119.123z M150.479,126.312c-1.353-2.217-1.545-5.417-4.396-6.803c-0.311,0.942,0.631,1.549,0.162,2.533
					c-0.701,0.537-1.878,0.921-2.593-0.079c-0.171,0.773-0.256,1.471-0.991,2.069c1.933,1.712,4.317,2.909,6.438,4.323
					C149.553,127.795,150.409,126.769,150.479,126.312z M128.876,97.604c-4.538-5.223-9.258-11.713-14.042-16.833
					c0,0-0.887-1.013-2.524-1.256c0,0-8.07,1.273-2.608,8.038c8.396,10.404,17.301,20.544,25.828,30.537l5.826,5.402
					c0,0,1.548-1.059,1.229-2.433c0,0,2.08,0.142,1.903-1.266c0,0,0.563-1.585,1.27-1.199l1.092-0.21c0,0,0.491-0.329-0.729-1.361
					C144.9,115.989,128.876,97.604,128.876,97.604z M105.144,82.082c0.66-2.611,3.019-5.128,5.303-5.669
					C107.932,75.426,104.316,79.282,105.144,82.082z M103.621,81.204c0.572-3.636,3.652-4.493,5.696-5.649
					C106.84,74.938,102.706,78.084,103.621,81.204z M105.609,70.372c-1.985-0.726-5.675,2.291-5.824,5.166
					c-0.093,1.787,1.453,2.95,2.423,4.241c1.302-3.67,3.965-5.013,6.417-5.84C107.52,72.885,107.127,70.928,105.609,70.372z"/>
			</g>
			
				<line fill-rule="evenodd" clip-rule="evenodd" fill="none" stroke="#807F7B" stroke-miterlimit="10" x1="106.981" y1="82.425" x2="142.464" y2="122.768"/>
			
				<line fill-rule="evenodd" clip-rule="evenodd" fill="none" stroke="#807F7B" stroke-miterlimit="10" x1="109.125" y1="80.406" x2="144.508" y2="121.598"/>
			
				<line fill-rule="evenodd" clip-rule="evenodd" fill="none" stroke="#807F7B" stroke-miterlimit="10" x1="111.064" y1="78.765" x2="145.983" y2="119.597"/>
		</g>
	</g>
	<circle fill="none" stroke="#807F7B" stroke-width="4" stroke-miterlimit="10" cx="141.983" cy="141.692" r="122"/>
	<g>
		<g>
			<path fill="#807F7B" d="M42.175,165.742l-0.169-0.986l-7.038,1.21c-0.229,0.04-0.364-0.058-0.404-0.29
				c-0.038-0.223,0.058-0.354,0.287-0.393l1.517-0.261c-0.475-0.199-0.872-0.448-1.191-0.747c-0.671-0.593-1.086-1.354-1.247-2.284
				c-0.264-1.537,0.249-2.833,1.538-3.888c0.646-0.548,1.459-1.002,2.438-1.363c0.979-0.361,2.053-0.643,3.221-0.843
				c1.147-0.197,2.239-0.289,3.278-0.274c1.039,0.014,1.964,0.17,2.778,0.467c1.567,0.563,2.483,1.613,2.748,3.15
				c0.16,0.93,0.023,1.785-0.412,2.568c-0.428,0.761-1.13,1.422-2.106,1.986c-0.214,0.131-0.375,0.096-0.485-0.104
				c-0.122-0.209-0.079-0.367,0.127-0.476c0.867-0.513,1.482-1.087,1.846-1.722c0.353-0.634,0.461-1.345,0.326-2.133
				c-0.221-1.285-0.984-2.163-2.289-2.637c-0.744-0.268-1.607-0.404-2.591-0.412c-0.983-0.008-2.018,0.081-3.102,0.268
				c-1.116,0.191-2.131,0.455-3.044,0.789c-0.915,0.334-1.672,0.75-2.273,1.25c-1.093,0.885-1.529,1.969-1.308,3.254
				c0.134,0.778,0.479,1.411,1.035,1.898c0.544,0.479,1.293,0.809,2.248,0.988l3.988-0.687l-0.323-1.88
				c-0.037-0.213,0.06-0.339,0.289-0.379c0.24-0.041,0.378,0.045,0.415,0.258l0.381,2.213l0.229,1.336
				c0.037,0.212-0.065,0.338-0.305,0.38C42.344,166.04,42.211,165.953,42.175,165.742z"/>
			<path fill="#807F7B" d="M43.23,168.334l-0.902,0.249c0.046,0.009,0.12,0.036,0.22,0.083c0.867,0.355,1.437,1.028,1.71,2.018
				c0.183,0.662,0.17,1.289-0.04,1.879c-0.188,0.553-0.573,1.047-1.154,1.484c-0.203,0.141-0.368,0.117-0.497-0.07
				s-0.102-0.35,0.08-0.484c0.447-0.326,0.753-0.709,0.917-1.148c0.154-0.436,0.155-0.926,0.005-1.471
				c-0.219-0.791-0.649-1.315-1.292-1.574c-0.702-0.274-1.588-0.264-2.659,0.033l-3.61,0.998c-0.224,0.062-0.368-0.021-0.431-0.248
				c-0.06-0.219,0.022-0.357,0.247-0.42l3.61-0.998l3.61-0.998c0.234-0.064,0.382,0.012,0.442,0.229
				C43.55,168.123,43.464,168.269,43.23,168.334z"/>
			<path fill="#807F7B" d="M47.205,180.789l-3.526,1.262l-3.526,1.262c-0.219,0.078-0.368,0.006-0.448-0.216
				c-0.076-0.212-0.004-0.358,0.215-0.437l0.896-0.32c-0.047-0.006-0.127-0.025-0.241-0.061c-0.877-0.286-1.492-0.921-1.845-1.906
				c-0.346-0.967-0.272-1.842,0.222-2.629c0.48-0.761,1.329-1.358,2.544-1.793c1.215-0.436,2.25-0.512,3.104-0.229
				c0.891,0.291,1.509,0.92,1.855,1.886c0.349,0.976,0.271,1.858-0.232,2.649c-0.056,0.096-0.1,0.16-0.133,0.194l0.882-0.315
				c0.229-0.082,0.381-0.018,0.458,0.195C47.509,180.555,47.435,180.707,47.205,180.789z M45.638,179.895
				c0.373-0.591,0.421-1.273,0.145-2.045c-0.277-0.773-0.745-1.266-1.404-1.476c-0.72-0.222-1.603-0.146-2.649,0.229
				c-1.056,0.378-1.782,0.878-2.178,1.499c-0.386,0.584-0.441,1.264-0.165,2.036s0.751,1.268,1.425,1.484
				c0.7,0.229,1.578,0.154,2.634-0.224C44.492,181.023,45.222,180.523,45.638,179.895z"/>
			<path fill="#807F7B" d="M48.131,183l-0.853,0.387c0.047,0.002,0.124,0.018,0.23,0.048c0.912,0.218,1.579,0.794,2.002,1.728
				c0.428,0.944,0.422,1.831-0.015,2.66c-0.437,0.806-1.233,1.471-2.39,1.994c-1.166,0.529-2.191,0.689-3.075,0.48
				c-0.898-0.212-1.563-0.795-1.995-1.748c-0.423-0.935-0.421-1.814,0.007-2.639c0.057-0.104,0.101-0.176,0.131-0.211l-7.589,3.438
				c-0.212,0.097-0.367,0.037-0.464-0.178c-0.093-0.205-0.033-0.356,0.179-0.453l10.133-4.59l3.412-1.546
				c0.222-0.101,0.379-0.048,0.472,0.157C48.415,182.742,48.353,182.9,48.131,183z M48.861,185.457
				c-0.339-0.747-0.846-1.199-1.52-1.355c-0.736-0.162-1.609-0.014-2.622,0.445c-1.021,0.463-1.704,1.02-2.048,1.67
				c-0.337,0.615-0.336,1.296,0.002,2.044c0.338,0.747,0.852,1.202,1.541,1.362c0.716,0.172,1.585,0.025,2.607-0.438
				c1.012-0.458,1.7-1.018,2.063-1.678C49.207,186.889,49.2,186.205,48.861,185.457z"/>
			<path fill="#807F7B" d="M50.794,196.629c0.972-0.539,1.612-1.152,1.92-1.84c0.272-0.643,0.209-1.324-0.188-2.042
				c-0.398-0.718-0.94-1.127-1.625-1.228c-0.746-0.104-1.605,0.115-2.577,0.654l-3.275,1.816c-0.204,0.113-0.363,0.066-0.477-0.141
				c-0.109-0.197-0.062-0.352,0.141-0.465l3.275-1.816L58.3,185.85c0.204-0.113,0.36-0.07,0.47,0.127
				c0.114,0.206,0.07,0.365-0.134,0.479l-7.855,4.356c0.047-0.003,0.125,0.007,0.234,0.028c0.926,0.144,1.638,0.664,2.136,1.561
				c0.502,0.906,0.569,1.791,0.2,2.652c-0.37,0.838-1.11,1.565-2.22,2.182l-3.275,1.816c-0.204,0.112-0.363,0.066-0.477-0.141
				c-0.109-0.197-0.062-0.353,0.141-0.465L50.794,196.629z"/>
			<path fill="#807F7B" d="M55.77,197.54l-6.346,3.979c-0.197,0.124-0.359,0.086-0.484-0.113c-0.12-0.191-0.081-0.35,0.116-0.473
				l6.346-3.98c0.206-0.129,0.369-0.098,0.489,0.094C56.016,197.246,55.976,197.411,55.77,197.54z M58.873,194.305
				c0.224-0.141,0.454-0.197,0.69-0.17s0.411,0.133,0.526,0.315c0.114,0.183,0.134,0.388,0.059,0.616
				c-0.075,0.229-0.225,0.414-0.449,0.555s-0.453,0.193-0.687,0.158c-0.234-0.035-0.409-0.143-0.523-0.326
				c-0.114-0.182-0.135-0.385-0.062-0.605C58.5,194.626,58.649,194.445,58.873,194.305z"/>
			<path fill="#807F7B" d="M52.341,203.117c-0.208,0.422-0.278,0.855-0.212,1.298c0.043,0.446,0.236,0.913,0.579,1.399
				c0.402,0.57,0.849,0.983,1.34,1.24c0.426,0.201,0.789,0.229,1.086,0.081c0.543-0.258,0.764-0.702,0.662-1.333
				c-0.102-0.631-0.265-1.289-0.487-1.973c-0.25-0.777-0.422-1.507-0.514-2.188c-0.092-0.683,0.208-1.192,0.902-1.53
				c0.508-0.232,1.071-0.197,1.688,0.109c0.588,0.301,1.109,0.773,1.564,1.42c0.39,0.553,0.625,1.115,0.704,1.688
				c0.059,0.561-0.039,1.119-0.294,1.676c-0.103,0.223-0.256,0.281-0.46,0.174c-0.213-0.101-0.268-0.251-0.162-0.45
				c0.199-0.417,0.269-0.849,0.211-1.298s-0.252-0.908-0.583-1.377c-0.396-0.563-0.833-0.971-1.309-1.225
				c-0.436-0.195-0.789-0.229-1.061-0.1c-0.419,0.195-0.583,0.564-0.491,1.109c0.092,0.543,0.251,1.131,0.476,1.763
				c0.266,0.817,0.445,1.613,0.538,2.389c0.093,0.774-0.273,1.366-1.1,1.772c-0.526,0.246-1.093,0.213-1.701-0.1
				c-0.588-0.301-1.115-0.783-1.582-1.445c-0.396-0.562-0.634-1.129-0.713-1.699c-0.08-0.572,0.02-1.139,0.298-1.698
				c0.12-0.198,0.279-0.247,0.478-0.149C52.399,202.77,52.446,202.918,52.341,203.117z"/>
			<path fill="#807F7B" d="M64.305,214.882c0.859-0.737,1.407-1.431,1.644-2.081c0.188-0.594,0.104-1.096-0.25-1.509
				c-0.381-0.444-0.869-0.606-1.464-0.487c-0.701,0.143-1.473,0.574-2.316,1.299l-2.842,2.439c-0.177,0.151-0.338,0.141-0.485-0.029
				c-0.147-0.172-0.132-0.334,0.044-0.484l2.842-2.439c0.843-0.725,1.387-1.422,1.634-2.093c0.187-0.594,0.104-1.097-0.25-1.509
				c-0.375-0.437-0.859-0.596-1.454-0.477c-0.677,0.121-1.449,0.555-2.316,1.299l-2.842,2.439c-0.176,0.151-0.342,0.138-0.496-0.041
				c-0.147-0.172-0.132-0.333,0.044-0.484l2.842-2.439l2.842-2.439c0.185-0.158,0.35-0.152,0.498,0.019
				c0.153,0.179,0.138,0.349-0.046,0.507l-0.506,0.434c0.809-0.113,1.467,0.126,1.976,0.718c0.534,0.622,0.652,1.353,0.354,2.19
				c-0.078,0.202-0.17,0.403-0.277,0.604c0.162-0.071,0.375-0.133,0.638-0.183c0.867-0.177,1.574,0.055,2.122,0.692
				c0.535,0.623,0.652,1.354,0.354,2.191c-0.262,0.766-0.875,1.563-1.839,2.39l-2.842,2.44c-0.176,0.15-0.338,0.141-0.485-0.03
				c-0.154-0.179-0.142-0.345,0.034-0.495L64.305,214.882z"/>
			<path fill="#807F7B" d="M69.202,222.594c-0.662,0.302-1.284,0.408-1.866,0.316c-0.597-0.104-1.146-0.398-1.649-0.883
				c-0.739-0.712-1.062-1.529-0.969-2.454c0.049-0.524,0.219-1.019,0.509-1.481c0.289-0.463,0.614-0.882,0.974-1.256
				c0.896-0.929,1.789-1.457,2.68-1.583c0.927-0.135,1.761,0.153,2.5,0.866c0.746,0.719,1.069,1.544,0.969,2.476
				c-0.107,0.91-0.602,1.822-1.482,2.737c-0.162,0.167-0.327,0.169-0.497,0.006l-3.912-3.77c-0.624,0.722-0.971,1.408-1.043,2.059
				c-0.086,0.695,0.167,1.328,0.757,1.897c0.406,0.392,0.838,0.624,1.295,0.696c0.457,0.073,0.939-0.014,1.446-0.259
				c0.213-0.103,0.365-0.046,0.454,0.173C69.462,222.33,69.407,222.482,69.202,222.594z M68.97,215.936
				c-0.655,0.104-1.332,0.48-2.029,1.13l3.668,3.534c0.616-0.729,0.967-1.418,1.054-2.07c0.071-0.694-0.188-1.327-0.779-1.896
				C70.292,216.063,69.655,215.831,68.97,215.936z"/>
			<path fill="#807F7B" d="M81.945,232.338l-1.461,0.172c-0.671,0.053-1.232-0.018-1.683-0.211
				c-0.452-0.195-0.781-0.459-0.987-0.793c-0.197-0.275-0.298-0.586-0.304-0.93c-0.006-0.345,0.082-0.701,0.266-1.068
				c0.184-0.368,0.5-0.707,0.948-1.016c0.448-0.309,1.028-0.52,1.741-0.633c1.186-0.098,1.808-0.152,1.866-0.164
				c0.066-1.148,0.433-2.045,1.1-2.69s1.391-0.672,2.172-0.079c0.781,0.594,0.9,1.272,0.358,2.036
				c-0.542,0.763-1.163,1.191-1.86,1.283c-0.698,0.093-1.083,0.146-1.155,0.161l-0.253,3.116c1.125-0.19,1.736-0.291,1.831-0.303
				c0.248-0.034,0.369,0.062,0.363,0.288c0.019,0.244-0.088,0.382-0.322,0.414c-0.066,0.006-0.71,0.109-1.931,0.312l-0.023,1.177
				c0.001,0.36,0.019,0.571,0.052,0.632c0.033,0.062,0.131,0.067,0.294,0.02s0.464-0.191,0.902-0.431
				c0.204-0.116,0.358-0.068,0.461,0.144c0.089,0.215,0.034,0.376-0.164,0.484c-0.683,0.378-1.177,0.56-1.482,0.542
				s-0.518-0.156-0.637-0.418c-0.087-0.162-0.128-0.467-0.122-0.91L81.945,232.338z M81.99,231.619
				c0.009-0.122,0.096-1.191,0.261-3.209l-1.754,0.164c-0.563,0.076-1.021,0.232-1.376,0.47c-0.356,0.237-0.602,0.481-0.738,0.735
				c-0.136,0.253-0.203,0.486-0.2,0.699c0.003,0.214,0.069,0.416,0.199,0.608c0.372,0.563,1.074,0.801,2.105,0.712L81.99,231.619z
				 M83.034,227.678c0.037,0,0.364-0.036,0.979-0.107c0.615-0.072,1.074-0.361,1.377-0.865c0.302-0.504,0.203-0.922-0.297-1.253
				c-0.501-0.331-0.957-0.284-1.366,0.142C83.317,226.018,83.086,226.713,83.034,227.678z"/>
			<path fill="#807F7B" d="M93.967,239.586c0.031,0.469,0.186,0.879,0.464,1.229c0.26,0.365,0.66,0.673,1.2,0.924
				c0.633,0.294,1.226,0.429,1.779,0.405c0.47-0.039,0.797-0.195,0.982-0.472c0.342-0.495,0.312-0.989-0.092-1.485
				s-0.872-0.984-1.407-1.467c-0.605-0.548-1.118-1.095-1.538-1.64c-0.42-0.544-0.415-1.137,0.018-1.776
				c0.324-0.455,0.83-0.705,1.518-0.748c0.66-0.032,1.348,0.117,2.064,0.45c0.614,0.284,1.098,0.655,1.452,1.11
				c0.331,0.457,0.525,0.99,0.582,1.6c0.023,0.244-0.081,0.371-0.312,0.38c-0.235,0.02-0.357-0.084-0.366-0.31
				c-0.036-0.459-0.19-0.869-0.464-1.229s-0.671-0.661-1.193-0.903c-0.624-0.289-1.205-0.424-1.745-0.406
				c-0.475,0.048-0.797,0.195-0.968,0.443c-0.266,0.377-0.224,0.779,0.128,1.205c0.351,0.425,0.782,0.855,1.293,1.29
				c0.638,0.575,1.19,1.176,1.658,1.801c0.468,0.626,0.445,1.32-0.068,2.085c-0.333,0.476-0.841,0.73-1.524,0.764
				c-0.66,0.031-1.357-0.123-2.092-0.463c-0.624-0.289-1.112-0.662-1.466-1.117c-0.354-0.456-0.551-0.996-0.589-1.621
				c0.005-0.23,0.118-0.353,0.34-0.367C93.843,239.254,93.958,239.359,93.967,239.586z"/>
			<path fill="#807F7B" d="M102.599,241.074c-0.387,1.053-0.47,1.93-0.247,2.631c0.201,0.672,0.687,1.149,1.457,1.433
				c0.77,0.283,1.454,0.236,2.052-0.142c0.625-0.39,1.13-1.111,1.518-2.164l1.293-3.515c0.084-0.229,0.232-0.304,0.444-0.226
				c0.221,0.081,0.29,0.236,0.206,0.465l-1.293,3.515l-1.293,3.515c-0.081,0.219-0.231,0.287-0.453,0.206
				c-0.212-0.078-0.278-0.226-0.197-0.444l0.329-0.895c-0.034,0.033-0.101,0.082-0.201,0.146c-0.782,0.49-1.664,0.555-2.646,0.193
				c-0.963-0.354-1.588-0.973-1.875-1.856c-0.275-0.856-0.19-1.89,0.256-3.103l1.293-3.515c0.084-0.228,0.232-0.304,0.444-0.226
				c0.221,0.082,0.29,0.236,0.206,0.465L102.599,241.074z"/>
			<path fill="#807F7B" d="M111.596,240.26l-0.25,0.901c0.031-0.035,0.092-0.084,0.184-0.146c0.752-0.56,1.622-0.702,2.61-0.428
				c0.999,0.277,1.675,0.85,2.031,1.717c0.338,0.852,0.338,1.89-0.002,3.112c-0.343,1.234-0.877,2.123-1.604,2.668
				c-0.739,0.553-1.612,0.688-2.621,0.408c-0.989-0.274-1.662-0.84-2.02-1.697c-0.044-0.111-0.07-0.189-0.078-0.236l-2.229,8.029
				c-0.063,0.224-0.208,0.305-0.435,0.241c-0.218-0.061-0.295-0.203-0.233-0.427l2.977-10.72l1.002-3.608
				c0.065-0.234,0.207-0.322,0.424-0.262C111.58,239.876,111.661,240.024,111.596,240.26z M113.949,241.275
				c-0.791-0.221-1.462-0.121-2.015,0.297c-0.596,0.46-1.043,1.225-1.34,2.295c-0.3,1.082-0.311,1.963-0.031,2.644
				c0.255,0.653,0.778,1.089,1.569,1.31c0.791,0.219,1.469,0.116,2.034-0.309c0.591-0.439,1.036-1.2,1.336-2.281
				c0.297-1.07,0.309-1.956,0.035-2.658C115.269,241.928,114.739,241.494,113.949,241.275z"/>
			<path fill="#807F7B" d="M119.5,242.324l-0.176,0.92c0.028-0.037,0.085-0.092,0.172-0.161c0.704-0.619,1.56-0.833,2.567-0.64
				c1.018,0.195,1.739,0.711,2.164,1.546c0.406,0.821,0.49,1.855,0.251,3.103c-0.241,1.258-0.701,2.188-1.38,2.789
				c-0.692,0.611-1.551,0.818-2.579,0.621c-1.008-0.193-1.725-0.702-2.151-1.527c-0.053-0.107-0.085-0.184-0.098-0.229l-1.568,8.184
				c-0.043,0.229-0.182,0.32-0.413,0.275c-0.222-0.042-0.311-0.178-0.267-0.406l2.093-10.926l0.705-3.679
				c0.046-0.239,0.18-0.337,0.401-0.295C119.453,241.943,119.545,242.086,119.5,242.324z M121.928,243.145
				c-0.806-0.154-1.468,0-1.984,0.461c-0.557,0.508-0.94,1.307-1.149,2.397c-0.211,1.102-0.15,1.98,0.184,2.637
				c0.308,0.63,0.864,1.022,1.67,1.177s1.474-0.003,2.002-0.473c0.552-0.486,0.935-1.281,1.146-2.383
				c0.209-1.091,0.148-1.975-0.181-2.652C123.296,243.688,122.734,243.299,121.928,243.145z"/>
			<path fill="#807F7B" d="M127.584,244.492c0.651-0.674,1.486-0.956,2.506-0.846c1.03,0.113,1.791,0.568,2.282,1.366
				c0.472,0.786,0.639,1.81,0.502,3.071c-0.138,1.273-0.522,2.237-1.15,2.893c-0.64,0.664-1.48,0.94-2.52,0.828
				c-1.02-0.111-1.776-0.561-2.268-1.349c-0.474-0.765-0.642-1.788-0.502-3.071C126.573,246.102,126.957,245.137,127.584,244.492z
				 M130.014,244.357c-0.816-0.089-1.463,0.117-1.94,0.619c-0.514,0.551-0.831,1.378-0.951,2.482
				c-0.122,1.115,0.011,1.986,0.396,2.613c0.358,0.604,0.944,0.949,1.76,1.037c0.816,0.09,1.468-0.121,1.958-0.633
				c0.512-0.529,0.828-1.352,0.949-2.467c0.12-1.104-0.012-1.98-0.395-2.629C131.422,244.787,130.83,244.445,130.014,244.357z"/>
			<path fill="#807F7B" d="M135.646,244.492l-0.027,0.937c0.021-0.042,0.069-0.104,0.144-0.187c0.596-0.723,1.406-1.07,2.432-1.04
				c0.687,0.021,1.281,0.218,1.784,0.593c0.472,0.342,0.832,0.855,1.079,1.539c0.075,0.235,0.004,0.387-0.213,0.455
				c-0.217,0.067-0.364-0.006-0.44-0.22c-0.18-0.524-0.456-0.929-0.827-1.216c-0.372-0.275-0.839-0.421-1.403-0.438
				c-0.821-0.023-1.449,0.232-1.885,0.771c-0.469,0.589-0.72,1.439-0.752,2.55l-0.109,3.744c-0.007,0.232-0.128,0.346-0.364,0.338
				c-0.226-0.006-0.335-0.126-0.328-0.358l0.11-3.743l0.109-3.744c0.007-0.243,0.124-0.361,0.349-0.355
				C135.539,244.125,135.653,244.25,135.646,244.492z"/>
			<path fill="#807F7B" d="M141.773,242.631l1.23-0.049l-0.241-6.01c-0.009-0.232,0.104-0.354,0.339-0.363
				c0.226-0.01,0.343,0.103,0.353,0.335l0.24,6.01l2.321-0.093c0.226-0.009,0.343,0.098,0.352,0.32
				c0.01,0.242-0.098,0.369-0.323,0.377l-2.322,0.094l0.246,6.152c0.031,0.771,0.214,1.353,0.548,1.741
				c0.281,0.359,0.703,0.528,1.268,0.505c0.379-0.015,0.693-0.117,0.942-0.307c0.229-0.18,0.413-0.457,0.552-0.833
				c0.063-0.214,0.209-0.283,0.438-0.208c0.208,0.076,0.275,0.223,0.202,0.437c-0.154,0.505-0.416,0.896-0.785,1.175
				c-0.379,0.27-0.82,0.414-1.322,0.435c-0.769,0.03-1.374-0.221-1.816-0.753c-0.441-0.512-0.681-1.233-0.718-2.164l-0.246-6.152
				l-1.23,0.049c-0.225,0.01-0.343-0.107-0.353-0.351C141.439,242.756,141.548,242.64,141.773,242.631z"/>
			<path fill="#807F7B" d="M150.589,250.111c0.27,0.385,0.615,0.655,1.035,0.811c0.412,0.178,0.913,0.232,1.505,0.167
				c0.693-0.077,1.271-0.27,1.731-0.577c0.382-0.276,0.58-0.58,0.595-0.912c0.036-0.601-0.247-1.008-0.849-1.223
				c-0.603-0.215-1.257-0.389-1.963-0.523c-0.802-0.155-1.524-0.357-2.166-0.604s-0.943-0.757-0.906-1.527
				c0.041-0.558,0.344-1.034,0.909-1.427c0.547-0.37,1.213-0.6,1.998-0.688c0.673-0.074,1.279-0.009,1.818,0.197
				c0.52,0.219,0.962,0.573,1.327,1.064c0.146,0.197,0.122,0.359-0.07,0.487c-0.19,0.139-0.349,0.114-0.473-0.075
				c-0.269-0.374-0.613-0.645-1.035-0.811c-0.421-0.166-0.917-0.217-1.488-0.152c-0.683,0.076-1.25,0.262-1.702,0.557
				c-0.381,0.288-0.581,0.582-0.599,0.882c-0.031,0.462,0.214,0.782,0.734,0.964c0.521,0.182,1.113,0.326,1.775,0.432
				c0.844,0.162,1.628,0.389,2.352,0.68c0.725,0.293,1.065,0.898,1.024,1.818c-0.039,0.579-0.341,1.061-0.907,1.443
				c-0.547,0.369-1.224,0.6-2.029,0.689c-0.683,0.076-1.294,0.012-1.833-0.195c-0.539-0.205-0.987-0.564-1.344-1.079
				c-0.115-0.2-0.082-0.363,0.1-0.49C150.311,249.893,150.464,249.923,150.589,250.111z"/>
			<path fill="#807F7B" d="M173.016,247.73c-0.228,0.063-0.374-0.022-0.438-0.257l-0.255-0.917
				c-0.006,0.057-0.032,0.135-0.078,0.235c-0.356,0.867-1.033,1.439-2.031,1.716c-0.989,0.274-1.858,0.131-2.61-0.429
				c-0.724-0.535-1.257-1.425-1.603-2.669c-0.345-1.243-0.345-2.281,0-3.111c0.358-0.857,1.031-1.424,2.021-1.697
				c1.008-0.279,1.882-0.143,2.62,0.41c0.095,0.072,0.158,0.126,0.188,0.161l-2.392-8.626c-0.062-0.224,0.021-0.367,0.248-0.43
				c0.218-0.061,0.357,0.021,0.42,0.245l3.138,11.317l1.001,3.609C173.309,247.523,173.232,247.67,173.016,247.73z M171.606,246.508
				c0.276-0.691,0.267-1.572-0.03-2.643c-0.3-1.081-0.745-1.842-1.336-2.281c-0.564-0.426-1.242-0.529-2.033-0.31
				c-0.781,0.217-1.305,0.653-1.569,1.308c-0.28,0.682-0.27,1.563,0.03,2.644c0.297,1.07,0.741,1.831,1.335,2.281
				c0.565,0.425,1.238,0.53,2.019,0.313C170.813,247.601,171.341,247.163,171.606,246.508z"/>
			<path fill="#807F7B" d="M180.608,242.908c-0.018,0.727-0.193,1.333-0.529,1.816c-0.355,0.492-0.86,0.857-1.515,1.098
				c-0.964,0.354-1.841,0.287-2.632-0.2c-0.45-0.274-0.82-0.643-1.11-1.104c-0.29-0.463-0.524-0.938-0.703-1.425
				c-0.445-1.212-0.529-2.245-0.254-3.103c0.284-0.893,0.907-1.516,1.87-1.869c0.973-0.357,1.856-0.287,2.651,0.209
				c0.771,0.494,1.376,1.338,1.813,2.529c0.08,0.219,0.01,0.369-0.212,0.45l-5.099,1.872c0.376,0.877,0.842,1.489,1.396,1.838
				c0.589,0.381,1.268,0.43,2.038,0.147c0.529-0.194,0.927-0.481,1.192-0.86c0.265-0.379,0.397-0.851,0.398-1.414
				c0-0.237,0.118-0.348,0.354-0.333C180.485,242.559,180.599,242.674,180.608,242.908z M174.519,240.207
				c-0.193,0.635-0.15,1.408,0.13,2.319l4.781-1.756c-0.386-0.872-0.853-1.489-1.401-1.853c-0.594-0.367-1.276-0.41-2.047-0.127
				S174.724,239.546,174.519,240.207z"/>
			<path fill="#807F7B" d="M195.727,235.441c0.098,0.721,0.019,1.348-0.237,1.878c-0.273,0.54-0.715,0.981-1.323,1.321
				c-0.896,0.502-1.772,0.574-2.63,0.217c-0.829-0.348-1.559-1.086-2.189-2.213c-0.63-1.126-0.876-2.134-0.738-3.023
				c0.14-0.926,0.657-1.641,1.553-2.141c0.6-0.336,1.211-0.472,1.835-0.408c0.581,0.051,1.152,0.307,1.716,0.768
				c0.186,0.163,0.202,0.33,0.051,0.5c-0.152,0.17-0.315,0.182-0.49,0.037c-0.424-0.357-0.868-0.563-1.334-0.618
				c-0.46-0.046-0.937,0.069-1.429,0.345c-0.717,0.4-1.124,0.943-1.223,1.629c-0.1,0.747,0.122,1.605,0.664,2.574
				c0.548,0.979,1.16,1.613,1.838,1.9c0.642,0.283,1.319,0.226,2.036-0.176c0.492-0.275,0.84-0.621,1.042-1.037
				s0.259-0.902,0.171-1.459c-0.037-0.234,0.063-0.362,0.297-0.385C195.55,235.115,195.681,235.213,195.727,235.441z"/>
			<path fill="#807F7B" d="M195.535,229.596c0.066-0.934,0.525-1.688,1.378-2.258c0.86-0.576,1.736-0.717,2.625-0.42
				c0.867,0.298,1.653,0.975,2.359,2.029c0.712,1.064,1.038,2.049,0.978,2.955c-0.063,0.921-0.529,1.672-1.398,2.254
				c-0.853,0.57-1.721,0.713-2.604,0.426c-0.854-0.281-1.641-0.958-2.358-2.031C195.796,231.479,195.47,230.494,195.535,229.596z
				 M197.31,227.932c-0.682,0.457-1.045,1.03-1.088,1.721c-0.04,0.753,0.249,1.59,0.867,2.514c0.624,0.932,1.285,1.515,1.984,1.747
				c0.661,0.231,1.333,0.12,2.015-0.337s1.046-1.037,1.093-1.743c0.051-0.734-0.235-1.567-0.858-2.5
				c-0.618-0.923-1.282-1.51-1.993-1.76C198.665,227.355,197.992,227.475,197.31,227.932z"/>
			<path fill="#807F7B" d="M210.347,222.262c-0.717-0.877-1.396-1.441-2.04-1.694c-0.59-0.202-1.095-0.131-1.516,0.213
				c-0.452,0.37-0.627,0.854-0.522,1.452c0.125,0.704,0.539,1.486,1.242,2.346l2.369,2.9c0.147,0.181,0.134,0.342-0.041,0.484
				c-0.175,0.144-0.336,0.125-0.482-0.056l-2.37-2.899c-0.703-0.861-1.388-1.422-2.053-1.686c-0.589-0.201-1.094-0.131-1.515,0.214
				c-0.445,0.364-0.615,0.845-0.511,1.442c0.104,0.68,0.519,1.461,1.242,2.346l2.369,2.9c0.147,0.18,0.13,0.346-0.053,0.494
				c-0.175,0.143-0.336,0.125-0.483-0.056l-2.369-2.9l-2.37-2.899c-0.154-0.189-0.144-0.354,0.031-0.498
				c0.183-0.148,0.351-0.129,0.505,0.059l0.422,0.517c-0.094-0.812,0.161-1.464,0.765-1.958c0.636-0.519,1.369-0.619,2.199-0.3
				c0.199,0.083,0.398,0.18,0.596,0.292c-0.067-0.164-0.123-0.378-0.167-0.643c-0.155-0.871,0.093-1.572,0.745-2.104
				c0.635-0.52,1.368-0.62,2.198-0.301c0.76,0.281,1.541,0.913,2.345,1.896l2.37,2.9c0.146,0.18,0.133,0.342-0.042,0.484
				c-0.183,0.149-0.348,0.134-0.495-0.046L210.347,222.262z"/>
			<path fill="#807F7B" d="M218.567,214.164c-0.809-0.793-1.546-1.281-2.214-1.461c-0.607-0.137-1.102-0.011-1.482,0.377
				c-0.409,0.418-0.529,0.918-0.36,1.5c0.201,0.688,0.698,1.419,1.491,2.197l2.673,2.623c0.166,0.163,0.17,0.326,0.012,0.486
				c-0.158,0.161-0.32,0.16-0.486-0.003l-2.673-2.624c-0.793-0.777-1.534-1.261-2.225-1.449c-0.607-0.137-1.102-0.01-1.482,0.377
				c-0.402,0.41-0.519,0.907-0.35,1.49c0.179,0.664,0.676,1.396,1.491,2.196l2.673,2.624c0.166,0.162,0.166,0.328,0.001,0.497
				c-0.158,0.161-0.32,0.159-0.486-0.003l-2.673-2.624l-2.673-2.624c-0.174-0.17-0.182-0.336-0.023-0.496
				c0.165-0.169,0.335-0.168,0.509,0.002l0.476,0.467c-0.182-0.796,0-1.473,0.546-2.029c0.575-0.585,1.293-0.765,2.153-0.539
				c0.207,0.061,0.416,0.136,0.624,0.225c-0.085-0.154-0.163-0.361-0.236-0.619c-0.249-0.85-0.079-1.573,0.51-2.174
				c0.575-0.586,1.293-0.766,2.153-0.539c0.785,0.196,1.631,0.738,2.537,1.629l2.673,2.623c0.166,0.162,0.17,0.325,0.013,0.486
				c-0.166,0.168-0.331,0.17-0.497,0.008L218.567,214.164z"/>
			<path fill="#807F7B" d="M220.809,211.549c0.871,0.706,1.675,1.067,2.411,1.083c0.7,0.026,1.309-0.279,1.825-0.917
				c0.518-0.637,0.693-1.3,0.529-1.988c-0.168-0.717-0.688-1.428-1.559-2.135l-2.909-2.358c-0.189-0.153-0.213-0.317-0.07-0.493
				c0.148-0.183,0.317-0.197,0.506-0.045l2.91,2.359l2.909,2.357c0.181,0.146,0.197,0.313,0.048,0.495
				c-0.142,0.176-0.304,0.19-0.484,0.044l-0.739-0.6c0.02,0.042,0.044,0.121,0.073,0.236c0.212,0.898-0.012,1.754-0.671,2.566
				c-0.646,0.797-1.434,1.189-2.362,1.176c-0.899-0.016-1.851-0.43-2.854-1.243l-2.909-2.358c-0.189-0.153-0.213-0.318-0.07-0.493
				c0.148-0.183,0.317-0.198,0.506-0.045L220.809,211.549z"/>
			<path fill="#807F7B" d="M228.914,200.682c-0.917-0.628-1.751-0.926-2.504-0.895c-0.697,0.045-1.278,0.406-1.742,1.083
				s-0.587,1.345-0.371,2.003c0.242,0.713,0.822,1.383,1.738,2.011l3.091,2.116c0.191,0.132,0.221,0.295,0.088,0.49
				c-0.128,0.186-0.288,0.213-0.479,0.082l-3.09-2.117l-3.09-2.116c-0.201-0.138-0.238-0.3-0.11-0.485
				c0.134-0.195,0.301-0.224,0.501-0.086l0.772,0.529c-0.023-0.041-0.049-0.115-0.078-0.223c-0.287-0.892-0.141-1.762,0.439-2.607
				c0.586-0.855,1.347-1.311,2.282-1.365c0.915-0.045,1.896,0.291,2.944,1.009l3.09,2.116c0.191,0.132,0.221,0.295,0.088,0.49
				c-0.128,0.186-0.287,0.213-0.479,0.081L228.914,200.682z"/>
			<path fill="#807F7B" d="M223.206,194.52c-0.226-0.139-0.379-0.318-0.46-0.542s-0.065-0.427,0.047-0.61
				c0.112-0.185,0.287-0.294,0.525-0.329s0.471,0.017,0.696,0.153c0.226,0.138,0.375,0.319,0.449,0.544
				c0.073,0.226,0.054,0.43-0.058,0.614c-0.112,0.184-0.284,0.293-0.515,0.326C223.66,194.709,223.432,194.656,223.206,194.52z
				 M227.488,195.848l6.396,3.897c0.199,0.121,0.237,0.282,0.114,0.483c-0.117,0.193-0.275,0.229-0.474,0.107l-6.397-3.896
				c-0.208-0.127-0.253-0.286-0.136-0.479C227.115,195.76,227.28,195.722,227.488,195.848z"/>
			<path fill="#807F7B" d="M236.498,191.633c0.469,0.557,0.738,1.127,0.808,1.712c0.06,0.604-0.076,1.212-0.407,1.825
				c-0.487,0.904-1.188,1.436-2.103,1.594c-0.887,0.152-1.898-0.078-3.035-0.691c-1.136-0.612-1.885-1.33-2.246-2.154
				c-0.379-0.857-0.325-1.737,0.161-2.641c0.326-0.605,0.77-1.048,1.329-1.328c0.518-0.27,1.138-0.36,1.86-0.273
				c0.244,0.037,0.348,0.169,0.311,0.395c-0.037,0.225-0.168,0.322-0.394,0.295c-0.549-0.075-1.034-0.01-1.457,0.193
				c-0.412,0.209-0.753,0.561-1.021,1.058c-0.39,0.723-0.441,1.399-0.157,2.03c0.316,0.684,0.964,1.289,1.942,1.816
				c0.987,0.532,1.844,0.738,2.57,0.616c0.693-0.104,1.234-0.517,1.624-1.239c0.268-0.497,0.375-0.975,0.322-1.436
				c-0.053-0.459-0.266-0.9-0.639-1.322c-0.157-0.178-0.143-0.34,0.044-0.484C236.174,191.453,236.336,191.465,236.498,191.633z"/>
			<path fill="#807F7B" d="M234.794,181.324l3.43,1.506l3.429,1.508c0.213,0.094,0.271,0.248,0.177,0.465
				c-0.091,0.207-0.243,0.263-0.456,0.169l-0.871-0.383c0.03,0.036,0.074,0.105,0.133,0.21c0.441,0.811,0.451,1.693,0.03,2.652
				c-0.413,0.939-1.069,1.524-1.969,1.757c-0.871,0.222-1.898,0.073-3.08-0.446s-1.985-1.176-2.411-1.968
				c-0.447-0.823-0.464-1.705-0.052-2.645c0.417-0.948,1.08-1.536,1.989-1.765c0.106-0.031,0.184-0.049,0.23-0.051l-0.857-0.377
				c-0.223-0.098-0.289-0.25-0.198-0.456C234.413,181.285,234.571,181.227,234.794,181.324z M235.318,183.051
				c-0.677,0.172-1.181,0.635-1.511,1.386c-0.33,0.752-0.328,1.431,0.006,2.037c0.371,0.655,1.064,1.207,2.081,1.654
				c1.027,0.451,1.897,0.587,2.612,0.408c0.683-0.159,1.188-0.614,1.519-1.366c0.331-0.752,0.326-1.438-0.015-2.057
				c-0.351-0.648-1.039-1.197-2.066-1.648C236.928,183.018,236.052,182.879,235.318,183.051z"/>
			<path fill="#807F7B" d="M233.109,180.079l0.412-1.159l-5.666-2.019c-0.219-0.078-0.289-0.228-0.21-0.45
				c0.075-0.213,0.224-0.28,0.442-0.202l5.666,2.019l0.78-2.189c0.075-0.213,0.218-0.281,0.427-0.207
				c0.229,0.082,0.307,0.229,0.23,0.441l-0.779,2.189l5.801,2.064c0.728,0.26,1.334,0.307,1.819,0.143
				c0.438-0.127,0.752-0.457,0.941-0.988c0.128-0.357,0.149-0.688,0.066-0.989c-0.08-0.278-0.27-0.554-0.566-0.822
				c-0.176-0.139-0.186-0.3-0.03-0.484c0.149-0.165,0.31-0.173,0.481-0.024c0.409,0.331,0.676,0.72,0.797,1.166
				c0.108,0.452,0.078,0.915-0.09,1.389c-0.259,0.725-0.717,1.193-1.377,1.404c-0.639,0.219-1.397,0.172-2.274-0.141l-5.801-2.064
				l-0.413,1.159c-0.075,0.212-0.228,0.278-0.457,0.196C233.1,180.436,233.033,180.291,233.109,180.079z"/>
			<path fill="#807F7B" d="M233.181,172.785c-0.252-0.078-0.445-0.215-0.579-0.412c-0.134-0.195-0.169-0.396-0.105-0.604
				c0.063-0.205,0.206-0.355,0.428-0.447c0.222-0.094,0.46-0.102,0.713-0.023c0.253,0.077,0.442,0.216,0.569,0.416
				c0.127,0.199,0.159,0.402,0.096,0.608s-0.202,0.354-0.418,0.443S233.434,172.861,233.181,172.785z M237.659,173.014l7.162,2.194
				c0.222,0.067,0.299,0.215,0.229,0.44c-0.065,0.216-0.21,0.289-0.433,0.222l-7.162-2.194c-0.232-0.071-0.316-0.215-0.25-0.431
				C237.275,173.02,237.426,172.942,237.659,173.014z"/>
			<path fill="#807F7B" d="M239.144,170.654c-0.58-0.735-0.747-1.602-0.5-2.598c0.25-1.005,0.803-1.697,1.66-2.076
				c0.842-0.362,1.879-0.391,3.111-0.084c1.242,0.308,2.146,0.817,2.711,1.528c0.573,0.724,0.733,1.593,0.481,2.608
				c-0.247,0.996-0.795,1.685-1.642,2.066c-0.821,0.367-1.858,0.395-3.111,0.084S239.698,171.363,239.144,170.654z M239.337,168.229
				c-0.198,0.797-0.08,1.466,0.353,2.006c0.477,0.584,1.254,1.01,2.332,1.277c1.089,0.27,1.97,0.256,2.643-0.042
				c0.646-0.272,1.067-0.808,1.266-1.604c0.197-0.797,0.076-1.471-0.364-2.025c-0.456-0.578-1.229-1.002-2.317-1.271
				c-1.078-0.268-1.964-0.256-2.658,0.037C239.952,166.892,239.534,167.433,239.337,168.229z"/>
			<path fill="#807F7B" d="M244.752,158.206c-1.096-0.179-1.979-0.094-2.646,0.255c-0.611,0.336-0.984,0.91-1.116,1.72
				s0.04,1.467,0.515,1.971c0.522,0.542,1.332,0.903,2.429,1.082l3.696,0.603c0.229,0.037,0.326,0.173,0.288,0.406
				c-0.036,0.223-0.17,0.314-0.399,0.277l-3.696-0.604l-3.696-0.602c-0.24-0.039-0.343-0.17-0.307-0.394
				c0.038-0.233,0.178-0.329,0.418-0.29l0.924,0.15c-0.038-0.027-0.094-0.083-0.166-0.168c-0.638-0.686-0.875-1.535-0.71-2.548
				c0.167-1.022,0.662-1.757,1.485-2.206c0.81-0.429,1.841-0.541,3.094-0.337l3.697,0.603c0.229,0.037,0.325,0.173,0.287,0.406
				c-0.036,0.223-0.169,0.314-0.398,0.277L244.752,158.206z"/>
		</g>
	</g>
	<g>
		<path fill="#807F7B" stroke="#807F7B" stroke-width="0.5" stroke-miterlimit="10" d="M108.433,177.754h2.315v-18.042h-2.315
			c-0.286,0-0.428-0.147-0.428-0.444c0-0.283,0.142-0.425,0.426-0.425h2.751h2.732c0.284,0,0.426,0.142,0.426,0.425
			c0,0.297-0.143,0.444-0.428,0.444h-2.315l0.02,18.042h2.298c0.283,0,0.425,0.142,0.425,0.425s-0.142,0.425-0.426,0.425h-2.732
			h-2.751c-0.284,0-0.426-0.142-0.426-0.425S108.147,177.754,108.433,177.754z"/>
		<path fill="#807F7B" stroke="#807F7B" stroke-width="0.5" stroke-miterlimit="10" d="M123.959,178.604
			c-0.296,0-0.444-0.148-0.444-0.444V177c-0.026,0.064-0.084,0.148-0.174,0.252c-0.722,0.9-1.732,1.352-3.033,1.352
			c-1.288,0-2.292-0.451-3.014-1.352c-0.695-0.863-1.043-2.08-1.043-3.651s0.348-2.788,1.043-3.651
			c0.721-0.888,1.726-1.332,3.014-1.332c1.313,0,2.324,0.444,3.033,1.332c0.09,0.117,0.147,0.201,0.174,0.252v-10.895
			c0-0.283,0.148-0.426,0.444-0.426c0.283,0,0.425,0.143,0.425,0.426v14.294v4.559C124.384,178.455,124.242,178.604,123.959,178.604
			z M122.665,176.711c0.566-0.721,0.85-1.758,0.85-3.11c0-1.364-0.284-2.401-0.85-3.11c-0.541-0.682-1.327-1.023-2.356-1.023
			c-1.018,0-1.796,0.342-2.337,1.023c-0.567,0.709-0.85,1.746-0.85,3.11c0,1.353,0.283,2.39,0.85,3.11
			c0.541,0.683,1.32,1.023,2.337,1.023C121.338,177.734,122.124,177.394,122.665,176.711z"/>
		<path fill="#807F7B" stroke="#807F7B" stroke-width="0.5" stroke-miterlimit="10" d="M134.023,176.131
			c-0.335,0.824-0.805,1.443-1.41,1.854c-0.631,0.412-1.385,0.618-2.26,0.618c-1.288,0-2.292-0.444-3.013-1.332
			c-0.413-0.503-0.689-1.079-0.831-1.729c-0.142-0.649-0.213-1.291-0.213-1.922c0-1.571,0.348-2.788,1.043-3.651
			c0.721-0.9,1.726-1.352,3.013-1.352c1.301,0,2.312,0.451,3.033,1.352c0.695,0.889,1.043,2.105,1.043,3.651
			c0,0.283-0.148,0.425-0.444,0.425h-6.818c0.064,1.159,0.348,2.055,0.85,2.686c0.528,0.682,1.307,1.023,2.337,1.023
			c0.708,0,1.301-0.161,1.777-0.482c0.476-0.322,0.837-0.805,1.082-1.449c0.103-0.271,0.29-0.348,0.56-0.232
			C134.029,175.681,134.113,175.861,134.023,176.131z M128.016,170.49c-0.502,0.645-0.786,1.546-0.85,2.705h6.394
			c-0.077-1.159-0.361-2.061-0.85-2.705c-0.541-0.669-1.326-1.004-2.356-1.004S128.543,169.821,128.016,170.49z"/>
		<path fill="#807F7B" stroke="#807F7B" stroke-width="0.5" stroke-miterlimit="10" d="M143.623,173.62
			c0-1.353-0.283-2.396-0.85-3.13c-0.541-0.669-1.327-1.004-2.356-1.004c-1.031,0-1.81,0.335-2.337,1.004
			c-0.567,0.734-0.85,1.777-0.85,3.13v4.559c0,0.283-0.148,0.425-0.444,0.425c-0.283,0-0.425-0.142-0.425-0.425v-4.559v-4.559
			c0-0.296,0.142-0.444,0.425-0.444c0.296,0,0.444,0.148,0.444,0.444v1.14c0.026-0.051,0.083-0.129,0.174-0.232
			c0.721-0.9,1.726-1.352,3.014-1.352c1.3,0,2.311,0.451,3.032,1.352c0.695,0.889,1.043,2.105,1.043,3.651v4.559
			c0,0.283-0.148,0.425-0.443,0.425c-0.283,0-0.426-0.142-0.426-0.425V173.62z"/>
		<path fill="#807F7B" stroke="#807F7B" stroke-width="0.5" stroke-miterlimit="10" d="M146.018,166.589h1.546v-7.321
			c0-0.283,0.147-0.425,0.444-0.425c0.283,0,0.425,0.142,0.425,0.425v7.321h2.917c0.283,0,0.425,0.136,0.425,0.405
			c0,0.297-0.142,0.445-0.425,0.445h-2.917v7.494c0,0.939,0.2,1.654,0.599,2.145c0.335,0.451,0.856,0.676,1.564,0.676
			c0.477,0,0.876-0.109,1.197-0.328c0.297-0.206,0.541-0.535,0.734-0.985c0.09-0.258,0.277-0.335,0.561-0.231
			c0.258,0.103,0.334,0.283,0.232,0.541c-0.22,0.605-0.567,1.068-1.044,1.391c-0.489,0.309-1.05,0.463-1.681,0.463
			c-0.965,0-1.713-0.335-2.24-1.004c-0.528-0.645-0.792-1.533-0.792-2.666v-7.494h-1.546c-0.283,0-0.424-0.148-0.424-0.445
			C145.594,166.725,145.734,166.589,146.018,166.589z"/>
		<path fill="#807F7B" stroke="#807F7B" stroke-width="0.5" stroke-miterlimit="10" d="M154.807,163.769
			c0-0.321,0.094-0.595,0.28-0.821c0.187-0.225,0.415-0.338,0.686-0.338s0.503,0.113,0.695,0.338c0.193,0.227,0.29,0.5,0.29,0.821
			c0,0.322-0.097,0.593-0.29,0.812c-0.192,0.219-0.425,0.328-0.695,0.328s-0.499-0.109-0.686-0.328S154.807,164.091,154.807,163.769
			z M156.178,169.062v9.117c0,0.283-0.148,0.425-0.443,0.425c-0.283,0-0.426-0.142-0.426-0.425v-9.117
			c0-0.296,0.143-0.444,0.426-0.444C156.029,168.617,156.178,168.766,156.178,169.062z"/>
		<path fill="#807F7B" stroke="#807F7B" stroke-width="0.5" stroke-miterlimit="10" d="M157.047,166.589h1.545v-7.321
			c0-0.283,0.148-0.425,0.445-0.425c0.282,0,0.424,0.142,0.424,0.425v7.321h2.918c0.282,0,0.424,0.136,0.424,0.405
			c0,0.297-0.142,0.445-0.424,0.445h-2.918v7.494c0,0.939,0.2,1.654,0.6,2.145c0.334,0.451,0.855,0.676,1.564,0.676
			c0.477,0,0.875-0.109,1.197-0.328c0.297-0.206,0.541-0.535,0.734-0.985c0.09-0.258,0.277-0.335,0.561-0.231
			c0.257,0.103,0.334,0.283,0.231,0.541c-0.22,0.605-0.567,1.068-1.044,1.391c-0.488,0.309-1.049,0.463-1.68,0.463
			c-0.966,0-1.713-0.335-2.24-1.004c-0.529-0.645-0.793-1.533-0.793-2.666v-7.494h-1.545c-0.283,0-0.425-0.148-0.425-0.445
			C156.622,166.725,156.764,166.589,157.047,166.589z"/>
		<path fill="#807F7B" stroke="#807F7B" stroke-width="0.5" stroke-miterlimit="10" d="M172.905,176.131
			c-0.335,0.824-0.805,1.443-1.41,1.854c-0.631,0.412-1.384,0.618-2.26,0.618c-1.288,0-2.292-0.444-3.014-1.332
			c-0.412-0.503-0.688-1.079-0.831-1.729c-0.141-0.649-0.212-1.291-0.212-1.922c0-1.571,0.348-2.788,1.043-3.651
			c0.722-0.9,1.726-1.352,3.014-1.352c1.3,0,2.312,0.451,3.032,1.352c0.695,0.889,1.043,2.105,1.043,3.651
			c0,0.283-0.148,0.425-0.443,0.425h-6.819c0.064,1.159,0.348,2.055,0.851,2.686c0.527,0.682,1.307,1.023,2.337,1.023
			c0.708,0,1.3-0.161,1.776-0.482c0.477-0.322,0.838-0.805,1.082-1.449c0.104-0.271,0.29-0.348,0.561-0.232
			C172.912,175.681,172.995,175.861,172.905,176.131z M166.898,170.49c-0.503,0.645-0.786,1.546-0.851,2.705h6.394
			c-0.077-1.159-0.36-2.061-0.85-2.705c-0.541-0.669-1.326-1.004-2.356-1.004S167.426,169.821,166.898,170.49z M171.515,163.17
			l-3.206,1.932c-0.245,0.142-0.445,0.084-0.6-0.174c-0.142-0.232-0.09-0.426,0.154-0.58l3.188-1.912
			c0.258-0.154,0.464-0.109,0.618,0.135C171.811,162.828,171.76,163.028,171.515,163.17z"/>
		<path fill="#807F7B" stroke="#807F7B" stroke-width="0.5" stroke-miterlimit="10" d="M120.588,197.235l-4.153,9.098v0.02v0.02
			v0.019l-0.039,0.02v0.02h-0.02v0.02l-0.019,0.02l-0.02,0.02v0.02h-0.02c-0.013,0-0.022,0-0.029,0c-0.007,0-0.01,0.006-0.01,0.019
			h-0.019v0.02h-0.02l-0.019,0.019h-0.02c-0.064,0.026-0.109,0.039-0.135,0.039c-0.039,0-0.09-0.013-0.154-0.039h-0.02h-0.019
			v-0.019h-0.02v-0.02h-0.02h-0.019c0-0.013-0.007-0.019-0.02-0.019h-0.019v-0.02h-0.02v-0.02h-0.019v-0.02l-0.02-0.02v-0.02
			l-0.039-0.02v-0.019v-0.02h-0.02v-0.02l-4.134-9.098c-0.103-0.258-0.032-0.444,0.213-0.561c0.244-0.116,0.431-0.045,0.56,0.213
			l3.767,8.248l3.728-8.248c0.103-0.245,0.296-0.315,0.58-0.213C120.633,196.804,120.705,196.99,120.588,197.235z"/>
		<path fill="#807F7B" stroke="#807F7B" stroke-width="0.5" stroke-miterlimit="10" d="M122.423,191.769
			c0-0.321,0.093-0.595,0.28-0.821c0.187-0.225,0.415-0.338,0.686-0.338s0.502,0.113,0.695,0.338c0.193,0.227,0.29,0.5,0.29,0.821
			c0,0.322-0.097,0.593-0.29,0.812c-0.193,0.219-0.425,0.328-0.695,0.328s-0.499-0.109-0.686-0.328
			C122.517,192.361,122.423,192.091,122.423,191.769z M123.795,197.062v9.117c0,0.283-0.148,0.425-0.444,0.425
			c-0.283,0-0.425-0.142-0.425-0.425v-9.117c0-0.296,0.142-0.444,0.425-0.444C123.646,196.617,123.795,196.766,123.795,197.062z"/>
		<path fill="#807F7B" stroke="#807F7B" stroke-width="0.5" stroke-miterlimit="10" d="M126.905,204.228
			c0.283,0.503,0.676,0.876,1.178,1.12c0.489,0.271,1.107,0.406,1.854,0.406c0.875,0,1.623-0.154,2.241-0.464
			c0.515-0.283,0.805-0.624,0.869-1.023c0.128-0.722-0.167-1.253-0.889-1.594s-1.513-0.641-2.376-0.898
			c-0.979-0.296-1.851-0.638-2.617-1.023c-0.766-0.387-1.072-1.044-0.917-1.971c0.128-0.669,0.573-1.204,1.333-1.603
			c0.734-0.374,1.596-0.561,2.588-0.561c0.85,0,1.596,0.161,2.241,0.482c0.618,0.336,1.12,0.824,1.506,1.469
			c0.155,0.258,0.103,0.451-0.154,0.579c-0.258,0.142-0.451,0.091-0.58-0.154c-0.283-0.489-0.676-0.862-1.178-1.12
			c-0.502-0.258-1.114-0.387-1.835-0.387c-0.863,0-1.597,0.148-2.202,0.444c-0.515,0.296-0.805,0.624-0.87,0.985
			c-0.103,0.554,0.158,0.975,0.783,1.266c0.625,0.289,1.342,0.543,2.154,0.762c1.03,0.31,1.977,0.689,2.839,1.141
			s1.204,1.229,1.024,2.337c-0.129,0.695-0.573,1.236-1.333,1.622c-0.734,0.374-1.61,0.561-2.627,0.561
			c-0.863,0-1.616-0.161-2.26-0.482c-0.644-0.322-1.152-0.818-1.526-1.488c-0.116-0.257-0.052-0.45,0.193-0.579
			C126.589,203.926,126.776,203.983,126.905,204.228z"/>
		<path fill="#807F7B" stroke="#807F7B" stroke-width="0.5" stroke-miterlimit="10" d="M136.968,201.62
			c0,1.365,0.283,2.401,0.85,3.11c0.528,0.682,1.307,1.023,2.337,1.023c1.03,0,1.815-0.342,2.356-1.023
			c0.566-0.709,0.85-1.745,0.85-3.11v-4.559c0-0.296,0.142-0.444,0.425-0.444c0.296,0,0.444,0.148,0.444,0.444v4.559v4.559
			c0,0.283-0.148,0.425-0.444,0.425c-0.283,0-0.425-0.142-0.425-0.425v-1.159c-0.026,0.052-0.084,0.135-0.174,0.252
			c-0.708,0.888-1.719,1.332-3.033,1.332c-1.288,0-2.292-0.444-3.014-1.332c-0.695-0.863-1.043-2.08-1.043-3.651v-4.559
			c0-0.296,0.142-0.444,0.425-0.444c0.296,0,0.444,0.148,0.444,0.444V201.62z"/>
		<path fill="#807F7B" stroke="#807F7B" stroke-width="0.5" stroke-miterlimit="10" d="M153.87,204.131
			c-0.335,0.824-0.806,1.443-1.41,1.854c-0.632,0.412-1.385,0.618-2.261,0.618c-1.287,0-2.292-0.444-3.013-1.332
			c-0.413-0.503-0.688-1.079-0.831-1.729c-0.142-0.649-0.213-1.291-0.213-1.922c0-1.571,0.349-2.788,1.044-3.651
			c0.721-0.9,1.726-1.352,3.013-1.352c1.301,0,2.313,0.451,3.033,1.352c0.695,0.889,1.043,2.105,1.043,3.651
			c0,0.283-0.148,0.425-0.444,0.425h-6.818c0.063,1.159,0.348,2.055,0.85,2.686c0.528,0.682,1.308,1.023,2.337,1.023
			c0.709,0,1.301-0.161,1.777-0.482c0.477-0.322,0.838-0.805,1.082-1.449c0.104-0.271,0.289-0.348,0.561-0.232
			C153.876,203.681,153.96,203.861,153.87,204.131z M147.862,198.49c-0.502,0.645-0.786,1.546-0.85,2.705h6.394
			c-0.077-1.159-0.361-2.061-0.85-2.705c-0.541-0.669-1.326-1.004-2.357-1.004C149.17,197.486,148.391,197.821,147.862,198.49z"/>
		<path fill="#807F7B" stroke="#807F7B" stroke-width="0.5" stroke-miterlimit="10" d="M157.076,187.268v18.911
			c0,0.283-0.148,0.425-0.444,0.425c-0.283,0-0.425-0.142-0.425-0.425v-18.911c0-0.283,0.142-0.425,0.425-0.425
			C156.928,186.843,157.076,186.984,157.076,187.268z"/>
		<path fill="#807F7B" stroke="#807F7B" stroke-width="0.5" stroke-miterlimit="10" d="M159.877,187.268v18.911
			c0,0.283-0.148,0.425-0.444,0.425c-0.283,0-0.425-0.142-0.425-0.425v-18.911c0-0.283,0.142-0.425,0.425-0.425
			C159.729,186.843,159.877,186.984,159.877,187.268z"/>
		<path fill="#807F7B" stroke="#807F7B" stroke-width="0.5" stroke-miterlimit="10" d="M169.516,204.131
			c-0.335,0.824-0.805,1.443-1.41,1.854c-0.631,0.412-1.385,0.618-2.26,0.618c-1.287,0-2.293-0.444-3.014-1.332
			c-0.412-0.503-0.688-1.079-0.83-1.729c-0.143-0.649-0.213-1.291-0.213-1.922c0-1.571,0.348-2.788,1.043-3.651
			c0.721-0.9,1.727-1.352,3.014-1.352c1.301,0,2.312,0.451,3.033,1.352c0.695,0.889,1.043,2.105,1.043,3.651
			c0,0.283-0.148,0.425-0.445,0.425h-6.818c0.064,1.159,0.348,2.055,0.85,2.686c0.528,0.682,1.308,1.023,2.338,1.023
			c0.708,0,1.301-0.161,1.777-0.482c0.477-0.322,0.837-0.805,1.082-1.449c0.103-0.271,0.289-0.348,0.56-0.232
			C169.521,203.681,169.605,203.861,169.516,204.131z M163.508,198.49c-0.502,0.645-0.785,1.546-0.85,2.705h6.395
			c-0.078-1.159-0.361-2.061-0.851-2.705c-0.54-0.669-1.326-1.004-2.356-1.004S164.036,197.821,163.508,198.49z"/>
	</g>
	<path fill="none" stroke="#807F7B" stroke-width="2" stroke-miterlimit="10" d="M32.957,151.014
		c-0.259-3.072-0.392-6.182-0.392-9.322c0-60.43,48.988-109.418,109.418-109.418c60.429,0,109.417,48.988,109.417,109.418
		c0,2.15-0.063,4.287-0.185,6.406"/>
</g>
</svg>
