<?xml version="1.0" encoding="utf-8"?>
<!-- Generator: Adobe Illustrator 15.1.0, SVG Export Plug-In . SVG Version: 6.00 Build 0)  -->
<!DOCTYPE svg PUBLIC "-//W3C//DTD SVG 1.1//EN" "http://www.w3.org/Graphics/SVG/1.1/DTD/svg11.dtd">
<svg version="1.1" id="Calque_1" xmlns="http://www.w3.org/2000/svg" xmlns:xlink="http://www.w3.org/1999/xlink" x="0px" y="0px"
	 width="283.46px" height="283.46px" viewBox="0 0 283.46 283.46" enable-background="new 0 0 283.46 283.46" xml:space="preserve">
<g>
	<path fill-rule="evenodd" clip-rule="evenodd" fill="#C99E63" d="M122.597,144.867c0.106-6.035,12.341-5.341,15.989-7.208
		c0.539-0.358,1.333,0.503,1.913,0.337c0.784-8.268,0.944-16.404,0.424-24.397c-7.63-1.647-16.37,0.115-23.665-5.736
		c2.134-11.986,3.054-23.719,4.006-35.458c0.809-4.351,6.11-4.868,9.571-5.317c8.365-1.082,18.355-1,26.234,0.411
		c0.229,0.701-0.201,1.407-0.901,1.847c1.606,0.648,3.019,0.345,4.675,1.232c1.286,12.438,5.069,24.355,8.872,36.267
		c-4.255,2.856-8.855,4.039-13.388,5.56c-2.887,5.883,5.384,9.434,1.759,15.47c-3.213,0.19-2.751-3.876-4.856-5.615
		c1.68-3.482,0.41-6.348,0.061-9.405c-2.235-0.119-4.399,0.093-6.499,0.623c-0.947,8.547-1.273,16.962-0.982,25.251
		c2.322,0.688,8.584-0.129,12.315,1.661c2.432,1.167,5.555,3.581,4.645,5.475c-1.016,2.107-7.055,2.283-9.596,2.557
		c-3.783,0.408-7.053,0.762-9.961,0.793C135.814,149.295,128.579,149.025,122.597,144.867z M159.65,145.043
		c0.091-0.143,0.186-0.285,0.279-0.426c-3.745-4.324-9.346-3.275-13.466-3.632c-0.777,0.963,0.829,1.422,0.302,2.332
		c-1.512,1.174-4.336,2.061-5.793,0.475c-1.009-1.097,0.413-1.913-0.664-3.177c-4.531,0.354-10.83-0.126-15.315,3.386
		C137.559,149.189,148.675,147.463,159.65,145.043z M155.988,122.236c-0.974,1.432-0.655,2.592,0.384,3.603
		C157.455,125.063,157.153,123.141,155.988,122.236z M133.089,74.354c-1.924-0.265-7.656-1.971-8.707-1.128
		c-1.76,1.416-1.411,6.688-1.692,8.643c-0.952,6.57-1.273,10.602-1.977,16.986c-0.257,2.349-1.25,6.927-0.28,8.347
		c1.438,2.103,6.647,2.637,9.854,3.095c10.105,1.447,20.306,1.486,28.561-0.812c2.135-0.594,4.924-1.875,6.688-3.24
		c1.98-1.531-0.689-7.28-1.138-8.97c-2.215-8.343-3.699-15.348-6.14-23.209C150.218,75.456,142.015,75.581,133.089,74.354z
		 M143.836,115.2c-0.853,5.949-0.981,11.746-0.416,17.396C144.063,126.693,144.571,120.817,143.836,115.2z M146.204,70.139
		c1.502-1.034,3.289-0.708,4.867-1.386c-8.934-0.743-17.945-1.854-25.934,1.921c11.455,3.415,22.353,4.149,32.465,1.134
		C153.608,70.315,150.062,70.971,146.204,70.139z"/>
	<path fill="none" stroke="#C99E63" stroke-width="2" stroke-miterlimit="10" d="M40.313,182.84
		c-5.159-12.701-8.001-26.594-8.001-41.148c0-60.429,48.988-109.417,109.418-109.417s109.418,48.988,109.418,109.417
		c0,14.652-2.88,28.63-8.104,41.4"/>
	<circle fill="none" stroke="#C99E63" stroke-width="4" stroke-miterlimit="10" cx="141.73" cy="141.692" r="122"/>
	<g>
		<g>
			<path fill="#C99E63" d="M49.903,186.459l-6.076,3.035l2.627,5.26c0.102,0.201,0.048,0.354-0.16,0.459
				c-0.208,0.104-0.363,0.055-0.464-0.146l-2.786-5.576c-0.102-0.201-0.047-0.355,0.16-0.459l6.701-3.348l7.197-3.598
				c0.208-0.104,0.363-0.055,0.464,0.146l2.786,5.574c0.102,0.203,0.047,0.355-0.161,0.459c-0.218,0.109-0.377,0.063-0.478-0.139
				l-2.628-5.258l-6.544,3.27l2.627,5.258c0.102,0.203,0.043,0.357-0.175,0.467c-0.208,0.104-0.362,0.055-0.464-0.146
				L49.903,186.459z"/>
			<path fill="#C99E63" d="M55.669,200.531l-3.07-4.977c-0.13-0.209-0.084-0.375,0.137-0.5c0.197-0.123,0.359-0.086,0.483,0.115
				l3.085,4.969c0.109,0.197,0.057,0.363-0.159,0.496C55.938,200.764,55.779,200.729,55.669,200.531z"/>
			<path fill="#C99E63" d="M54.86,205.855c-0.193,0.428-0.25,0.863-0.17,1.303c0.057,0.445,0.264,0.906,0.621,1.381
				c0.42,0.559,0.879,0.957,1.378,1.197c0.433,0.188,0.796,0.205,1.089,0.049c0.535-0.275,0.742-0.727,0.62-1.354
				s-0.304-1.279-0.548-1.957c-0.275-0.77-0.469-1.492-0.582-2.172c-0.113-0.678,0.171-1.197,0.854-1.557
				c0.502-0.248,1.064-0.23,1.691,0.057c0.597,0.283,1.133,0.74,1.607,1.371c0.407,0.541,0.659,1.096,0.756,1.664
				c0.076,0.559-0.004,1.121-0.242,1.686c-0.095,0.225-0.246,0.287-0.453,0.188c-0.217-0.094-0.275-0.242-0.177-0.445
				c0.186-0.422,0.242-0.857,0.171-1.305c-0.071-0.445-0.279-0.898-0.625-1.357c-0.414-0.551-0.863-0.943-1.347-1.184
				c-0.441-0.182-0.796-0.203-1.063-0.066c-0.412,0.209-0.564,0.582-0.455,1.123c0.108,0.541,0.285,1.123,0.53,1.748
				c0.29,0.809,0.495,1.6,0.612,2.371s-0.23,1.373-1.045,1.807c-0.518,0.262-1.086,0.246-1.703-0.047
				c-0.597-0.283-1.139-0.748-1.626-1.396c-0.413-0.549-0.669-1.107-0.766-1.678c-0.097-0.568-0.015-1.137,0.245-1.705
				c0.113-0.201,0.271-0.256,0.473-0.164C54.908,205.504,54.96,205.652,54.86,205.855z"/>
			<path fill="#C99E63" d="M65.148,215.053c0.831-0.738,1.322-1.475,1.474-2.213c0.125-0.688-0.084-1.338-0.629-1.951
				c-0.545-0.615-1.162-0.896-1.854-0.846c-0.75,0.063-1.541,0.463-2.371,1.199l-2.803,2.486c-0.174,0.154-0.339,0.143-0.496-0.033
				c-0.149-0.168-0.137-0.33,0.037-0.484l2.801-2.486l8.82-7.826c0.174-0.154,0.336-0.146,0.486,0.021
				c0.156,0.176,0.147,0.342-0.026,0.496l-6.719,5.963c0.045-0.014,0.123-0.021,0.234-0.023c0.935-0.063,1.743,0.291,2.425,1.059
				c0.688,0.775,0.944,1.623,0.771,2.545c-0.178,0.898-0.742,1.77-1.691,2.611l-2.802,2.486c-0.174,0.154-0.339,0.143-0.496-0.033
				c-0.149-0.17-0.138-0.33,0.036-0.484L65.148,215.053z"/>
			<path fill="#C99E63" d="M69.665,215.416c0.927-0.137,1.761,0.148,2.501,0.859c0.748,0.717,1.073,1.543,0.975,2.475
				c-0.105,0.91-0.598,1.824-1.477,2.74c-0.886,0.924-1.778,1.453-2.676,1.588c-0.913,0.137-1.747-0.156-2.501-0.881
				c-0.741-0.711-1.066-1.527-0.975-2.453c0.09-0.895,0.582-1.807,1.477-2.738C67.882,216.074,68.774,215.543,69.665,215.416z
				 M71.672,216.791c-0.593-0.568-1.231-0.799-1.915-0.693c-0.744,0.123-1.5,0.586-2.269,1.387c-0.776,0.809-1.203,1.58-1.28,2.313
				c-0.084,0.695,0.17,1.328,0.762,1.896c0.593,0.568,1.238,0.799,1.938,0.691c0.729-0.107,1.48-0.564,2.258-1.375
				c0.769-0.801,1.199-1.576,1.291-2.324C72.525,217.99,72.265,217.359,71.672,216.791z"/>
			<path fill="#C99E63" d="M76.071,220.355l-0.591,0.727c0.042-0.02,0.118-0.041,0.228-0.061c0.913-0.211,1.768,0.008,2.563,0.656
				c0.803,0.654,1.193,1.451,1.17,2.387c-0.031,0.916-0.448,1.867-1.25,2.85c-0.81,0.994-1.656,1.594-2.54,1.801
				c-0.898,0.209-1.753-0.018-2.564-0.678c-0.796-0.648-1.185-1.438-1.169-2.365c0.005-0.119,0.012-0.203,0.023-0.248l-5.266,6.457
				c-0.146,0.182-0.312,0.197-0.494,0.047c-0.176-0.143-0.189-0.303-0.042-0.484l7.03-8.621l2.366-2.904
				c0.153-0.188,0.318-0.211,0.493-0.068C76.211,219.998,76.226,220.168,76.071,220.355z M77.819,222.23
				c-0.637-0.518-1.291-0.697-1.965-0.537c-0.73,0.184-1.447,0.705-2.149,1.566c-0.708,0.869-1.071,1.672-1.089,2.408
				c-0.029,0.699,0.275,1.309,0.911,1.828c0.636,0.518,1.298,0.697,1.986,0.533c0.718-0.166,1.431-0.682,2.14-1.553
				c0.701-0.859,1.068-1.668,1.1-2.42C78.767,223.357,78.455,222.75,77.819,222.23z"/>
			<path fill="#C99E63" d="M88.69,230.465c0.869-0.352,1.747-0.27,2.635,0.244c0.896,0.521,1.406,1.246,1.531,2.174
				c0.111,0.91-0.15,1.914-0.789,3.012c-0.643,1.107-1.385,1.832-2.225,2.176c-0.854,0.35-1.734,0.26-2.639-0.266
				c-0.887-0.516-1.396-1.232-1.526-2.152c-0.123-0.891,0.14-1.895,0.788-3.012C87.114,231.525,87.856,230.799,88.69,230.465z
				 M90.966,231.328c-0.709-0.414-1.385-0.486-2.024-0.223c-0.693,0.295-1.319,0.922-1.877,1.883
				c-0.563,0.971-0.796,1.82-0.698,2.551c0.082,0.695,0.479,1.25,1.188,1.662s1.392,0.484,2.046,0.215
				c0.682-0.275,1.305-0.898,1.869-1.869c0.558-0.961,0.793-1.814,0.705-2.563C92.079,232.291,91.676,231.74,90.966,231.328z"/>
			<path fill="#C99E63" d="M92.247,240.203l1.611-3.381l5.054-10.602c0.101-0.209,0.252-0.266,0.456-0.17
				c0.213,0.102,0.27,0.258,0.169,0.469l-3.852,8.08c0.036-0.029,0.108-0.072,0.214-0.127c0.823-0.416,1.707-0.4,2.652,0.051
				c0.926,0.441,1.49,1.115,1.695,2.021c0.195,0.879,0.015,1.9-0.541,3.064c-0.555,1.166-1.235,1.949-2.041,2.352
				c-0.837,0.42-1.719,0.41-2.645-0.031c-0.936-0.445-1.503-1.127-1.703-2.043c-0.027-0.107-0.04-0.188-0.035-0.244l-0.41,0.859
				c-0.105,0.219-0.264,0.277-0.477,0.176C92.191,240.582,92.142,240.422,92.247,240.203z M93.995,239.719
				c0.148,0.691,0.592,1.213,1.333,1.566c0.731,0.35,1.412,0.363,2.042,0.043c0.663-0.342,1.233-1.014,1.711-2.016
				c0.482-1.012,0.646-1.879,0.488-2.598c-0.147-0.691-0.587-1.213-1.318-1.561c-0.741-0.354-1.427-0.369-2.057-0.049
				c-0.658,0.33-1.229,1.002-1.711,2.016C94.005,238.123,93.843,238.988,93.995,239.719z"/>
			<path fill="#C99E63" d="M94.767,248.051c-0.01,0.373,0.063,0.695,0.217,0.965c0.173,0.254,0.434,0.453,0.785,0.6
				c0.521,0.215,0.979,0.209,1.372-0.018c0.442-0.264,0.811-0.752,1.106-1.465l4.656-11.264c0.094-0.225,0.244-0.295,0.453-0.209
				c0.208,0.086,0.266,0.242,0.174,0.467l-4.658,11.264c-0.352,0.852-0.817,1.453-1.397,1.809c-0.589,0.352-1.249,0.377-1.979,0.076
				c-0.465-0.193-0.826-0.486-1.086-0.879c-0.234-0.371-0.347-0.824-0.337-1.359c0.028-0.229,0.146-0.34,0.354-0.334
				C94.667,247.688,94.78,247.803,94.767,248.051z M104.196,232.697c0.101-0.244,0.256-0.424,0.463-0.537
				c0.209-0.115,0.412-0.131,0.611-0.049s0.334,0.238,0.406,0.469c0.071,0.23,0.057,0.467-0.045,0.711
				c-0.101,0.244-0.257,0.42-0.468,0.527s-0.416,0.121-0.614,0.039c-0.199-0.084-0.334-0.236-0.402-0.459
				S104.095,232.941,104.196,232.697z"/>
			<path fill="#C99E63" d="M108.985,245.34c-0.477,0.551-0.998,0.904-1.566,1.064c-0.586,0.152-1.209,0.111-1.866-0.121
				c-0.968-0.34-1.601-0.951-1.899-1.83c-0.173-0.498-0.223-1.018-0.152-1.561c0.071-0.541,0.193-1.057,0.365-1.545
				c0.43-1.217,1.023-2.068,1.781-2.553c0.789-0.506,1.666-0.59,2.635-0.248c0.977,0.344,1.613,0.961,1.908,1.85
				c0.279,0.873,0.209,1.908-0.214,3.105c-0.077,0.221-0.228,0.291-0.45,0.213l-5.123-1.807c-0.268,0.914-0.299,1.684-0.095,2.305
				c0.21,0.668,0.702,1.139,1.477,1.412c0.532,0.188,1.021,0.221,1.467,0.098s0.849-0.402,1.208-0.836
				c0.152-0.184,0.313-0.193,0.484-0.031C109.114,244.994,109.127,245.154,108.985,245.34z M106.014,239.379
				c-0.554,0.365-1.013,0.988-1.378,1.869l4.804,1.695c0.259-0.92,0.292-1.691,0.101-2.32c-0.223-0.662-0.723-1.131-1.496-1.404
				C107.271,238.947,106.593,239,106.014,239.379z"/>
			<path fill="#C99E63" d="M112.341,238.197l1.188,0.324l1.588-5.801c0.061-0.225,0.205-0.307,0.434-0.244
				c0.217,0.061,0.295,0.203,0.234,0.426l-1.588,5.803l2.242,0.613c0.217,0.059,0.297,0.195,0.238,0.41
				c-0.064,0.234-0.205,0.322-0.423,0.264l-2.241-0.613l-1.625,5.939c-0.203,0.744-0.205,1.354-0.004,1.824
				c0.158,0.428,0.511,0.717,1.055,0.865c0.366,0.1,0.697,0.098,0.992-0.008c0.271-0.102,0.531-0.311,0.777-0.627
				c0.125-0.186,0.285-0.207,0.48-0.066c0.176,0.137,0.195,0.295,0.061,0.477c-0.299,0.436-0.667,0.729-1.103,0.885
				c-0.442,0.141-0.907,0.146-1.392,0.014c-0.742-0.203-1.244-0.625-1.504-1.268c-0.267-0.621-0.277-1.381-0.031-2.279l1.625-5.939
				l-1.188-0.324c-0.218-0.059-0.295-0.207-0.23-0.441C111.985,238.215,112.124,238.139,112.341,238.197z"/>
			<path fill="#C99E63" d="M118.469,247.986c0.142,0.449,0.389,0.811,0.743,1.086c0.339,0.293,0.801,0.496,1.385,0.611
				c0.684,0.137,1.292,0.127,1.824-0.027c0.447-0.148,0.729-0.379,0.842-0.691c0.216-0.561,0.068-1.035-0.44-1.422
				c-0.51-0.385-1.081-0.75-1.714-1.09c-0.719-0.389-1.346-0.799-1.883-1.229s-0.672-1.006-0.404-1.73
				c0.207-0.52,0.64-0.881,1.297-1.086c0.633-0.188,1.337-0.205,2.112-0.053c0.664,0.131,1.222,0.377,1.675,0.734
				c0.43,0.365,0.744,0.838,0.943,1.416c0.08,0.232,0.01,0.379-0.213,0.443c-0.224,0.074-0.367,0.004-0.428-0.215
				c-0.145-0.438-0.392-0.799-0.743-1.084s-0.81-0.482-1.372-0.594c-0.676-0.133-1.272-0.127-1.793,0.018
				c-0.449,0.16-0.729,0.381-0.836,0.66c-0.168,0.432-0.031,0.811,0.41,1.141c0.442,0.33,0.963,0.646,1.563,0.947
				c0.756,0.408,1.436,0.859,2.038,1.357c0.603,0.496,0.745,1.176,0.429,2.041c-0.211,0.541-0.645,0.908-1.301,1.102
				c-0.633,0.189-1.347,0.203-2.142,0.047c-0.675-0.133-1.237-0.379-1.689-0.738c-0.452-0.357-0.771-0.836-0.956-1.434
				c-0.05-0.225,0.031-0.371,0.242-0.438C118.271,247.693,118.407,247.77,118.469,247.986z"/>
			<path fill="#C99E63" d="M140.556,252.48c-0.236-0.008-0.35-0.135-0.34-0.377l0.034-0.951c-0.022,0.051-0.071,0.119-0.146,0.199
				c-0.602,0.721-1.42,1.061-2.455,1.021c-1.025-0.037-1.812-0.436-2.358-1.197c-0.528-0.729-0.768-1.738-0.72-3.029
				c0.047-1.289,0.361-2.277,0.94-2.967c0.601-0.707,1.414-1.043,2.438-1.006c1.047,0.039,1.838,0.434,2.375,1.184
				c0.068,0.098,0.111,0.168,0.131,0.211l0.329-8.943c0.009-0.232,0.13-0.346,0.366-0.336c0.226,0.008,0.334,0.129,0.326,0.361
				l-0.433,11.734l-0.138,3.744C140.898,252.371,140.78,252.488,140.556,252.48z M139.583,250.889
				c0.473-0.576,0.729-1.418,0.77-2.529c0.041-1.119-0.152-1.979-0.582-2.578c-0.41-0.576-1.025-0.879-1.846-0.908
				c-0.81-0.031-1.439,0.227-1.891,0.771c-0.473,0.564-0.73,1.408-0.771,2.527c-0.041,1.111,0.153,1.971,0.583,2.58
				c0.409,0.576,1.02,0.879,1.829,0.908C138.495,251.689,139.132,251.434,139.583,250.889z"/>
			<path fill="#C99E63" d="M148.494,250.236c-0.24,0.688-0.595,1.209-1.063,1.566c-0.489,0.357-1.082,0.551-1.779,0.576
				c-1.025,0.041-1.839-0.293-2.441-1c-0.344-0.4-0.582-0.863-0.717-1.395c-0.133-0.529-0.209-1.053-0.229-1.57
				c-0.05-1.291,0.188-2.301,0.714-3.029c0.545-0.762,1.33-1.164,2.355-1.203c1.035-0.041,1.854,0.299,2.457,1.016
				c0.582,0.709,0.898,1.697,0.947,2.965c0.009,0.232-0.104,0.354-0.34,0.363l-5.429,0.211c0.089,0.949,0.343,1.676,0.763,2.178
				c0.441,0.543,1.072,0.801,1.893,0.768c0.564-0.021,1.03-0.172,1.399-0.451s0.641-0.686,0.815-1.223
				c0.072-0.225,0.219-0.295,0.438-0.207C148.485,249.867,148.558,250.012,148.494,250.236z M143.532,245.791
				c-0.379,0.545-0.576,1.293-0.59,2.246l5.09-0.197c-0.1-0.949-0.354-1.68-0.764-2.193c-0.451-0.533-1.088-0.783-1.908-0.752
				S143.931,245.227,143.532,245.791z M146.974,239.639l-2.49,1.686c-0.19,0.123-0.352,0.082-0.482-0.125
				c-0.12-0.186-0.086-0.346,0.104-0.48l2.476-1.668c0.201-0.135,0.366-0.104,0.497,0.092
				C147.199,239.35,147.164,239.516,146.974,239.639z"/>
			<path fill="#C99E63" d="M157.022,249.373c-0.188,0.703-0.502,1.25-0.942,1.643c-0.461,0.393-1.038,0.629-1.731,0.709
				c-1.019,0.117-1.855-0.154-2.51-0.814c-0.631-0.641-1.02-1.604-1.167-2.885c-0.147-1.283,0.015-2.307,0.483-3.074
				c0.486-0.803,1.239-1.262,2.259-1.379c0.683-0.078,1.3,0.033,1.851,0.332c0.516,0.271,0.945,0.727,1.287,1.369
				c0.108,0.223,0.06,0.383-0.146,0.48c-0.205,0.098-0.361,0.047-0.467-0.154c-0.252-0.492-0.583-0.854-0.991-1.084
				c-0.407-0.219-0.892-0.297-1.452-0.232c-0.815,0.094-1.4,0.438-1.756,1.031c-0.379,0.65-0.506,1.527-0.379,2.631
				c0.127,1.115,0.449,1.936,0.963,2.463c0.482,0.508,1.131,0.717,1.946,0.623c0.561-0.064,1.015-0.25,1.361-0.557
				c0.347-0.305,0.587-0.732,0.721-1.279c0.056-0.23,0.196-0.311,0.421-0.24C156.985,249.004,157.068,249.145,157.022,249.373z"/>
			<path fill="#C99E63" d="M159.11,243.904c0.42-0.838,1.134-1.355,2.141-1.553c1.017-0.201,1.878,0.008,2.585,0.623
				c0.685,0.609,1.149,1.537,1.395,2.781c0.247,1.258,0.169,2.291-0.235,3.104c-0.413,0.826-1.133,1.34-2.159,1.543
				c-1.007,0.197-1.862-0.006-2.567-0.611c-0.68-0.588-1.145-1.516-1.395-2.783C158.625,245.742,158.704,244.707,159.11,243.904z
				 M161.389,243.053c-0.806,0.158-1.36,0.547-1.667,1.168c-0.327,0.68-0.383,1.564-0.168,2.654c0.217,1.1,0.603,1.893,1.158,2.375
				c0.521,0.471,1.184,0.625,1.989,0.467s1.364-0.555,1.679-1.188c0.331-0.658,0.389-1.539,0.172-2.639
				c-0.215-1.09-0.602-1.887-1.162-2.393C162.861,243.043,162.194,242.893,161.389,243.053z"/>
			<path fill="#C99E63" d="M180.627,242.941l-0.692,1.297c-0.34,0.582-0.718,1.002-1.135,1.262
				c-0.418,0.262-0.822,0.381-1.214,0.359c-0.339,0.004-0.651-0.09-0.938-0.281s-0.528-0.467-0.726-0.828s-0.295-0.813-0.292-1.357
				c0.002-0.543,0.159-1.141,0.473-1.791c0.597-1.029,0.907-1.572,0.931-1.627c-0.905-0.709-1.433-1.521-1.582-2.438
				c-0.15-0.916,0.241-1.525,1.174-1.828c0.934-0.303,1.559-0.014,1.877,0.867c0.316,0.881,0.314,1.635-0.008,2.26
				s-0.498,0.973-0.527,1.041l2.415,1.986c0.486-1.033,0.751-1.592,0.796-1.678c0.113-0.223,0.261-0.268,0.443-0.133
				c0.211,0.123,0.264,0.289,0.156,0.5c-0.033,0.059-0.314,0.646-0.846,1.764l0.953,0.691c0.297,0.203,0.48,0.309,0.549,0.318
				c0.069,0.008,0.131-0.07,0.184-0.232c0.055-0.162,0.107-0.49,0.162-0.986c0.021-0.232,0.147-0.332,0.381-0.297
				c0.227,0.051,0.328,0.188,0.304,0.412c-0.079,0.775-0.212,1.285-0.4,1.525c-0.188,0.242-0.424,0.336-0.706,0.285
				c-0.184-0.021-0.457-0.16-0.818-0.42L180.627,242.941z M177.421,239.387c0.021-0.029,0.178-0.318,0.47-0.865
				c0.292-0.545,0.317-1.088,0.075-1.623c-0.242-0.537-0.641-0.693-1.199-0.471c-0.557,0.223-0.777,0.623-0.662,1.201
				C176.219,238.209,176.657,238.795,177.421,239.387z M180.063,242.494c-0.095-0.078-0.924-0.76-2.487-2.045l-0.866,1.533
				c-0.259,0.506-0.392,0.971-0.399,1.398s0.053,0.77,0.184,1.025c0.129,0.256,0.283,0.445,0.46,0.564s0.382,0.18,0.612,0.184
				c0.676,0.016,1.271-0.426,1.787-1.322L180.063,242.494z"/>
			<path fill="#C99E63" d="M190.419,232.139l0.474,0.807c-0.003-0.047,0.005-0.125,0.023-0.234c0.122-0.928,0.624-1.652,1.511-2.172
				c0.894-0.523,1.775-0.609,2.646-0.262c0.847,0.35,1.591,1.072,2.233,2.168c0.646,1.105,0.912,2.107,0.799,3.01
				c-0.119,0.914-0.629,1.637-1.532,2.164c-0.886,0.52-1.761,0.609-2.625,0.27c-0.11-0.047-0.185-0.082-0.224-0.109l4.211,7.191
				c0.117,0.199,0.074,0.359-0.129,0.479c-0.195,0.115-0.352,0.072-0.469-0.129l-5.622-9.6l-1.894-3.232
				c-0.122-0.211-0.086-0.373,0.108-0.486C190.134,231.883,190.296,231.928,190.419,232.139z M192.787,231.156
				c-0.708,0.414-1.104,0.965-1.19,1.652c-0.084,0.75,0.154,1.604,0.715,2.561c0.567,0.969,1.192,1.59,1.876,1.863
				c0.646,0.271,1.323,0.199,2.032-0.215c0.708-0.414,1.106-0.973,1.195-1.674c0.095-0.73-0.141-1.58-0.707-2.547
				c-0.563-0.959-1.189-1.586-1.884-1.877C194.175,230.662,193.495,230.742,192.787,231.156z"/>
			<path fill="#C99E63" d="M202.128,224.598l2.147,3.068l2.147,3.068c0.133,0.191,0.104,0.354-0.09,0.49
				c-0.186,0.129-0.344,0.098-0.478-0.092l-0.546-0.781c0.008,0.047,0.009,0.129,0.004,0.248c-0.043,0.922-0.494,1.684-1.352,2.283
				c-0.84,0.588-1.705,0.748-2.594,0.479c-0.861-0.264-1.66-0.924-2.4-1.98c-0.74-1.059-1.086-2.037-1.039-2.936
				c0.047-0.936,0.489-1.697,1.33-2.285c0.85-0.594,1.721-0.752,2.617-0.475c0.106,0.027,0.181,0.053,0.223,0.076l-0.537-0.768
				c-0.14-0.199-0.117-0.363,0.068-0.492C201.823,224.365,201.989,224.398,202.128,224.598z M201.68,226.344
				c-0.669-0.203-1.339-0.07-2.011,0.4c-0.674,0.471-1.023,1.053-1.053,1.744c-0.025,0.754,0.281,1.584,0.918,2.494
				c0.644,0.92,1.316,1.488,2.02,1.705c0.666,0.219,1.336,0.094,2.008-0.377c0.673-0.471,1.025-1.059,1.057-1.766
				c0.036-0.736-0.268-1.563-0.91-2.482C203.071,227.152,202.396,226.58,201.68,226.344z"/>
			<path fill="#C99E63" d="M204.007,223.133l0.598,0.721c-0.012-0.045-0.016-0.123-0.016-0.234
				c-0.029-0.938,0.352-1.732,1.143-2.387c0.799-0.66,1.654-0.889,2.569-0.684c0.892,0.209,1.743,0.803,2.552,1.781
				c0.816,0.986,1.24,1.934,1.271,2.842c0.031,0.922-0.357,1.715-1.163,2.383c-0.79,0.654-1.64,0.883-2.548,0.686
				c-0.116-0.027-0.195-0.051-0.238-0.07l5.311,6.42c0.148,0.18,0.131,0.346-0.051,0.496c-0.174,0.143-0.334,0.125-0.482-0.055
				l-7.092-8.572l-2.387-2.887c-0.154-0.186-0.146-0.352,0.028-0.496C203.684,222.926,203.853,222.945,204.007,223.133z
				 M206.187,221.783c-0.633,0.523-0.936,1.131-0.908,1.822c0.035,0.752,0.408,1.557,1.116,2.412
				c0.715,0.865,1.432,1.377,2.15,1.537c0.682,0.164,1.339-0.016,1.971-0.539c0.632-0.521,0.937-1.137,0.911-1.844
				c-0.023-0.736-0.393-1.537-1.107-2.4c-0.708-0.855-1.428-1.373-2.16-1.549C207.477,221.072,206.819,221.26,206.187,221.783z"/>
			<path fill="#C99E63" d="M218.16,218.213c0.28,0.672,0.366,1.297,0.257,1.877c-0.125,0.592-0.438,1.133-0.938,1.619
				c-0.735,0.715-1.564,1.01-2.484,0.887c-0.523-0.066-1.012-0.252-1.465-0.557s-0.86-0.643-1.222-1.014
				c-0.899-0.926-1.397-1.836-1.495-2.73c-0.104-0.932,0.211-1.754,0.947-2.471c0.742-0.721,1.578-1.018,2.506-0.887
				c0.906,0.137,1.803,0.662,2.688,1.572c0.162,0.166,0.158,0.332-0.011,0.496l-3.896,3.787c0.701,0.646,1.375,1.018,2.023,1.109
				c0.693,0.109,1.333-0.123,1.922-0.695c0.404-0.393,0.65-0.816,0.738-1.271c0.088-0.453,0.018-0.938-0.212-1.453
				c-0.096-0.217-0.033-0.365,0.188-0.447C217.905,217.945,218.057,218.004,218.16,218.213z M211.499,218.227
				c0.082,0.658,0.436,1.348,1.063,2.064l3.652-3.549c-0.708-0.641-1.386-1.014-2.034-1.121c-0.692-0.096-1.333,0.145-1.921,0.717
				C211.67,216.91,211.417,217.539,211.499,218.227z"/>
			<path fill="#C99E63" d="M213.257,212.029l0.82-0.918l-4.488-4.006c-0.174-0.154-0.182-0.32-0.025-0.496
				c0.15-0.168,0.313-0.176,0.486-0.02l4.488,4.004l1.547-1.734c0.15-0.168,0.309-0.178,0.474-0.029
				c0.182,0.162,0.197,0.326,0.047,0.494l-1.547,1.734l4.595,4.1c0.576,0.516,1.119,0.787,1.631,0.818
				c0.455,0.047,0.869-0.141,1.245-0.561c0.253-0.283,0.397-0.58,0.435-0.893c0.03-0.289-0.041-0.613-0.215-0.975
				c-0.11-0.195-0.059-0.348,0.154-0.459c0.2-0.098,0.352-0.045,0.455,0.156c0.255,0.463,0.354,0.922,0.299,1.381
				c-0.07,0.461-0.272,0.879-0.607,1.254c-0.512,0.574-1.113,0.834-1.804,0.781c-0.675-0.037-1.359-0.367-2.054-0.986l-4.595-4.1
				l-0.819,0.918c-0.15,0.168-0.316,0.172-0.498,0.01C213.114,212.355,213.106,212.197,213.257,212.029z"/>
			<path fill="#C99E63" d="M227.993,206.572c0.373,0.625,0.547,1.232,0.52,1.82c-0.039,0.605-0.271,1.184-0.697,1.736
				c-0.627,0.813-1.405,1.223-2.334,1.23c-0.527,0.008-1.037-0.107-1.529-0.344s-0.942-0.514-1.354-0.832
				c-1.021-0.787-1.643-1.619-1.865-2.49c-0.236-0.906-0.04-1.768,0.587-2.578c0.634-0.82,1.419-1.232,2.356-1.234
				c0.916,0.008,1.877,0.4,2.881,1.176c0.186,0.143,0.205,0.307,0.061,0.494l-3.319,4.299c0.784,0.541,1.505,0.813,2.159,0.813
				c0.701,0.01,1.303-0.311,1.805-0.961c0.344-0.445,0.528-0.9,0.551-1.363c0.022-0.461-0.115-0.932-0.416-1.408
				c-0.125-0.201-0.084-0.357,0.123-0.471C227.704,206.342,227.862,206.381,227.993,206.572z M221.401,207.529
				c0.174,0.641,0.622,1.271,1.345,1.895l3.112-4.033c-0.791-0.533-1.516-0.807-2.172-0.822c-0.699,0.006-1.299,0.334-1.801,0.982
				C221.384,206.201,221.223,206.859,221.401,207.529z"/>
			<path fill="#C99E63" d="M224.938,200.822l0.784,0.512c-0.024-0.041-0.053-0.113-0.084-0.221c-0.307-0.885-0.18-1.758,0.381-2.617
				c0.376-0.576,0.854-0.98,1.436-1.213c0.539-0.225,1.164-0.264,1.877-0.117c0.24,0.059,0.332,0.197,0.275,0.42
				c-0.055,0.221-0.193,0.307-0.416,0.26c-0.541-0.119-1.029-0.096-1.468,0.072c-0.429,0.174-0.798,0.496-1.105,0.969
				c-0.448,0.688-0.558,1.357-0.326,2.01c0.259,0.709,0.853,1.365,1.783,1.973l3.138,2.045c0.194,0.129,0.228,0.291,0.099,0.488
				c-0.124,0.189-0.282,0.219-0.478,0.092l-3.137-2.045l-3.137-2.047c-0.204-0.133-0.244-0.293-0.121-0.482
				C224.567,200.723,224.733,200.689,224.938,200.822z"/>
			<path fill="#C99E63" d="M224.923,192.713c-0.229-0.133-0.387-0.311-0.473-0.531c-0.086-0.223-0.074-0.426,0.033-0.613
				c0.109-0.186,0.281-0.299,0.519-0.34c0.237-0.039,0.471,0.006,0.7,0.139c0.229,0.133,0.382,0.311,0.461,0.535
				c0.078,0.223,0.063,0.428-0.045,0.613c-0.107,0.188-0.277,0.299-0.508,0.338S225.151,192.846,224.923,192.713z M229.232,193.947
				l6.481,3.756c0.201,0.117,0.242,0.277,0.124,0.482c-0.113,0.195-0.271,0.234-0.472,0.117l-6.48-3.756
				c-0.211-0.123-0.26-0.281-0.146-0.477C228.857,193.867,229.022,193.826,229.232,193.947z"/>
			<path fill="#C99E63" d="M238.145,189.535c0.482,0.545,0.765,1.109,0.847,1.693c0.074,0.602-0.048,1.213-0.365,1.834
				c-0.465,0.914-1.154,1.461-2.065,1.643c-0.517,0.105-1.038,0.086-1.565-0.057c-0.527-0.141-1.021-0.33-1.484-0.566
				c-1.149-0.586-1.914-1.287-2.295-2.102c-0.398-0.85-0.365-1.73,0.102-2.645c0.47-0.922,1.166-1.471,2.086-1.646
				c0.902-0.162,1.919,0.045,3.051,0.621c0.207,0.105,0.257,0.264,0.15,0.475l-2.468,4.84c0.872,0.387,1.63,0.52,2.272,0.398
				c0.691-0.121,1.223-0.547,1.596-1.277c0.256-0.502,0.353-0.982,0.289-1.441c-0.063-0.459-0.286-0.895-0.669-1.309
				c-0.161-0.174-0.149-0.336,0.033-0.484C237.817,189.363,237.979,189.371,238.145,189.535z M231.843,191.695
				c0.289,0.596,0.847,1.133,1.672,1.611l2.313-4.537c-0.876-0.379-1.639-0.514-2.287-0.406c-0.687,0.135-1.216,0.566-1.588,1.297
				C231.58,190.393,231.544,191.07,231.843,191.695z"/>
		</g>
	</g>
	<g>
		<path fill="#C99E63" stroke="#C99E63" stroke-width="0.5" stroke-miterlimit="10" d="M123.708,169.486h-1.256v8.693
			c0,0.283-0.147,0.424-0.443,0.424c-0.283,0-0.426-0.141-0.426-0.424v-1.875c-0.348,0.529-0.74,0.953-1.178,1.275
			c-0.876,0.682-1.906,1.023-3.091,1.023c-1.958,0-3.451-0.881-4.481-2.646c-0.541-0.889-0.93-1.957-1.168-3.205
			c-0.238-1.25-0.357-2.596-0.357-4.037c0-1.418,0.119-2.746,0.357-3.99c0.238-1.242,0.627-2.32,1.168-3.234
			c1.03-1.766,2.523-2.646,4.481-2.646c1.185,0,2.215,0.34,3.091,1.023c0.85,0.67,1.52,1.648,2.009,2.936
			c0.116,0.283,0.038,0.471-0.231,0.561c-0.283,0.104-0.471,0.02-0.561-0.252c-0.451-1.145-1.03-2.002-1.738-2.568
			c-0.709-0.553-1.564-0.83-2.569-0.83c-1.636,0-2.885,0.734-3.747,2.201c-0.49,0.838-0.844,1.846-1.063,3.023
			s-0.328,2.438-0.328,3.777c0,1.377,0.109,2.648,0.328,3.814s0.572,2.16,1.063,2.984c0.862,1.494,2.111,2.24,3.747,2.24
			c0.991,0,1.848-0.283,2.569-0.85c0.708-0.555,1.275-1.385,1.699-2.492v-4.926h-2.395c-0.271,0-0.406-0.141-0.406-0.424
			c0-0.297,0.136-0.445,0.406-0.445h2.82h1.699c0.271,0,0.406,0.148,0.406,0.445C124.114,169.346,123.979,169.486,123.708,169.486z"
			/>
		<path fill="#C99E63" stroke="#C99E63" stroke-width="0.5" stroke-miterlimit="10" d="M132.594,169.063v4.559v4.559
			c0,0.283-0.148,0.424-0.444,0.424c-0.283,0-0.425-0.141-0.425-0.424v-1.16c-0.026,0.053-0.084,0.135-0.174,0.252
			c-0.708,0.889-1.72,1.332-3.032,1.332c-1.289,0-2.293-0.443-3.014-1.332c-0.695-0.863-1.043-2.08-1.043-3.65
			c0-1.572,0.348-2.789,1.043-3.652c0.721-0.9,1.725-1.352,3.014-1.352c1.3,0,2.311,0.451,3.032,1.352
			c0.09,0.104,0.147,0.182,0.174,0.232v-1.139c0-0.297,0.142-0.445,0.425-0.445C132.445,168.617,132.594,168.766,132.594,169.063z
			 M130.874,170.49c-0.541-0.668-1.326-1.004-2.355-1.004c-1.031,0-1.811,0.336-2.338,1.004c-0.566,0.734-0.85,1.777-0.85,3.131
			c0,1.365,0.283,2.4,0.85,3.109c0.527,0.682,1.307,1.023,2.338,1.023c1.029,0,1.814-0.342,2.355-1.023
			c0.566-0.709,0.851-1.744,0.851-3.109C131.725,172.268,131.44,171.225,130.874,170.49z"/>
		<path fill="#C99E63" stroke="#C99E63" stroke-width="0.5" stroke-miterlimit="10" d="M145.438,173.621
			c0-1.379-0.212-2.436-0.637-3.168c-0.412-0.645-0.959-0.967-1.643-0.967c-0.733,0-1.287,0.322-1.66,0.967
			c-0.438,0.76-0.657,1.814-0.657,3.168v4.559c0,0.283-0.142,0.424-0.425,0.424s-0.425-0.141-0.425-0.424v-4.559
			c0-1.354-0.22-2.408-0.657-3.168c-0.412-0.645-0.959-0.967-1.642-0.967c-0.722,0-1.269,0.322-1.642,0.967
			c-0.438,0.721-0.657,1.775-0.657,3.168v4.559c0,0.283-0.147,0.424-0.444,0.424c-0.283,0-0.425-0.141-0.425-0.424v-4.559v-4.559
			c0-0.297,0.142-0.445,0.425-0.445c0.297,0,0.444,0.148,0.444,0.445v0.811c0.554-0.838,1.319-1.256,2.299-1.256
			c1.03,0,1.822,0.471,2.376,1.41c0.129,0.232,0.244,0.477,0.348,0.734c0.064-0.207,0.18-0.451,0.348-0.734
			c0.541-0.939,1.34-1.41,2.395-1.41c1.031,0,1.822,0.471,2.377,1.41c0.515,0.85,0.772,2.047,0.772,3.594v4.559
			c0,0.283-0.142,0.424-0.425,0.424c-0.297,0-0.445-0.141-0.445-0.424V173.621z"/>
		<path fill="#C99E63" stroke="#C99E63" stroke-width="0.5" stroke-miterlimit="10" d="M159.153,173.621
			c0-1.379-0.213-2.436-0.637-3.168c-0.412-0.645-0.96-0.967-1.643-0.967c-0.734,0-1.287,0.322-1.661,0.967
			c-0.438,0.76-0.657,1.814-0.657,3.168v4.559c0,0.283-0.141,0.424-0.424,0.424c-0.284,0-0.426-0.141-0.426-0.424v-4.559
			c0-1.354-0.219-2.408-0.656-3.168c-0.412-0.645-0.96-0.967-1.643-0.967c-0.721,0-1.268,0.322-1.642,0.967
			c-0.438,0.721-0.657,1.775-0.657,3.168v4.559c0,0.283-0.147,0.424-0.443,0.424c-0.283,0-0.426-0.141-0.426-0.424v-4.559v-4.559
			c0-0.297,0.143-0.445,0.426-0.445c0.296,0,0.443,0.148,0.443,0.445v0.811c0.555-0.838,1.32-1.256,2.299-1.256
			c1.031,0,1.822,0.471,2.377,1.41c0.128,0.232,0.244,0.477,0.348,0.734c0.064-0.207,0.18-0.451,0.348-0.734
			c0.541-0.939,1.339-1.41,2.395-1.41c1.03,0,1.822,0.471,2.376,1.41c0.515,0.85,0.772,2.047,0.772,3.594v4.559
			c0,0.283-0.142,0.424-0.425,0.424c-0.296,0-0.444-0.141-0.444-0.424V173.621z"/>
		<path fill="#C99E63" stroke="#C99E63" stroke-width="0.5" stroke-miterlimit="10" d="M169.662,176.131
			c-0.335,0.824-0.806,1.443-1.41,1.855c-0.632,0.412-1.385,0.617-2.261,0.617c-1.287,0-2.292-0.443-3.013-1.332
			c-0.413-0.502-0.688-1.078-0.831-1.729c-0.142-0.65-0.213-1.291-0.213-1.922c0-1.572,0.349-2.789,1.044-3.652
			c0.721-0.9,1.726-1.352,3.013-1.352c1.301,0,2.313,0.451,3.033,1.352c0.695,0.889,1.043,2.105,1.043,3.652
			c0,0.283-0.148,0.424-0.444,0.424h-6.818c0.063,1.16,0.348,2.055,0.85,2.686c0.528,0.682,1.308,1.023,2.337,1.023
			c0.709,0,1.301-0.16,1.777-0.482s0.838-0.805,1.082-1.449c0.104-0.27,0.289-0.348,0.561-0.232
			C169.668,175.682,169.752,175.861,169.662,176.131z M163.654,170.49c-0.502,0.645-0.786,1.547-0.85,2.705h6.394
			c-0.077-1.158-0.361-2.061-0.85-2.705c-0.541-0.668-1.326-1.004-2.357-1.004C164.962,169.486,164.183,169.822,163.654,170.49z"/>
		<path fill="#C99E63" stroke="#C99E63" stroke-width="0.5" stroke-miterlimit="10" d="M98.878,206.604
			c-0.297,0-0.444-0.148-0.444-0.443V205c-0.026,0.064-0.084,0.148-0.174,0.252c-0.722,0.9-1.732,1.352-3.032,1.352
			c-1.289,0-2.293-0.451-3.014-1.352c-0.695-0.863-1.043-2.08-1.043-3.65c0-1.572,0.348-2.789,1.043-3.652
			c0.721-0.887,1.725-1.332,3.014-1.332c1.313,0,2.324,0.445,3.032,1.332c0.09,0.117,0.147,0.201,0.174,0.252v-10.895
			c0-0.283,0.147-0.426,0.444-0.426c0.283,0,0.425,0.143,0.425,0.426v14.295v4.559C99.303,206.455,99.161,206.604,98.878,206.604z
			 M97.583,204.711c0.566-0.721,0.851-1.758,0.851-3.109c0-1.365-0.284-2.402-0.851-3.111c-0.541-0.682-1.326-1.023-2.355-1.023
			c-1.018,0-1.797,0.342-2.338,1.023c-0.566,0.709-0.85,1.746-0.85,3.111c0,1.352,0.283,2.389,0.85,3.109
			c0.541,0.684,1.32,1.023,2.338,1.023C96.257,205.734,97.042,205.395,97.583,204.711z"/>
		<path fill="#C99E63" stroke="#C99E63" stroke-width="0.5" stroke-miterlimit="10" d="M108.942,204.131
			c-0.336,0.824-0.806,1.443-1.41,1.855c-0.632,0.412-1.385,0.617-2.261,0.617c-1.288,0-2.292-0.443-3.013-1.332
			c-0.413-0.502-0.689-1.078-0.831-1.729s-0.213-1.291-0.213-1.922c0-1.572,0.349-2.789,1.044-3.652
			c0.721-0.9,1.725-1.352,3.013-1.352c1.301,0,2.312,0.451,3.032,1.352c0.695,0.889,1.043,2.105,1.043,3.652
			c0,0.283-0.147,0.424-0.443,0.424h-6.818c0.063,1.16,0.348,2.055,0.85,2.686c0.527,0.682,1.307,1.023,2.337,1.023
			c0.708,0,1.301-0.16,1.777-0.482c0.476-0.322,0.837-0.805,1.081-1.449c0.104-0.27,0.29-0.348,0.561-0.232
			C108.948,203.682,109.032,203.861,108.942,204.131z M102.935,198.49c-0.502,0.645-0.786,1.547-0.85,2.705h6.393
			c-0.076-1.158-0.36-2.061-0.85-2.705c-0.541-0.668-1.326-1.004-2.356-1.004S103.462,197.822,102.935,198.49z"/>
		<path fill="#C99E63" stroke="#C99E63" stroke-width="0.5" stroke-miterlimit="10" d="M121.767,197.063v1.139
			c0.026-0.051,0.084-0.129,0.174-0.232c0.722-0.9,1.727-1.352,3.014-1.352c1.301,0,2.312,0.451,3.033,1.352
			c0.695,0.889,1.043,2.105,1.043,3.652c0,1.557-0.348,2.773-1.043,3.65c-0.709,0.889-1.719,1.332-3.033,1.332
			c-1.287,0-2.292-0.443-3.014-1.332c-0.09-0.117-0.147-0.199-0.174-0.252v10.141c0,0.283-0.147,0.426-0.443,0.426
			c-0.283,0-0.426-0.143-0.426-0.426v-13.539v-4.559c0-0.297,0.143-0.445,0.426-0.445
			C121.619,196.617,121.767,196.766,121.767,197.063z M124.954,197.486c-1.03,0-1.809,0.336-2.337,1.004
			c-0.567,0.734-0.851,1.777-0.851,3.131c0,1.365,0.283,2.4,0.851,3.109c0.528,0.682,1.307,1.023,2.337,1.023
			s1.816-0.342,2.357-1.023c0.566-0.709,0.85-1.744,0.85-3.109c0-1.354-0.283-2.396-0.85-3.131
			C126.771,197.822,125.984,197.486,124.954,197.486z"/>
		<path fill="#C99E63" stroke="#C99E63" stroke-width="0.5" stroke-miterlimit="10" d="M131.831,197.063v1.139
			c0.025-0.051,0.084-0.129,0.174-0.232c0.721-0.9,1.726-1.352,3.014-1.352c0.862,0,1.615,0.219,2.26,0.656
			c0.605,0.4,1.075,1.012,1.41,1.836c0.104,0.283,0.02,0.471-0.251,0.561s-0.458,0.006-0.56-0.252
			c-0.246-0.631-0.605-1.113-1.082-1.449c-0.477-0.32-1.069-0.482-1.777-0.482c-1.031,0-1.81,0.336-2.338,1.004
			c-0.566,0.734-0.85,1.777-0.85,3.131v4.559c0,0.283-0.148,0.424-0.444,0.424c-0.283,0-0.425-0.141-0.425-0.424v-4.559v-4.559
			c0-0.297,0.142-0.445,0.425-0.445C131.683,196.617,131.831,196.766,131.831,197.063z"/>
		<path fill="#C99E63" stroke="#C99E63" stroke-width="0.5" stroke-miterlimit="10" d="M141.817,197.969
			c0.721-0.9,1.726-1.352,3.014-1.352c1.301,0,2.311,0.451,3.033,1.352c0.695,0.889,1.043,2.105,1.043,3.652
			c0,1.557-0.348,2.773-1.043,3.65c-0.709,0.889-1.72,1.332-3.033,1.332c-1.288,0-2.293-0.443-3.014-1.332
			c-0.695-0.863-1.043-2.08-1.043-3.65C140.774,200.049,141.122,198.832,141.817,197.969z M144.831,197.486
			c-1.031,0-1.81,0.336-2.338,1.004c-0.566,0.734-0.85,1.777-0.85,3.131c0,1.365,0.283,2.4,0.85,3.109
			c0.528,0.682,1.307,1.023,2.338,1.023c1.029,0,1.815-0.342,2.356-1.023c0.566-0.709,0.851-1.744,0.851-3.109
			c0-1.354-0.284-2.396-0.851-3.131C146.646,197.822,145.86,197.486,144.831,197.486z"/>
		<path fill="#C99E63" stroke="#C99E63" stroke-width="0.5" stroke-miterlimit="10" d="M158.564,206.604
			c-0.296,0-0.444-0.148-0.444-0.443V205c-0.026,0.064-0.084,0.148-0.174,0.252c-0.722,0.9-1.732,1.352-3.033,1.352
			c-1.287,0-2.292-0.451-3.014-1.352c-0.695-0.863-1.043-2.08-1.043-3.65c0-1.572,0.348-2.789,1.043-3.652
			c0.722-0.887,1.727-1.332,3.014-1.332c1.314,0,2.324,0.445,3.033,1.332c0.09,0.117,0.147,0.201,0.174,0.252v-10.895
			c0-0.283,0.148-0.426,0.444-0.426c0.282,0,0.425,0.143,0.425,0.426v14.295v4.559C158.989,206.455,158.847,206.604,158.564,206.604
			z M157.271,204.711c0.566-0.721,0.85-1.758,0.85-3.109c0-1.365-0.283-2.402-0.85-3.111c-0.541-0.682-1.327-1.023-2.357-1.023
			c-1.018,0-1.796,0.342-2.337,1.023c-0.567,0.709-0.851,1.746-0.851,3.111c0,1.352,0.283,2.389,0.851,3.109
			c0.541,0.684,1.319,1.023,2.337,1.023C155.943,205.734,156.729,205.395,157.271,204.711z"/>
		<path fill="#C99E63" stroke="#C99E63" stroke-width="0.5" stroke-miterlimit="10" d="M161.79,201.621
			c0,1.365,0.283,2.4,0.85,3.109c0.528,0.682,1.307,1.023,2.338,1.023c1.029,0,1.815-0.342,2.356-1.023
			c0.566-0.709,0.851-1.744,0.851-3.109v-4.559c0-0.297,0.141-0.445,0.424-0.445c0.297,0,0.445,0.148,0.445,0.445v4.559v4.559
			c0,0.283-0.148,0.424-0.445,0.424c-0.283,0-0.424-0.141-0.424-0.424v-1.16c-0.027,0.053-0.084,0.135-0.174,0.252
			c-0.709,0.889-1.72,1.332-3.033,1.332c-1.288,0-2.293-0.443-3.014-1.332c-0.695-0.863-1.043-2.08-1.043-3.65v-4.559
			c0-0.297,0.142-0.445,0.425-0.445c0.296,0,0.444,0.148,0.444,0.445V201.621z"/>
		<path fill="#C99E63" stroke="#C99E63" stroke-width="0.5" stroke-miterlimit="10" d="M170.714,191.77
			c0-0.322,0.094-0.596,0.281-0.822c0.186-0.225,0.414-0.338,0.686-0.338c0.27,0,0.502,0.113,0.695,0.338
			c0.193,0.227,0.289,0.5,0.289,0.822s-0.096,0.592-0.289,0.811s-0.426,0.328-0.695,0.328c-0.271,0-0.5-0.109-0.686-0.328
			C170.808,192.361,170.714,192.092,170.714,191.77z M172.086,197.063v9.117c0,0.283-0.148,0.424-0.444,0.424
			c-0.283,0-0.425-0.141-0.425-0.424v-9.117c0-0.297,0.142-0.445,0.425-0.445C171.938,196.617,172.086,196.766,172.086,197.063z"/>
		<path fill="#C99E63" stroke="#C99E63" stroke-width="0.5" stroke-miterlimit="10" d="M172.954,194.59h1.546v-7.322
			c0-0.283,0.147-0.424,0.444-0.424c0.283,0,0.425,0.141,0.425,0.424v7.322h2.917c0.283,0,0.425,0.135,0.425,0.404
			c0,0.297-0.142,0.445-0.425,0.445h-2.917v7.494c0,0.939,0.2,1.654,0.599,2.145c0.335,0.451,0.856,0.676,1.564,0.676
			c0.477,0,0.876-0.109,1.197-0.328c0.297-0.205,0.541-0.535,0.734-0.984c0.09-0.258,0.277-0.336,0.561-0.232
			c0.258,0.104,0.334,0.283,0.232,0.541c-0.22,0.605-0.567,1.068-1.044,1.391c-0.489,0.309-1.05,0.463-1.681,0.463
			c-0.965,0-1.713-0.334-2.24-1.004c-0.528-0.645-0.792-1.533-0.792-2.666v-7.494h-1.546c-0.283,0-0.424-0.148-0.424-0.445
			C172.53,194.725,172.671,194.59,172.954,194.59z"/>
		<path fill="#C99E63" stroke="#C99E63" stroke-width="0.5" stroke-miterlimit="10" d="M182.94,204.229
			c0.283,0.502,0.677,0.875,1.179,1.119c0.489,0.271,1.107,0.406,1.854,0.406c0.875,0,1.623-0.154,2.24-0.463
			c0.516-0.283,0.805-0.625,0.869-1.023c0.129-0.723-0.167-1.254-0.889-1.594c-0.721-0.342-1.513-0.641-2.375-0.898
			c-0.979-0.297-1.852-0.639-2.617-1.023c-0.767-0.387-1.072-1.045-0.918-1.971c0.129-0.67,0.572-1.205,1.333-1.604
			c0.733-0.373,1.597-0.561,2.589-0.561c0.85,0,1.596,0.162,2.24,0.482c0.617,0.336,1.12,0.824,1.506,1.469
			c0.155,0.258,0.104,0.451-0.154,0.58c-0.258,0.141-0.451,0.09-0.579-0.154c-0.283-0.49-0.677-0.863-1.179-1.121
			s-1.113-0.387-1.834-0.387c-0.863,0-1.598,0.148-2.203,0.445c-0.515,0.295-0.805,0.623-0.869,0.984
			c-0.104,0.555,0.158,0.975,0.783,1.266c0.624,0.289,1.342,0.543,2.153,0.762c1.03,0.311,1.977,0.689,2.839,1.141
			c0.863,0.451,1.205,1.23,1.024,2.338c-0.129,0.695-0.573,1.236-1.333,1.621c-0.734,0.375-1.609,0.561-2.627,0.561
			c-0.863,0-1.616-0.16-2.26-0.482c-0.645-0.322-1.152-0.818-1.526-1.488c-0.116-0.256-0.052-0.449,0.193-0.578
			C182.625,203.926,182.812,203.984,182.94,204.229z"/>
	</g>
</g>
</svg>
