<?xml version="1.0" encoding="utf-8"?>
<!-- Generator: Adobe Illustrator 15.1.0, SVG Export Plug-In . SVG Version: 6.00 Build 0)  -->
<!DOCTYPE svg PUBLIC "-//W3C//DTD SVG 1.1//EN" "http://www.w3.org/Graphics/SVG/1.1/DTD/svg11.dtd">
<svg version="1.1" id="Calque_1" xmlns="http://www.w3.org/2000/svg" xmlns:xlink="http://www.w3.org/1999/xlink" x="0px" y="0px"
	 width="283.46px" height="283.46px" viewBox="0 0 283.46 283.46" enable-background="new 0 0 283.46 283.46" xml:space="preserve">
<g>
	<g>
		<g>
			<path fill-rule="evenodd" clip-rule="evenodd" fill="#B47C66" d="M152.737,152.33c-2.552-0.327-3.392-2.314-5.563-3.012
				c-3.947-0.08-11.241,0.125-15.354-0.48c-1.527,0.564-1.614,2.466-3.446,2.143c-1.705-0.302-1.992-2.413-0.913-4.159
				c-6.166-25.161-14.175-48.534-20.324-73.712c1.054-1.494,2.508-0.507,3.911-0.672c1.717-0.2,4.217-1.181,6.368-1.853
				c3.904-1.217,7.149-3.276,10.772-2.761c-0.033,4.496,1.171,10.708,3.189,14.68c0.787-4.519,0.705-13.584-0.454-18.051
				c1.988-1.347,5.066-0.544,7.567-0.615c2.872-0.083,5.885-0.164,8.786-0.353c2.86-0.186,5.977-1.346,8.287,0.127
				c-0.818,3.648-0.68,9.093,0.298,12.44c2.188-3.108,3.353-7.274,5.044-10.896c7.477,2.832,15.122,7.538,23.037,8.402
				c2.133,1.271-0.791,2.515-1.52,3.633c-1.494,2.295-2.248,5.934-3.555,9.211c-3.455,8.674-7.163,18.337-10.901,27.144
				c-3.858,9.085-7.027,17.987-10.904,27.145C155.374,144.681,153.553,148.316,152.737,152.33z M181.234,75.223
				c-6.065-2.524-12.092-5.087-18.42-7.355c-2.593,2.61-3.79,6.659-5.281,10.405c5.604,3.451,12.576,5.577,19.634,7.619
				C178.496,82.306,179.979,78.882,181.234,75.223z M176.398,88.316c-5.633-3.582-13.133-5.355-20.121-7.624
				c-1.7,3.611-3.676,6.941-4.805,11.143c5.762,3.618,12.813,5.985,20.115,8.112C173.605,96.498,174.711,92.107,176.398,88.316z
				 M170.814,102.619c-5.82-3.802-13.424-5.875-20.353-8.604c-1.994,4.381-3.977,8.776-5.812,13.324
				c6.407,3.073,13.121,7.125,20.599,8.362C167.555,111.805,168.981,107.001,170.814,102.619z M164.236,118.124
				c-6.846-2.728-12.435-6.676-20.85-7.879c-1.862,4.111-4.241,8.992-5.324,13.085c6.439,3.126,13.705,6.722,20.843,8.368
				C160.966,127.463,162.813,123.011,164.236,118.124z M157.887,134.607c-5.918-3.789-13.588-7.152-20.835-8.855
				c-2.668,4.43-4.343,9.886-6.568,14.775c7.139,2.765,13.659,6.13,21.083,8.615C153.764,144.389,156.318,140.007,157.887,134.607z
				 M154.094,79.927c-5.975-1.014-13.926,0.148-20.006,0.669c-0.378,3.186-0.811,8.456,0.318,10.979
				c5.408,0.764,10.481-0.9,15.625-1.224C151.202,86.687,153.408,84.089,154.094,79.927z M152.859,65.034
				c-5.691-0.24-12.924,0.031-18.544,0.689c-0.447,3.674-0.551,8.994-0.194,12.677c6.784-0.105,13.528-0.249,19.287-1.409
				C153.803,73.368,153.482,68.46,152.859,65.034z M148.529,93.011c-4.457-0.376-9.684,0.573-14.159,1
				c-0.153,3.31-0.005,8.301,0.303,11.953c2.711,0.786,5.475-0.442,8.536-0.112C145.289,102.047,147.608,97.187,148.529,93.011z
				 M134.88,108.407c-0.4,4.118-0.403,7.282-0.177,11.458c1.133,0.131,1.622,0.354,2.682,0.041
				c1.584-3.979,3.521-7.595,4.814-11.873C140.09,107.54,136.856,107.943,134.88,108.407z M134.816,144.252
				c-0.39,0.553-0.417,2.359-0.044,2.925c2.117-0.13,4.869,0.396,6.585-0.142C139.5,145.795,137.255,144.931,134.816,144.252z
				 M134.662,122.546c-0.407,0.9-0.239,2.395-0.3,3.652c1.157-0.705,1.4-2.354,1.768-3.875
				C135.388,122.137,135.236,122.561,134.662,122.546z M128.268,141.956c0.225,1.862,0.579,3.601,1.389,4.897
				c1.396,0.201,1.805-0.613,2.937-0.686C132.925,143.043,131.067,142.044,128.268,141.956z M132.679,108.861
				c-0.146-2.582-0.027-7.876-0.308-11.71c-5.342,1.673-11.492,2.514-15.449,5.614c0.706,3.878,1.928,7.257,3.003,10.776
				C124.725,112.545,129.399,111.422,132.679,108.861z M132.143,112.021c-3.824,1.178-7.759,2.24-11.274,3.729
				c0.674,3.509,1.923,6.46,2.773,9.797c3.458-0.398,6.189-1.543,8.822-2.791C132.229,119.422,133.839,114.431,132.143,112.021z
				 M132.175,125.678c-2.379-0.04-5.602,1.138-7.593,2.322c0.82,3.768,1.309,7.856,2.756,11.016
				C131.606,136.566,132.774,131.308,132.175,125.678z M132.168,94.465c-1.286-4.169-1.207-8.216-2.99-11.75
				c-5.34,2.004-11.834,2.819-15.945,6.096c1.038,3.477,1.751,7.267,2.761,10.771C122.155,98.669,127.46,96.876,132.168,94.465z
				 M121.122,83.322c1.707-0.589,7.807-2.205,7.374-3.788c-0.688-2.507-1.581-6.452-2.786-9.065
				c-2.629,0.188-5.319,0.988-8.32,1.822c-2.112,0.589-6.317,1.176-6.879,3.309c-0.788,2.988,1.841,6.724,2.041,10.031
				C115.107,85.403,118.037,84.384,121.122,83.322z"/>
			<path fill-rule="evenodd" clip-rule="evenodd" fill="#B47C66" d="M145.006,131.728c-0.003,0.243-0.006,0.488-0.01,0.73
				c-0.836,0.09-1.389-0.094-1.203-0.992C144.357,131.396,144.728,131.52,145.006,131.728z"/>
			<path fill-rule="evenodd" clip-rule="evenodd" fill="#B47C66" d="M142.336,130.955c-0.407-0.007-0.812-0.014-1.219-0.019
				c0.107-0.587-0.437-0.536-0.225-1.224C141.844,128.971,142.961,130.096,142.336,130.955z"/>
			<path fill-rule="evenodd" clip-rule="evenodd" fill="#B47C66" d="M140.503,139.218c-3.038,0.735-6.023-0.014-6.059-2.531
				C134.372,131.636,144.627,135.274,140.503,139.218z M137.382,136c-0.09,0.968,0.448,1.327,1.443,1.242
				C138.916,136.273,138.378,135.915,137.382,136z"/>
			<path fill-rule="evenodd" clip-rule="evenodd" fill="#B47C66" d="M139.178,130.174c-0.768,0.107-0.946-0.36-1.455-0.508
				c-0.024-0.601-0.019-1.176,0.268-1.46c0.406,0.007,0.812,0.014,1.218,0.019C139.612,128.993,139.719,129.521,139.178,130.174z"/>
		</g>
	</g>
	<circle fill="none" stroke="#B47C66" stroke-width="4" stroke-miterlimit="10" cx="142.176" cy="141.692" r="122"/>
	<g>
		<g>
			<path fill="#B47C66" d="M57.982,200.755l-1.284-1.844l-6.082,4.236c-0.191,0.133-0.354,0.103-0.489-0.091
				c-0.129-0.186-0.098-0.345,0.093-0.478l12.749-8.88c0.191-0.133,0.351-0.107,0.48,0.078c0.006,0.008,0.012,0.017,0.018,0.025
				l1.451,2.083c0.006,0.009,0.012,0.017,0.018,0.025c0.797,1.145,1.119,2.245,0.966,3.303c-0.179,1.075-0.816,1.993-1.91,2.756
				c-1.111,0.774-2.194,1.053-3.247,0.836C59.701,202.584,58.78,201.899,57.982,200.755z M63.08,194.467l-5.795,4.036l1.284,1.844
				c0.698,1.001,1.476,1.591,2.334,1.769s1.756-0.061,2.694-0.714s1.472-1.413,1.604-2.28c0.131-0.866-0.152-1.801-0.85-2.802
				c-0.012-0.017-0.014-0.028-0.005-0.034L63.08,194.467z"/>
			<path fill="#B47C66" d="M62.062,206.206l-0.721,0.598c0.045-0.011,0.124-0.017,0.235-0.015c0.937-0.031,1.732,0.349,2.388,1.139
				c0.438,0.529,0.683,1.105,0.734,1.73c0.055,0.58-0.093,1.189-0.443,1.826c-0.127,0.213-0.288,0.26-0.482,0.141
				c-0.195-0.119-0.237-0.277-0.126-0.476c0.274-0.481,0.396-0.955,0.366-1.423c-0.039-0.461-0.238-0.908-0.598-1.344
				c-0.524-0.631-1.132-0.934-1.824-0.906c-0.752,0.038-1.556,0.411-2.412,1.121l-2.883,2.391c-0.179,0.148-0.344,0.132-0.495-0.05
				c-0.144-0.174-0.126-0.335,0.053-0.483l2.883-2.391l2.883-2.391c0.188-0.156,0.353-0.146,0.497,0.027
				C62.268,205.883,62.249,206.051,62.062,206.206z"/>
			<path fill="#B47C66" d="M66.804,212.887c0.931-0.104,1.755,0.211,2.471,0.945c0.723,0.742,1.019,1.578,0.889,2.506
				c-0.137,0.906-0.66,1.803-1.569,2.688c-0.917,0.894-1.827,1.393-2.729,1.498c-0.917,0.104-1.74-0.218-2.47-0.968
				c-0.715-0.735-1.012-1.563-0.89-2.483c0.121-0.893,0.645-1.787,1.569-2.688C65,213.484,65.91,212.984,66.804,212.887z
				 M68.763,214.33c-0.573-0.588-1.203-0.84-1.89-0.758c-0.747,0.097-1.519,0.533-2.314,1.309c-0.804,0.781-1.257,1.537-1.359,2.267
				c-0.108,0.692,0.124,1.333,0.696,1.921s1.21,0.842,1.912,0.759c0.732-0.083,1.5-0.515,2.303-1.298
				c0.796-0.774,1.253-1.534,1.37-2.277C69.575,215.559,69.335,214.918,68.763,214.33z"/>
			<path fill="#B47C66" d="M79.792,215.223c0.132-0.354,0.173-0.677,0.123-0.969c-0.073-0.299-0.251-0.581-0.537-0.846
				c-0.406-0.378-0.836-0.525-1.291-0.442c-0.507,0.078-1.023,0.399-1.549,0.966l-2.269,2.441l1.837,1.707
				c0.165,0.153,0.172,0.313,0.021,0.475c-0.166,0.178-0.332,0.19-0.497,0.037l-1.837-1.708l-6.007,6.463
				c-0.158,0.171-0.316,0.183-0.475,0.036c-0.18-0.168-0.191-0.337-0.033-0.508l6.008-6.463l-0.767-0.713
				c-0.165-0.152-0.166-0.318,0-0.497c0.151-0.163,0.31-0.167,0.475-0.014l0.766,0.712l2.269-2.44
				c0.634-0.683,1.292-1.081,1.975-1.198c0.675-0.109,1.295,0.1,1.858,0.623c0.383,0.355,0.624,0.753,0.721,1.189
				c0.098,0.453,0.045,0.916-0.159,1.392c-0.083,0.24-0.236,0.315-0.459,0.224C79.745,215.598,79.687,215.441,79.792,215.223z"/>
			<path fill="#B47C66" d="M74.923,227.305c-0.64,0.347-1.253,0.494-1.84,0.443c-0.603-0.064-1.171-0.321-1.705-0.77
				c-0.786-0.66-1.163-1.455-1.133-2.383c0.014-0.527,0.15-1.032,0.407-1.514s0.553-0.921,0.887-1.317
				c0.831-0.988,1.686-1.575,2.566-1.761c0.916-0.197,1.767,0.033,2.552,0.693c0.793,0.668,1.171,1.469,1.134,2.406
				c-0.045,0.914-0.477,1.858-1.294,2.83c-0.15,0.178-0.315,0.191-0.496,0.039l-4.158-3.495c-0.574,0.762-0.875,1.47-0.901,2.124
				c-0.039,0.7,0.255,1.314,0.884,1.842c0.432,0.363,0.878,0.566,1.339,0.607c0.46,0.042,0.936-0.076,1.426-0.356
				c0.206-0.117,0.36-0.069,0.464,0.142C75.165,227.025,75.121,227.181,74.923,227.305z M74.242,220.678
				c-0.647,0.148-1.296,0.569-1.948,1.266l3.898,3.277c0.566-0.769,0.87-1.48,0.912-2.137c0.024-0.697-0.278-1.312-0.906-1.84
				C75.57,220.717,74.918,220.527,74.242,220.678z"/>
			<path fill="#B47C66" d="M77.418,229.318c-0.056,0.467,0.021,0.898,0.231,1.294c0.188,0.407,0.525,0.783,1.01,1.128
				c0.568,0.404,1.127,0.646,1.675,0.725c0.469,0.049,0.82-0.046,1.052-0.283c0.427-0.424,0.488-0.916,0.183-1.478
				c-0.306-0.562-0.677-1.128-1.114-1.698c-0.494-0.65-0.898-1.282-1.211-1.895c-0.313-0.613-0.199-1.193,0.343-1.743
				c0.402-0.389,0.946-0.541,1.629-0.457c0.654,0.089,1.303,0.362,1.947,0.82c0.551,0.393,0.959,0.846,1.224,1.358
				c0.242,0.51,0.334,1.069,0.278,1.679c-0.022,0.244-0.148,0.349-0.376,0.316c-0.235-0.024-0.335-0.147-0.302-0.371
				c0.049-0.458-0.028-0.89-0.231-1.294c-0.204-0.404-0.539-0.773-1.007-1.106c-0.56-0.398-1.107-0.639-1.641-0.72
				c-0.476-0.039-0.82,0.047-1.034,0.258c-0.331,0.322-0.362,0.726-0.095,1.208c0.267,0.482,0.612,0.985,1.034,1.506
				c0.521,0.683,0.955,1.374,1.3,2.075c0.345,0.699,0.195,1.379-0.449,2.037c-0.415,0.406-0.961,0.563-1.638,0.471
				c-0.654-0.09-1.312-0.369-1.972-0.84c-0.56-0.398-0.972-0.854-1.237-1.367c-0.265-0.512-0.359-1.079-0.282-1.699
				c0.047-0.227,0.181-0.326,0.401-0.299C77.357,228.97,77.451,229.095,77.418,229.318z"/>
			<path fill="#B47C66" d="M84.575,234.23c-0.018,0.47,0.094,0.894,0.335,1.271c0.221,0.391,0.587,0.737,1.099,1.042
				c0.599,0.356,1.175,0.553,1.729,0.587c0.471,0.01,0.813-0.113,1.025-0.369c0.391-0.456,0.412-0.951,0.062-1.486
				s-0.767-1.069-1.249-1.604c-0.545-0.607-0.999-1.204-1.361-1.789c-0.362-0.586-0.295-1.174,0.201-1.766
				c0.37-0.42,0.898-0.615,1.586-0.588c0.66,0.036,1.329,0.256,2.007,0.66c0.582,0.347,1.025,0.766,1.33,1.255
				c0.282,0.488,0.42,1.038,0.414,1.65c-0.003,0.245-0.119,0.36-0.35,0.347c-0.236-0.006-0.347-0.121-0.332-0.346
				c0.012-0.461-0.1-0.885-0.335-1.271s-0.6-0.727-1.093-1.021c-0.59-0.352-1.155-0.546-1.694-0.584
				c-0.477-0.001-0.813,0.113-1.009,0.341c-0.304,0.349-0.302,0.753,0.003,1.212s0.69,0.932,1.153,1.417
				c0.575,0.638,1.063,1.292,1.464,1.962s0.307,1.359-0.282,2.067c-0.38,0.438-0.912,0.64-1.595,0.603
				c-0.659-0.037-1.337-0.262-2.033-0.676c-0.591-0.353-1.039-0.773-1.344-1.264c-0.306-0.489-0.445-1.047-0.419-1.672
				c0.029-0.229,0.154-0.339,0.376-0.33C84.486,233.889,84.589,234.006,84.575,234.23z"/>
			<path fill="#B47C66" d="M94.809,233.281l-3.48,6.633c-0.108,0.206-0.267,0.254-0.476,0.145c-0.2-0.105-0.246-0.26-0.138-0.467
				l3.48-6.633c0.113-0.215,0.27-0.271,0.47-0.166C94.874,232.902,94.922,233.065,94.809,233.281z M95.862,228.923
				c0.123-0.234,0.293-0.399,0.511-0.493c0.218-0.096,0.422-0.093,0.613,0.008c0.191,0.1,0.311,0.268,0.362,0.503
				c0.05,0.235,0.014,0.47-0.109,0.704c-0.123,0.234-0.294,0.396-0.514,0.483c-0.22,0.088-0.425,0.081-0.616-0.019
				s-0.311-0.264-0.358-0.492C95.701,229.389,95.739,229.157,95.862,228.923z"/>
			<path fill="#B47C66" d="M96.854,235.178c0.831-0.434,1.712-0.438,2.645-0.011c0.942,0.432,1.52,1.104,1.734,2.017
				c0.2,0.894,0.035,1.918-0.493,3.072c-0.533,1.164-1.201,1.958-2.004,2.381c-0.817,0.43-1.701,0.426-2.653-0.01
				c-0.933-0.427-1.508-1.092-1.727-1.994c-0.208-0.875-0.044-1.9,0.493-3.074S96.055,235.592,96.854,235.178z M99.201,235.816
				c-0.746-0.342-1.425-0.35-2.037-0.025c-0.662,0.361-1.223,1.047-1.686,2.057c-0.467,1.02-0.617,1.888-0.448,2.604
				c0.149,0.685,0.596,1.198,1.343,1.54c0.746,0.342,1.432,0.348,2.057,0.018c0.652-0.342,1.212-1.021,1.679-2.042
				c0.462-1.011,0.614-1.884,0.455-2.62C100.402,236.669,99.947,236.158,99.201,235.816z"/>
			<path fill="#B47C66" d="M108.027,242.986c0.379-1.045,0.459-1.928,0.24-2.648c-0.218-0.664-0.712-1.136-1.483-1.416
				c-0.772-0.279-1.449-0.232-2.032,0.142c-0.63,0.413-1.134,1.142-1.513,2.187l-1.277,3.521c-0.08,0.219-0.23,0.288-0.452,0.208
				c-0.212-0.078-0.278-0.226-0.199-0.444l1.277-3.521l1.277-3.521c0.083-0.229,0.23-0.305,0.442-0.228
				c0.222,0.081,0.292,0.235,0.208,0.464l-0.319,0.881c0.034-0.033,0.099-0.077,0.195-0.133c0.792-0.5,1.671-0.576,2.635-0.226
				c0.974,0.353,1.605,0.976,1.893,1.868c0.272,0.875,0.191,1.909-0.241,3.104l-1.277,3.521c-0.079,0.219-0.23,0.288-0.452,0.208
				c-0.212-0.078-0.278-0.226-0.199-0.444L108.027,242.986z"/>
			<path fill="#B47C66" d="M116.165,245.348c0.292-1.071,0.3-1.957,0.023-2.658c-0.271-0.645-0.802-1.074-1.594-1.29
				s-1.463-0.114-2.013,0.306c-0.594,0.464-1.038,1.23-1.33,2.303l-0.986,3.613c-0.061,0.225-0.206,0.307-0.433,0.244
				c-0.218-0.06-0.296-0.201-0.235-0.426l0.985-3.613l0.985-3.613c0.064-0.235,0.205-0.323,0.423-0.264
				c0.228,0.063,0.31,0.211,0.246,0.445l-0.247,0.903c0.031-0.035,0.092-0.085,0.184-0.147c0.749-0.563,1.619-0.71,2.608-0.439
				c1,0.271,1.679,0.842,2.039,1.707c0.342,0.85,0.347,1.887,0.013,3.112l-0.985,3.613c-0.062,0.225-0.206,0.306-0.434,0.243
				c-0.218-0.059-0.296-0.201-0.234-0.426L116.165,245.348z"/>
			<path fill="#B47C66" d="M124.431,249.132c-0.387,0.616-0.848,1.047-1.384,1.291c-0.557,0.24-1.178,0.296-1.863,0.169
				c-1.008-0.189-1.728-0.695-2.158-1.518c-0.247-0.467-0.377-0.973-0.39-1.519c-0.013-0.546,0.028-1.073,0.124-1.583
				c0.237-1.27,0.693-2.201,1.368-2.796c0.701-0.622,1.555-0.839,2.564-0.651c1.018,0.191,1.742,0.703,2.17,1.537
				c0.411,0.818,0.499,1.853,0.266,3.101c-0.042,0.229-0.18,0.321-0.412,0.278l-5.34-0.998c-0.125,0.945-0.038,1.709,0.26,2.293
				c0.311,0.628,0.869,1.018,1.676,1.168c0.554,0.104,1.042,0.061,1.464-0.129c0.422-0.19,0.777-0.527,1.066-1.012
				c0.122-0.203,0.279-0.238,0.474-0.105C124.503,248.769,124.542,248.926,124.431,249.132z M120.578,243.697
				c-0.491,0.446-0.849,1.133-1.074,2.06l5.007,0.936c0.114-0.947,0.028-1.716-0.257-2.308c-0.323-0.621-0.887-1.006-1.694-1.156
				C121.752,243.077,121.092,243.233,120.578,243.697z"/>
			<path fill="#B47C66" d="M129.182,235.781l-2.063,15.398c-0.031,0.231-0.163,0.331-0.397,0.3c-0.224-0.03-0.32-0.161-0.289-0.392
				l2.063-15.398c0.031-0.23,0.158-0.332,0.382-0.302C129.111,235.419,129.212,235.551,129.182,235.781z"/>
			<path fill="#B47C66" d="M129.994,249.935c0.191,0.43,0.479,0.761,0.861,0.993c0.371,0.254,0.852,0.404,1.445,0.453
				c0.695,0.057,1.299-0.021,1.81-0.235c0.428-0.198,0.681-0.46,0.758-0.782c0.15-0.582-0.049-1.036-0.599-1.362
				s-1.159-0.622-1.827-0.89c-0.757-0.305-1.427-0.641-2.01-1.008c-0.583-0.365-0.782-0.923-0.597-1.672
				c0.146-0.54,0.535-0.949,1.165-1.227c0.608-0.259,1.305-0.355,2.093-0.291c0.675,0.055,1.257,0.234,1.747,0.539
				c0.468,0.314,0.834,0.748,1.098,1.301c0.105,0.221,0.052,0.375-0.161,0.464c-0.214,0.1-0.364,0.045-0.45-0.164
				c-0.192-0.419-0.479-0.75-0.861-0.993c-0.382-0.244-0.859-0.389-1.432-0.436c-0.685-0.056-1.278,0.018-1.778,0.222
				c-0.429,0.21-0.681,0.46-0.756,0.751c-0.119,0.446,0.06,0.809,0.537,1.086s1.03,0.533,1.659,0.764
				c0.797,0.32,1.523,0.693,2.179,1.117c0.655,0.426,0.874,1.086,0.657,1.98c-0.148,0.561-0.538,0.975-1.167,1.242
				c-0.607,0.259-1.315,0.355-2.123,0.289c-0.685-0.056-1.272-0.236-1.762-0.541c-0.49-0.306-0.861-0.744-1.113-1.317
				c-0.075-0.218-0.011-0.372,0.192-0.462C129.764,249.666,129.908,249.727,129.994,249.935z"/>
			<path fill="#B47C66" d="M151.486,249.785l-1.023,1.057c-0.486,0.465-0.966,0.766-1.438,0.9s-0.895,0.138-1.266,0.01
				c-0.327-0.09-0.601-0.266-0.823-0.529c-0.223-0.262-0.379-0.595-0.469-0.996c-0.091-0.4-0.06-0.863,0.093-1.385
				c0.151-0.522,0.468-1.053,0.948-1.592c0.857-0.826,1.305-1.261,1.343-1.307c-0.675-0.932-0.958-1.857-0.849-2.779
				c0.107-0.922,0.652-1.4,1.633-1.435s1.502,0.417,1.564,1.351c0.063,0.936-0.148,1.658-0.631,2.171s-0.746,0.798-0.793,0.854
				l1.773,2.576c0.752-0.859,1.162-1.324,1.228-1.393c0.171-0.184,0.324-0.187,0.463-0.007c0.169,0.177,0.173,0.352,0.013,0.524
				c-0.048,0.047-0.48,0.533-1.299,1.462l0.726,0.927c0.229,0.278,0.376,0.431,0.439,0.457s0.145-0.03,0.241-0.172
				c0.096-0.141,0.238-0.441,0.426-0.902c0.085-0.22,0.234-0.279,0.449-0.182c0.204,0.111,0.264,0.271,0.178,0.479
				c-0.289,0.725-0.558,1.177-0.805,1.356c-0.248,0.18-0.501,0.207-0.758,0.08c-0.172-0.071-0.395-0.281-0.67-0.63L151.486,249.785z
				 M151.067,249.199c-0.07-0.101-0.679-0.984-1.827-2.651l-1.256,1.235c-0.388,0.414-0.645,0.826-0.77,1.234
				s-0.161,0.754-0.107,1.036c0.055,0.282,0.15,0.505,0.288,0.669s0.316,0.279,0.538,0.346c0.645,0.201,1.339-0.059,2.082-0.779
				L151.067,249.199z M149.384,245.484c0.028-0.023,0.259-0.257,0.69-0.701c0.432-0.445,0.604-0.959,0.52-1.541
				c-0.084-0.582-0.425-0.843-1.021-0.783c-0.598,0.061-0.92,0.385-0.969,0.973C148.554,244.02,148.814,244.705,149.384,245.484z"/>
			<path fill="#B47C66" d="M166.076,241.629l-2.174,0.566l1.865,7.172c0.059,0.226-0.025,0.368-0.254,0.428
				c-0.219,0.057-0.357-0.027-0.416-0.253l-3.912-15.036c-0.059-0.225,0.021-0.366,0.24-0.424c0.01-0.002,0.02-0.004,0.029-0.008
				l2.457-0.639c0.01-0.002,0.02-0.006,0.03-0.008c1.351-0.352,2.494-0.271,3.433,0.238c0.946,0.541,1.588,1.457,1.924,2.746
				c0.34,1.311,0.227,2.424-0.341,3.336C168.387,240.65,167.426,241.278,166.076,241.629z M161.943,234.67l1.779,6.834l2.174-0.566
				c1.182-0.307,2.004-0.832,2.468-1.576s0.552-1.668,0.264-2.774s-0.815-1.87-1.583-2.294s-1.741-0.481-2.923-0.174
				c-0.021,0.005-0.031,0.002-0.034-0.008L161.943,234.67z"/>
			<path fill="#B47C66" d="M178.053,237.762l1.252,3.531l1.25,3.529c0.078,0.22,0.006,0.369-0.217,0.447
				c-0.213,0.076-0.357,0.004-0.436-0.216l-0.318-0.897c-0.005,0.047-0.025,0.127-0.061,0.24c-0.289,0.877-0.926,1.49-1.912,1.84
				c-0.967,0.343-1.844,0.266-2.629-0.23c-0.758-0.482-1.354-1.332-1.785-2.549c-0.431-1.217-0.504-2.252-0.219-3.105
				c0.295-0.89,0.926-1.506,1.893-1.85c0.977-0.346,1.859-0.266,2.648,0.24c0.096,0.057,0.16,0.102,0.193,0.134l-0.313-0.882
				c-0.081-0.23-0.016-0.383,0.197-0.458C177.82,237.457,177.972,237.533,178.053,237.762z M177.154,239.326
				c-0.59-0.374-1.271-0.424-2.045-0.15c-0.773,0.274-1.267,0.74-1.479,1.4c-0.224,0.719-0.15,1.602,0.221,2.648
				c0.374,1.058,0.872,1.785,1.491,2.183c0.584,0.388,1.263,0.445,2.037,0.171c0.773-0.273,1.27-0.747,1.488-1.42
				c0.23-0.699,0.158-1.577-0.216-2.635C178.28,240.477,177.781,239.744,177.154,239.326z"/>
			<path fill="#B47C66" d="M180.256,236.846l0.383,0.854c0.001-0.047,0.018-0.124,0.049-0.23c0.221-0.911,0.8-1.576,1.736-1.995
				c0.627-0.281,1.248-0.362,1.863-0.244c0.574,0.103,1.121,0.408,1.642,0.917c0.17,0.179,0.172,0.347,0.006,0.501
				c-0.167,0.156-0.331,0.154-0.491-0.006c-0.391-0.393-0.814-0.637-1.273-0.733c-0.455-0.086-0.939-0.014-1.455,0.217
				c-0.748,0.335-1.202,0.841-1.361,1.515c-0.166,0.734-0.021,1.609,0.434,2.623l1.531,3.418c0.095,0.213,0.035,0.367-0.181,0.463
				c-0.206,0.093-0.356,0.032-0.452-0.18l-1.531-3.418l-1.531-3.418c-0.1-0.223-0.046-0.379,0.16-0.472
				C179.998,236.561,180.156,236.623,180.256,236.846z"/>
			<path fill="#B47C66" d="M184.943,232.51l1.084-0.581l-2.841-5.302c-0.11-0.205-0.062-0.363,0.147-0.475
				c0.199-0.106,0.354-0.057,0.463,0.148l2.842,5.301l2.047-1.098c0.199-0.106,0.352-0.062,0.457,0.135
				c0.114,0.214,0.072,0.375-0.127,0.48l-2.048,1.098l2.909,5.428c0.364,0.682,0.781,1.123,1.252,1.328
				c0.41,0.2,0.863,0.167,1.361-0.1c0.334-0.18,0.572-0.408,0.713-0.688c0.129-0.261,0.173-0.591,0.133-0.989
				c-0.036-0.221,0.064-0.348,0.305-0.379c0.221-0.022,0.344,0.079,0.372,0.305c0.081,0.521,0.017,0.986-0.192,1.399
				c-0.225,0.407-0.558,0.73-1,0.968c-0.679,0.363-1.333,0.402-1.963,0.115c-0.621-0.267-1.151-0.811-1.592-1.632l-2.908-5.427
				l-1.085,0.581c-0.198,0.106-0.356,0.053-0.471-0.162C184.697,232.768,184.744,232.617,184.943,232.51z"/>
			<path fill="#B47C66" d="M189.874,227.169c-0.135-0.228-0.187-0.458-0.152-0.693c0.033-0.235,0.143-0.408,0.327-0.519
				c0.186-0.109,0.392-0.124,0.619-0.044c0.227,0.081,0.407,0.235,0.543,0.462c0.135,0.228,0.182,0.458,0.142,0.691
				c-0.04,0.232-0.153,0.404-0.339,0.515s-0.387,0.126-0.607,0.048C190.188,227.55,190.01,227.396,189.874,227.169z M193.035,230.35
				l3.826,6.439c0.119,0.199,0.077,0.36-0.125,0.48c-0.194,0.115-0.352,0.072-0.47-0.127l-3.827-6.439
				c-0.124-0.209-0.09-0.371,0.105-0.486C192.747,230.096,192.91,230.141,193.035,230.35z"/>
			<path fill="#B47C66" d="M202.978,230.84c0.154,0.712,0.125,1.342-0.088,1.891c-0.229,0.562-0.635,1.035-1.215,1.423
				c-0.853,0.569-1.722,0.711-2.604,0.423c-0.854-0.281-1.641-0.959-2.357-2.033c-0.717-1.072-1.041-2.059-0.975-2.955
				c0.066-0.936,0.525-1.688,1.379-2.258c0.572-0.381,1.171-0.564,1.797-0.551c0.584,0.005,1.174,0.215,1.771,0.63
				c0.197,0.147,0.228,0.313,0.09,0.493c-0.139,0.182-0.301,0.207-0.486,0.076c-0.449-0.322-0.909-0.492-1.377-0.51
				c-0.463-0.01-0.93,0.143-1.398,0.455c-0.682,0.457-1.045,1.03-1.09,1.721c-0.04,0.753,0.248,1.591,0.865,2.515
				c0.623,0.933,1.283,1.516,1.982,1.749c0.661,0.232,1.333,0.121,2.016-0.336c0.469-0.313,0.788-0.686,0.957-1.115
				c0.168-0.432,0.188-0.92,0.055-1.469c-0.055-0.23,0.033-0.365,0.266-0.406C202.776,230.529,202.914,230.615,202.978,230.84z"/>
			<path fill="#B47C66" d="M204.08,227.467c0.695,0.88,1.4,1.408,2.115,1.586c0.678,0.18,1.338,0.014,1.982-0.494
				c0.645-0.509,0.961-1.117,0.952-1.824c-0.007-0.736-0.357-1.545-1.052-2.425l-2.322-2.938c-0.15-0.191-0.138-0.357,0.039-0.497
				c0.186-0.146,0.354-0.124,0.504,0.067l2.322,2.939l2.321,2.939c0.144,0.182,0.124,0.347-0.062,0.492
				c-0.178,0.141-0.338,0.119-0.482-0.063l-0.59-0.747c0.01,0.046,0.017,0.129,0.02,0.248c0.01,0.922-0.396,1.707-1.218,2.355
				c-0.805,0.637-1.659,0.846-2.563,0.629c-0.874-0.213-1.711-0.825-2.511-1.838l-2.322-2.939c-0.15-0.191-0.137-0.356,0.04-0.496
				c0.185-0.146,0.353-0.125,0.504,0.066L204.08,227.467z"/>
			<path fill="#B47C66" d="M202.714,213.34l10.243,11.683c0.152,0.175,0.141,0.341-0.036,0.496c-0.17,0.149-0.331,0.136-0.485-0.04
				l-10.242-11.682c-0.153-0.176-0.146-0.338,0.024-0.486C202.395,213.155,202.561,213.165,202.714,213.34z"/>
			<path fill="#B47C66" d="M206.102,215.273c-0.179-0.194-0.276-0.41-0.293-0.646c-0.016-0.237,0.056-0.43,0.215-0.575
				c0.158-0.146,0.356-0.202,0.596-0.171c0.238,0.032,0.447,0.146,0.626,0.34c0.179,0.195,0.273,0.41,0.282,0.646
				c0.008,0.236-0.066,0.428-0.225,0.574c-0.159,0.146-0.354,0.203-0.585,0.172C206.486,215.581,206.281,215.469,206.102,215.273z
				 M209.852,217.732l5.074,5.51c0.157,0.172,0.149,0.337-0.023,0.497c-0.166,0.153-0.328,0.144-0.486-0.028l-5.074-5.51
				c-0.164-0.179-0.164-0.345,0.002-0.498C209.518,217.543,209.687,217.553,209.852,217.732z"/>
			<path fill="#B47C66" d="M219.658,216.184c0.298,0.664,0.4,1.286,0.305,1.867c-0.108,0.597-0.406,1.145-0.895,1.643
				c-0.717,0.734-1.537,1.053-2.46,0.953c-0.524-0.053-1.018-0.227-1.479-0.519c-0.462-0.292-0.877-0.62-1.248-0.982
				c-0.924-0.901-1.445-1.798-1.565-2.69c-0.129-0.928,0.165-1.76,0.882-2.493c0.724-0.741,1.552-1.059,2.483-0.952
				c0.908,0.113,1.818,0.613,2.727,1.5c0.166,0.163,0.167,0.329,0.002,0.498l-3.795,3.887c0.717,0.628,1.4,0.98,2.051,1.057
				c0.695,0.091,1.33-0.158,1.903-0.745c0.394-0.403,0.63-0.833,0.705-1.29c0.076-0.456-0.007-0.939-0.249-1.448
				c-0.102-0.214-0.043-0.364,0.176-0.452C219.396,215.921,219.549,215.977,219.658,216.184z M212.999,216.369
				c0.099,0.656,0.472,1.336,1.116,2.037l3.559-3.645c-0.725-0.621-1.412-0.977-2.063-1.067c-0.694-0.076-1.328,0.179-1.902,0.767
				C213.136,215.049,212.899,215.685,212.999,216.369z"/>
			<path fill="#B47C66" d="M217.302,210.102l0.72,0.599c-0.02-0.042-0.039-0.118-0.058-0.228c-0.202-0.916,0.025-1.768,0.682-2.557
				c0.439-0.528,0.962-0.874,1.566-1.039c0.561-0.16,1.187-0.127,1.878,0.102c0.23,0.086,0.307,0.235,0.225,0.447
				c-0.08,0.214-0.229,0.284-0.443,0.212c-0.523-0.182-1.012-0.215-1.467-0.099c-0.445,0.122-0.85,0.4-1.21,0.834
				c-0.524,0.631-0.71,1.284-0.557,1.959c0.175,0.732,0.688,1.455,1.543,2.165l2.879,2.396c0.179,0.148,0.192,0.314,0.042,0.496
				c-0.145,0.174-0.307,0.186-0.484,0.037l-2.879-2.396l-2.879-2.396c-0.188-0.155-0.209-0.32-0.064-0.494
				C216.945,209.959,217.115,209.945,217.302,210.102z"/>
			<path fill="#B47C66" d="M227.133,207.275c0.468,0.053,0.898-0.025,1.294-0.236c0.406-0.191,0.78-0.529,1.124-1.016
				c0.402-0.57,0.641-1.129,0.718-1.678c0.046-0.47-0.05-0.82-0.288-1.051c-0.426-0.426-0.918-0.484-1.479-0.177
				c-0.56,0.308-1.125,0.682-1.693,1.121c-0.648,0.497-1.278,0.903-1.89,1.22c-0.611,0.314-1.192,0.203-1.744-0.336
				c-0.39-0.401-0.545-0.943-0.464-1.627c0.086-0.655,0.357-1.305,0.813-1.951c0.391-0.553,0.842-0.963,1.354-1.229
				c0.508-0.243,1.067-0.339,1.678-0.286c0.243,0.021,0.35,0.146,0.317,0.375c-0.022,0.236-0.146,0.337-0.37,0.305
				c-0.459-0.047-0.889,0.031-1.293,0.236c-0.403,0.205-0.771,0.542-1.102,1.012c-0.396,0.562-0.635,1.109-0.714,1.644
				c-0.038,0.476,0.05,0.819,0.263,1.032c0.324,0.33,0.727,0.359,1.209,0.09c0.48-0.269,0.981-0.615,1.5-1.04
				c0.682-0.524,1.371-0.96,2.07-1.309c0.698-0.349,1.378-0.201,2.039,0.44c0.407,0.414,0.566,0.959,0.477,1.637
				c-0.086,0.654-0.363,1.313-0.83,1.975c-0.396,0.563-0.851,0.977-1.361,1.242c-0.513,0.268-1.079,0.363-1.7,0.289
				c-0.226-0.047-0.326-0.18-0.3-0.4C226.785,207.337,226.91,207.243,227.133,207.275z"/>
		</g>
	</g>
	<g>
		<path fill="#B47C66" stroke="#B47C66" stroke-width="0.5" stroke-miterlimit="10" d="M113.268,158.843
			c1.957,0,3.451,0.882,4.481,2.646c0.541,0.915,0.93,1.993,1.168,3.235c0.238,1.243,0.357,2.572,0.357,3.989
			c0,1.442-0.119,2.788-0.357,4.037s-0.628,2.317-1.168,3.206c-1.031,1.765-2.524,2.646-4.481,2.646h-3.632
			c-0.283,0-0.425-0.142-0.425-0.425v-18.911c0-0.283,0.142-0.425,0.425-0.425H113.268z M113.268,177.754
			c1.623,0,2.872-0.747,3.747-2.24c0.489-0.824,0.843-1.819,1.063-2.984c0.219-1.166,0.329-2.438,0.329-3.815
			c0-1.339-0.11-2.599-0.329-3.776c-0.219-1.179-0.573-2.186-1.063-3.023c-0.875-1.468-2.125-2.202-3.747-2.202h-3.188v18.042
			H113.268z"/>
		<path fill="#B47C66" stroke="#B47C66" stroke-width="0.5" stroke-miterlimit="10" d="M128.914,176.131
			c-0.335,0.824-0.805,1.443-1.41,1.854c-0.631,0.412-1.385,0.618-2.26,0.618c-1.288,0-2.292-0.444-3.013-1.332
			c-0.413-0.503-0.689-1.079-0.831-1.729c-0.142-0.649-0.213-1.291-0.213-1.922c0-1.571,0.348-2.788,1.043-3.651
			c0.721-0.9,1.726-1.352,3.013-1.352c1.301,0,2.312,0.451,3.033,1.352c0.695,0.889,1.043,2.105,1.043,3.651
			c0,0.283-0.148,0.425-0.444,0.425h-6.818c0.064,1.159,0.348,2.055,0.85,2.686c0.528,0.682,1.307,1.023,2.337,1.023
			c0.708,0,1.301-0.161,1.777-0.482c0.476-0.322,0.837-0.805,1.082-1.449c0.103-0.271,0.29-0.348,0.56-0.232
			C128.92,175.681,129.004,175.861,128.914,176.131z M122.906,170.49c-0.502,0.645-0.786,1.546-0.85,2.705h6.394
			c-0.077-1.159-0.361-2.061-0.85-2.705c-0.541-0.669-1.326-1.004-2.356-1.004S123.434,169.821,122.906,170.49z"/>
		<path fill="#B47C66" stroke="#B47C66" stroke-width="0.5" stroke-miterlimit="10" d="M132.178,176.228
			c0.283,0.503,0.676,0.876,1.178,1.12c0.489,0.271,1.107,0.406,1.854,0.406c0.875,0,1.623-0.154,2.241-0.464
			c0.515-0.283,0.805-0.624,0.869-1.023c0.128-0.722-0.167-1.253-0.889-1.594s-1.513-0.641-2.376-0.898
			c-0.979-0.296-1.851-0.638-2.617-1.023c-0.766-0.387-1.072-1.044-0.917-1.971c0.128-0.669,0.573-1.204,1.333-1.603
			c0.734-0.374,1.596-0.561,2.588-0.561c0.85,0,1.596,0.161,2.241,0.482c0.618,0.336,1.12,0.824,1.506,1.469
			c0.155,0.258,0.103,0.451-0.154,0.579c-0.258,0.142-0.451,0.091-0.58-0.154c-0.283-0.489-0.676-0.862-1.178-1.12
			c-0.502-0.258-1.114-0.387-1.835-0.387c-0.863,0-1.597,0.148-2.202,0.444c-0.515,0.296-0.805,0.624-0.87,0.985
			c-0.103,0.554,0.158,0.975,0.783,1.266c0.625,0.289,1.342,0.543,2.154,0.762c1.03,0.31,1.977,0.689,2.839,1.141
			s1.204,1.229,1.024,2.337c-0.129,0.695-0.573,1.236-1.333,1.622c-0.734,0.374-1.61,0.561-2.627,0.561
			c-0.863,0-1.616-0.161-2.26-0.482c-0.644-0.322-1.152-0.818-1.526-1.488c-0.116-0.257-0.052-0.45,0.193-0.579
			C131.862,175.926,132.049,175.983,132.178,176.228z"/>
		<path fill="#B47C66" stroke="#B47C66" stroke-width="0.5" stroke-miterlimit="10" d="M141.102,163.769
			c0-0.321,0.093-0.595,0.28-0.821c0.187-0.225,0.415-0.338,0.686-0.338s0.502,0.113,0.695,0.338c0.193,0.227,0.29,0.5,0.29,0.821
			c0,0.322-0.096,0.593-0.29,0.812c-0.193,0.219-0.425,0.328-0.695,0.328s-0.499-0.109-0.686-0.328
			C141.195,164.361,141.102,164.091,141.102,163.769z M142.474,169.062v9.117c0,0.283-0.148,0.425-0.444,0.425
			c-0.283,0-0.425-0.142-0.425-0.425v-9.117c0-0.296,0.142-0.444,0.425-0.444C142.325,168.617,142.474,168.766,142.474,169.062z"/>
		<path fill="#B47C66" stroke="#B47C66" stroke-width="0.5" stroke-miterlimit="10" d="M145.873,184.805
			c0.231,0.631,0.592,1.107,1.082,1.43c0.463,0.321,1.049,0.482,1.758,0.482c1.029,0,1.814-0.336,2.355-1.005
			c0.566-0.722,0.851-1.765,0.851-3.129v-5.563c-0.026,0.052-0.084,0.135-0.174,0.252c-0.708,0.888-1.72,1.332-3.032,1.332
			c-1.289,0-2.293-0.444-3.014-1.332c-0.695-0.863-1.043-2.08-1.043-3.651s0.348-2.788,1.043-3.651
			c0.721-0.9,1.725-1.352,3.014-1.352c1.3,0,2.311,0.451,3.032,1.352c0.09,0.104,0.147,0.182,0.174,0.232v-1.14
			c0-0.296,0.142-0.444,0.425-0.444c0.296,0,0.444,0.148,0.444,0.444v4.559v8.963c0,1.558-0.348,2.774-1.043,3.651
			c-0.722,0.9-1.732,1.352-3.032,1.352c-0.863,0-1.61-0.213-2.241-0.638c-0.618-0.412-1.089-1.023-1.41-1.835
			c-0.116-0.283-0.032-0.471,0.251-0.561C145.57,184.449,145.757,184.533,145.873,184.805z M151.068,170.49
			c-0.541-0.669-1.326-1.004-2.355-1.004c-1.031,0-1.811,0.335-2.338,1.004c-0.566,0.734-0.85,1.777-0.85,3.13
			c0,1.365,0.283,2.401,0.85,3.11c0.527,0.682,1.307,1.023,2.338,1.023c1.029,0,1.814-0.342,2.355-1.023
			c0.566-0.709,0.851-1.745,0.851-3.11C151.919,172.268,151.635,171.225,151.068,170.49z"/>
		<path fill="#B47C66" stroke="#B47C66" stroke-width="0.5" stroke-miterlimit="10" d="M161.982,173.62
			c0-1.353-0.283-2.396-0.85-3.13c-0.541-0.669-1.326-1.004-2.356-1.004s-1.81,0.335-2.337,1.004
			c-0.567,0.734-0.851,1.777-0.851,3.13v4.559c0,0.283-0.147,0.425-0.444,0.425c-0.283,0-0.425-0.142-0.425-0.425v-4.559v-4.559
			c0-0.296,0.142-0.444,0.425-0.444c0.297,0,0.444,0.148,0.444,0.444v1.14c0.026-0.051,0.083-0.129,0.174-0.232
			c0.722-0.9,1.726-1.352,3.014-1.352c1.3,0,2.312,0.451,3.032,1.352c0.695,0.889,1.043,2.105,1.043,3.651v4.559
			c0,0.283-0.148,0.425-0.443,0.425c-0.283,0-0.426-0.142-0.426-0.425V173.62z"/>
		<path fill="#B47C66" stroke="#B47C66" stroke-width="0.5" stroke-miterlimit="10" d="M104.055,206.604
			c-0.296,0-0.444-0.148-0.444-0.444V205c-0.026,0.064-0.084,0.148-0.174,0.252c-0.722,0.9-1.732,1.352-3.033,1.352
			c-1.288,0-2.292-0.451-3.014-1.352c-0.695-0.863-1.043-2.08-1.043-3.651s0.348-2.788,1.043-3.651
			c0.721-0.888,1.726-1.332,3.014-1.332c1.313,0,2.324,0.444,3.033,1.332c0.09,0.117,0.147,0.201,0.174,0.252v-10.895
			c0-0.283,0.148-0.426,0.444-0.426c0.283,0,0.425,0.143,0.425,0.426v14.294v4.559C104.479,206.455,104.337,206.604,104.055,206.604
			z M102.76,204.711c0.566-0.721,0.85-1.758,0.85-3.11c0-1.364-0.284-2.401-0.85-3.11c-0.541-0.682-1.327-1.023-2.356-1.023
			c-1.018,0-1.796,0.342-2.337,1.023c-0.567,0.709-0.85,1.746-0.85,3.11c0,1.353,0.283,2.39,0.85,3.11
			c0.541,0.683,1.32,1.023,2.337,1.023C101.434,205.734,102.219,205.394,102.76,204.711z"/>
		<path fill="#B47C66" stroke="#B47C66" stroke-width="0.5" stroke-miterlimit="10" d="M110.023,187.751
			c-0.142-0.283,0.022-0.563,0.493-0.841c0.47-0.276,0.814-0.254,1.033,0.068c0.425,0.553,0.451,1.32,0.077,2.299
			c-0.271,0.771-0.824,1.764-1.661,2.975c-0.167,0.258-0.374,0.303-0.618,0.135c-0.232-0.18-0.271-0.387-0.116-0.618
			c0.785-1.159,1.3-2.086,1.545-2.782c0.244-0.643,0.203-0.952-0.126-0.926C110.323,188.086,110.113,187.982,110.023,187.751z"/>
		<path fill="#B47C66" stroke="#B47C66" stroke-width="0.5" stroke-miterlimit="10" d="M112.862,191.769
			c0-0.321,0.093-0.595,0.28-0.821c0.187-0.225,0.415-0.338,0.686-0.338s0.502,0.113,0.695,0.338c0.193,0.227,0.29,0.5,0.29,0.821
			c0,0.322-0.097,0.593-0.29,0.812c-0.193,0.219-0.425,0.328-0.695,0.328s-0.499-0.109-0.686-0.328
			C112.956,192.361,112.862,192.091,112.862,191.769z M114.234,197.062v9.117c0,0.283-0.148,0.425-0.444,0.425
			c-0.283,0-0.425-0.142-0.425-0.425v-9.117c0-0.296,0.142-0.444,0.425-0.444C114.085,196.617,114.234,196.766,114.234,197.062z"/>
		<path fill="#B47C66" stroke="#B47C66" stroke-width="0.5" stroke-miterlimit="10" d="M123.68,201.62
			c0-1.353-0.284-2.396-0.85-3.13c-0.541-0.669-1.327-1.004-2.356-1.004c-1.031,0-1.81,0.335-2.337,1.004
			c-0.567,0.734-0.85,1.777-0.85,3.13v4.559c0,0.283-0.148,0.425-0.444,0.425c-0.283,0-0.425-0.142-0.425-0.425v-4.559v-4.559
			c0-0.296,0.142-0.444,0.425-0.444c0.296,0,0.444,0.148,0.444,0.444v1.14c0.026-0.051,0.083-0.129,0.174-0.232
			c0.721-0.9,1.726-1.352,3.014-1.352c1.3,0,2.311,0.451,3.033,1.352c0.695,0.889,1.043,2.105,1.043,3.651v4.559
			c0,0.283-0.148,0.425-0.444,0.425c-0.283,0-0.425-0.142-0.425-0.425V201.62z"/>
		<path fill="#B47C66" stroke="#B47C66" stroke-width="0.5" stroke-miterlimit="10" d="M126.075,194.589h1.545v-7.321
			c0-0.283,0.148-0.425,0.444-0.425c0.283,0,0.425,0.142,0.425,0.425v7.321h2.917c0.283,0,0.425,0.136,0.425,0.405
			c0,0.297-0.142,0.445-0.425,0.445h-2.917v7.494c0,0.939,0.2,1.654,0.599,2.145c0.335,0.451,0.856,0.676,1.565,0.676
			c0.476,0,0.875-0.109,1.197-0.328c0.296-0.206,0.541-0.535,0.734-0.985c0.09-0.258,0.277-0.335,0.56-0.231
			c0.257,0.103,0.334,0.283,0.232,0.541c-0.219,0.605-0.567,1.068-1.043,1.391c-0.489,0.309-1.049,0.463-1.68,0.463
			c-0.966,0-1.713-0.335-2.241-1.004c-0.528-0.645-0.792-1.533-0.792-2.666v-7.494h-1.545c-0.283,0-0.425-0.148-0.425-0.445
			C125.65,194.725,125.792,194.589,126.075,194.589z"/>
		<path fill="#B47C66" stroke="#B47C66" stroke-width="0.5" stroke-miterlimit="10" d="M141.933,204.131
			c-0.335,0.824-0.805,1.443-1.41,1.854c-0.631,0.412-1.384,0.618-2.26,0.618c-1.288,0-2.292-0.444-3.014-1.332
			c-0.412-0.503-0.689-1.079-0.831-1.729c-0.142-0.649-0.212-1.291-0.212-1.922c0-1.571,0.348-2.788,1.043-3.651
			c0.721-0.9,1.726-1.352,3.014-1.352c1.3,0,2.311,0.451,3.033,1.352c0.695,0.889,1.043,2.105,1.043,3.651
			c0,0.283-0.148,0.425-0.444,0.425h-6.819c0.064,1.159,0.348,2.055,0.85,2.686c0.528,0.682,1.307,1.023,2.337,1.023
			c0.708,0,1.3-0.161,1.777-0.482c0.477-0.322,0.837-0.805,1.082-1.449c0.103-0.271,0.29-0.348,0.56-0.232
			C141.939,203.681,142.022,203.861,141.933,204.131z M135.925,198.49c-0.502,0.645-0.786,1.546-0.85,2.705h6.394
			c-0.078-1.159-0.361-2.061-0.85-2.705c-0.541-0.669-1.327-1.004-2.356-1.004C137.232,197.486,136.453,197.821,135.925,198.49z
			 M140.542,191.17l-3.207,1.932c-0.245,0.142-0.444,0.084-0.599-0.174c-0.142-0.232-0.09-0.426,0.155-0.58l3.187-1.912
			c0.258-0.154,0.464-0.109,0.618,0.135C140.838,190.828,140.787,191.028,140.542,191.17z"/>
		<path fill="#B47C66" stroke="#B47C66" stroke-width="0.5" stroke-miterlimit="10" d="M145.119,197.062v1.14
			c0.026-0.051,0.084-0.129,0.174-0.232c0.722-0.9,1.727-1.352,3.014-1.352c0.863,0,1.616,0.219,2.26,0.656
			c0.605,0.4,1.076,1.012,1.41,1.836c0.104,0.283,0.02,0.47-0.25,0.56c-0.271,0.091-0.458,0.007-0.561-0.251
			c-0.245-0.631-0.605-1.113-1.082-1.449c-0.477-0.321-1.068-0.482-1.777-0.482c-1.03,0-1.809,0.335-2.337,1.004
			c-0.567,0.734-0.851,1.777-0.851,3.13v4.559c0,0.283-0.147,0.425-0.443,0.425c-0.283,0-0.426-0.142-0.426-0.425v-4.559v-4.559
			c0-0.296,0.143-0.444,0.426-0.444C144.972,196.617,145.119,196.766,145.119,197.062z"/>
		<path fill="#B47C66" stroke="#B47C66" stroke-width="0.5" stroke-miterlimit="10" d="M153.793,191.769
			c0-0.321,0.093-0.595,0.279-0.821c0.188-0.225,0.416-0.338,0.686-0.338c0.271,0,0.503,0.113,0.695,0.338
			c0.193,0.227,0.291,0.5,0.291,0.821c0,0.322-0.098,0.593-0.291,0.812c-0.192,0.219-0.424,0.328-0.695,0.328
			c-0.27,0-0.498-0.109-0.686-0.328C153.886,192.361,153.793,192.091,153.793,191.769z M155.164,197.062v9.117
			c0,0.283-0.148,0.425-0.444,0.425c-0.283,0-0.425-0.142-0.425-0.425v-9.117c0-0.296,0.142-0.444,0.425-0.444
			C155.016,196.617,155.164,196.766,155.164,197.062z"/>
		<path fill="#B47C66" stroke="#B47C66" stroke-width="0.5" stroke-miterlimit="10" d="M165.055,204.131
			c-0.336,0.824-0.806,1.443-1.41,1.854c-0.632,0.412-1.385,0.618-2.261,0.618c-1.288,0-2.292-0.444-3.013-1.332
			c-0.413-0.503-0.689-1.079-0.831-1.729c-0.142-0.649-0.213-1.291-0.213-1.922c0-1.571,0.349-2.788,1.044-3.651
			c0.721-0.9,1.725-1.352,3.013-1.352c1.301,0,2.312,0.451,3.032,1.352c0.695,0.889,1.043,2.105,1.043,3.651
			c0,0.283-0.147,0.425-0.443,0.425h-6.818c0.063,1.159,0.348,2.055,0.85,2.686c0.527,0.682,1.307,1.023,2.337,1.023
			c0.708,0,1.301-0.161,1.777-0.482c0.476-0.322,0.837-0.805,1.081-1.449c0.104-0.271,0.29-0.348,0.561-0.232
			C165.061,203.681,165.145,203.861,165.055,204.131z M159.047,198.49c-0.502,0.645-0.786,1.546-0.85,2.705h6.393
			c-0.076-1.159-0.36-2.061-0.85-2.705c-0.541-0.669-1.326-1.004-2.356-1.004S159.574,197.821,159.047,198.49z"/>
		<path fill="#B47C66" stroke="#B47C66" stroke-width="0.5" stroke-miterlimit="10" d="M168.26,201.62
			c0,1.365,0.283,2.401,0.851,3.11c0.528,0.682,1.307,1.023,2.337,1.023s1.816-0.342,2.357-1.023c0.566-0.709,0.85-1.745,0.85-3.11
			v-4.559c0-0.296,0.142-0.444,0.425-0.444c0.296,0,0.444,0.148,0.444,0.444v4.559v4.559c0,0.283-0.148,0.425-0.444,0.425
			c-0.283,0-0.425-0.142-0.425-0.425v-1.159c-0.026,0.052-0.084,0.135-0.174,0.252c-0.709,0.888-1.719,1.332-3.033,1.332
			c-1.287,0-2.292-0.444-3.014-1.332c-0.695-0.863-1.043-2.08-1.043-3.651v-4.559c0-0.296,0.143-0.444,0.426-0.444
			c0.296,0,0.443,0.148,0.443,0.444V201.62z"/>
		<path fill="#B47C66" stroke="#B47C66" stroke-width="0.5" stroke-miterlimit="10" d="M178.324,197.062v1.14
			c0.025-0.051,0.083-0.129,0.174-0.232c0.721-0.9,1.725-1.352,3.014-1.352c0.861,0,1.615,0.219,2.26,0.656
			c0.605,0.4,1.074,1.012,1.41,1.836c0.103,0.283,0.02,0.47-0.252,0.56c-0.27,0.091-0.457,0.007-0.56-0.251
			c-0.245-0.631-0.605-1.113-1.082-1.449c-0.477-0.321-1.069-0.482-1.776-0.482c-1.031,0-1.811,0.335-2.338,1.004
			c-0.566,0.734-0.85,1.777-0.85,3.13v4.559c0,0.283-0.148,0.425-0.445,0.425c-0.283,0-0.424-0.142-0.424-0.425v-4.559v-4.559
			c0-0.296,0.141-0.444,0.424-0.444C178.176,196.617,178.324,196.766,178.324,197.062z"/>
	</g>
	<path fill="none" stroke="#B47C66" stroke-width="2" stroke-miterlimit="10" d="M46.004,193.92
		c-8.447-15.521-13.246-33.314-13.246-52.228c0-60.43,48.988-109.418,109.418-109.418c60.429,0,109.417,48.988,109.417,109.418
		c0,19.056-4.871,36.974-13.438,52.578"/>
</g>
</svg>
