<svg xmlns="http://www.w3.org/2000/svg" viewBox="0 0 24.22 24.06"><title>Asset 2</title><path d="M9.29,6.77c1.82-.19,6.21-.32,7.23.46s.92,2.54.92,4.86c0,2.59.14,4.34-1.51,5a12.43,12.43,0,0,1-4.14.27c-2,0-3.94.1-4.67-1.19-.48-.84-.39-2.41-.4-4C6.71,9.13,6.54,7.05,9.29,6.77Zm7,1.77a.74.74,0,0,0-1-.66C13.59,8.4,16.38,10.46,16.33,8.54Zm-7,1.65A4.19,4.19,0,0,0,8.76,12,3.34,3.34,0,1,0,15,10.25,3.37,3.37,0,0,0,11.52,8.8,3.23,3.23,0,0,0,9.29,10.19Z" style="fill:#464448;fill-rule:evenodd"/><path d="M11.66,9.92a2.16,2.16,0,0,1,2.56,1.38c.77,2.63-2.83,3.82-4,1.91A2.19,2.19,0,0,1,11.66,9.92Z" style="fill:#464448;fill-rule:evenodd"/><path d="M10.93.05A12.1,12.1,0,0,1,20.14,3a12.45,12.45,0,0,1,3.49,12.89,11.88,11.88,0,0,1-8.82,7.9A12.12,12.12,0,0,1,.14,14.07,13.35,13.35,0,0,1,1.07,7,12.23,12.23,0,0,1,10.93.05ZM5.6,11.7c0,1.47,0,4.1.53,5C7,18.35,9,18.47,11.46,18.47a21,21,0,0,0,4.34-.13c2.77-.61,2.76-3,2.76-6.31,0-2.72.07-5-1.84-6-1.57-.8-5.15-.55-7.3-.39C5.83,5.91,5.6,8,5.6,11.7Z" style="fill:#464448;fill-rule:evenodd"/></svg>