<svg xmlns="http://www.w3.org/2000/svg" viewBox="0 0 113.88 163.19"><title>Asset 1</title><g style="isolation:isolate"><path d="M14.33,34.44a8.09,8.09,0,0,0-3.53-2,2.37,2.37,0,0,0-2.28.74A2.31,2.31,0,0,0,8,35.51a8.17,8.17,0,0,0,2.44,3.27l4.31,3.81a.53.53,0,0,1-.71.8L9.77,39.58a8,8,0,0,0-3.53-2A2.38,2.38,0,0,0,4,38.29a2.28,2.28,0,0,0-.46,2.36,7.87,7.87,0,0,0,2.44,3.26l4.3,3.81a.49.49,0,0,1,0,.78.48.48,0,0,1-.76,0L5.2,44.73.9,40.92a.48.48,0,0,1-.06-.77.5.5,0,0,1,.79,0l.77.68a3.29,3.29,0,0,1,.73-3.22A3.31,3.31,0,0,1,6.45,36.5a7.72,7.72,0,0,1,1,.29,4.93,4.93,0,0,1-.4-.95,3.26,3.26,0,0,1,.67-3.43A3.3,3.3,0,0,1,11,31.34a8.82,8.82,0,0,1,4,2.28l4.3,3.81a.46.46,0,0,1,0,.75.49.49,0,0,1-.77.07Z" style="fill:#b38a2e"/></g><g style="isolation:isolate"><path d="M14.33,34.44a8.09,8.09,0,0,0-3.53-2,2.37,2.37,0,0,0-2.28.74A2.31,2.31,0,0,0,8,35.51a8.17,8.17,0,0,0,2.44,3.27l4.31,3.81a.53.53,0,0,1-.71.8L9.77,39.58a8,8,0,0,0-3.53-2A2.38,2.38,0,0,0,4,38.29a2.28,2.28,0,0,0-.46,2.36,7.87,7.87,0,0,0,2.44,3.26l4.3,3.81a.49.49,0,0,1,0,.78.48.48,0,0,1-.76,0L5.2,44.73.9,40.92a.48.48,0,0,1-.06-.77.5.5,0,0,1,.79,0l.77.68a3.29,3.29,0,0,1,.73-3.22A3.31,3.31,0,0,1,6.45,36.5a7.72,7.72,0,0,1,1,.29,4.93,4.93,0,0,1-.4-.95,3.26,3.26,0,0,1,.67-3.43A3.3,3.3,0,0,1,11,31.34a8.82,8.82,0,0,1,4,2.28l4.3,3.81a.46.46,0,0,1,0,.75.49.49,0,0,1-.77.07Z" style="fill:none;stroke:#b1834d;stroke-width:1.3526500463485718px"/></g><g style="isolation:isolate"><path d="M21.65,15.92l1.5-3.16,3.39.66a.5.5,0,0,1,.45.64.48.48,0,0,1-.61.39L23.76,14l-1.12,2.41a.55.55,0,0,1-.73.29A.51.51,0,0,1,21.65,15.92Zm9.57,1.5,2.59,5.11,2.58,5.12a.49.49,0,0,1-.25.73.47.47,0,0,1-.72-.24l-.66-1.3a3,3,0,0,1,0,.38,4.59,4.59,0,0,1-2.65,3.22,4.59,4.59,0,0,1-4.13.21,7.12,7.12,0,0,1-3.24-3.5,7,7,0,0,1-.9-4.69,4.55,4.55,0,0,1,2.61-3.23,4.61,4.61,0,0,1,4.17-.2,1.3,1.3,0,0,1,.32.16l-.64-1.28a.48.48,0,0,1,.22-.74A.49.49,0,0,1,31.22,17.42ZM30.1,20a3.54,3.54,0,0,0-3.21.21,3.51,3.51,0,0,0-2.05,2.45,6.28,6.28,0,0,0,.82,4,6.12,6.12,0,0,0,2.72,3,3.45,3.45,0,0,0,3.2-.18A3.53,3.53,0,0,0,33.64,27a6.07,6.07,0,0,0-.81-4A6.23,6.23,0,0,0,30.1,20Z" style="fill:#b38a2e"/></g><g style="isolation:isolate"><path d="M21.65,15.92l1.5-3.16,3.39.66a.5.5,0,0,1,.45.64.48.48,0,0,1-.61.39L23.76,14l-1.12,2.41a.55.55,0,0,1-.73.29A.51.51,0,0,1,21.65,15.92Zm9.57,1.5,2.59,5.11,2.58,5.12a.49.49,0,0,1-.25.73.47.47,0,0,1-.72-.24l-.66-1.3a3,3,0,0,1,0,.38,4.59,4.59,0,0,1-2.65,3.22,4.59,4.59,0,0,1-4.13.21,7.12,7.12,0,0,1-3.24-3.5,7,7,0,0,1-.9-4.69,4.55,4.55,0,0,1,2.61-3.23,4.61,4.61,0,0,1,4.17-.2,1.3,1.3,0,0,1,.32.16l-.64-1.28a.48.48,0,0,1,.22-.74A.49.49,0,0,1,31.22,17.42ZM30.1,20a3.54,3.54,0,0,0-3.21.21,3.51,3.51,0,0,0-2.05,2.45,6.28,6.28,0,0,0,.82,4,6.12,6.12,0,0,0,2.72,3,3.45,3.45,0,0,0,3.2-.18A3.53,3.53,0,0,0,33.64,27a6.07,6.07,0,0,0-.81-4A6.23,6.23,0,0,0,30.1,20Z" style="fill:none;stroke:#b1834d;stroke-miterlimit:3.989185333251953;stroke-width:1.348992943763733px"/></g><g style="isolation:isolate"><path d="M42,10.71l1.93-.28L42.6,1.3a.48.48,0,0,1,.48-.61.47.47,0,0,1,.6.45L45,10.28l3.64-.52c.36,0,.56.09.6.43a.48.48,0,0,1-.45.63l-3.64.52,1.33,9.35a4.19,4.19,0,0,0,1.13,2.57,2.29,2.29,0,0,0,2.07.56,2.61,2.61,0,0,0,1.44-.62,2.81,2.81,0,0,0,.74-1.36c.07-.33.29-.46.66-.38a.45.45,0,0,1,.38.63A3.49,3.49,0,0,1,51.83,24a3.91,3.91,0,0,1-2,.88,3.4,3.4,0,0,1-3-.86,5.11,5.11,0,0,1-1.46-3.19l-1.33-9.35-1.93.28a.49.49,0,0,1-.61-.48C41.46,11,41.62,10.76,42,10.71Z" style="fill:#b38a2e"/></g><g style="isolation:isolate"><path d="M42,10.71l1.93-.28L42.6,1.3a.48.48,0,0,1,.48-.61.47.47,0,0,1,.6.45L45,10.28l3.64-.52c.36,0,.56.09.6.43a.48.48,0,0,1-.45.63l-3.64.52,1.33,9.35a4.19,4.19,0,0,0,1.13,2.57,2.29,2.29,0,0,0,2.07.56,2.61,2.61,0,0,0,1.44-.62,2.81,2.81,0,0,0,.74-1.36c.07-.33.29-.46.66-.38a.45.45,0,0,1,.38.63A3.49,3.49,0,0,1,51.83,24a3.91,3.91,0,0,1-2,.88,3.4,3.4,0,0,1-3-.86,5.11,5.11,0,0,1-1.46-3.19l-1.33-9.35-1.93.28a.49.49,0,0,1-.61-.48C41.46,11,41.62,10.76,42,10.71Z" style="fill:none;stroke:#b1834d;stroke-width:1.3526500463485718px"/></g><g style="isolation:isolate"><path d="M72.57,23.24a4.91,4.91,0,0,1-2.18,2,5.07,5.07,0,0,1-2.94.22,4.56,4.56,0,0,1-3.4-2.36,7.14,7.14,0,0,1-.42-4.76A7.2,7.2,0,0,1,65.79,14a4.59,4.59,0,0,1,4-.95,5,5,0,0,1,2.64,1.35A4.9,4.9,0,0,1,73.78,17a.48.48,0,0,1-.45.63.51.51,0,0,1-.63-.45,3.88,3.88,0,0,0-1-2,3.9,3.9,0,0,0-2.08-1,3.55,3.55,0,0,0-3.13.68,6.32,6.32,0,0,0-1.79,3.67,6.13,6.13,0,0,0,.3,4,3.47,3.47,0,0,0,2.64,1.82A3.84,3.84,0,0,0,70,24.19a3.68,3.68,0,0,0,1.69-1.53.46.46,0,0,1,.74-.15A.47.47,0,0,1,72.57,23.24Z" style="fill:#b38a2e"/></g><g style="isolation:isolate"><path d="M72.57,23.24a4.91,4.91,0,0,1-2.18,2,5.07,5.07,0,0,1-2.94.22,4.56,4.56,0,0,1-3.4-2.36,7.14,7.14,0,0,1-.42-4.76A7.2,7.2,0,0,1,65.79,14a4.59,4.59,0,0,1,4-.95,5,5,0,0,1,2.64,1.35A4.9,4.9,0,0,1,73.78,17a.48.48,0,0,1-.45.63.51.51,0,0,1-.63-.45,3.88,3.88,0,0,0-1-2,3.9,3.9,0,0,0-2.08-1,3.55,3.55,0,0,0-3.13.68,6.32,6.32,0,0,0-1.79,3.67,6.13,6.13,0,0,0,.3,4,3.47,3.47,0,0,0,2.64,1.82A3.84,3.84,0,0,0,70,24.19a3.68,3.68,0,0,0,1.69-1.53.46.46,0,0,1,.74-.15A.47.47,0,0,1,72.57,23.24Z" style="fill:none;stroke:#b1834d;stroke-miterlimit:3.9929938316345215;stroke-width:1.3502808809280396px"/></g><g style="isolation:isolate"><path d="M92,28.87a6.33,6.33,0,0,0,1.1-3.93,3.59,3.59,0,0,0-1.91-2.61A3.55,3.55,0,0,0,88,21.91a6.38,6.38,0,0,0-2.94,2.84l-2.93,4.94a.48.48,0,0,1-.76.17.47.47,0,0,1-.19-.73l2.94-4.94L93.39,8.65a.48.48,0,0,1,.74-.19.49.49,0,0,1,.21.75l-7,11.84a1.32,1.32,0,0,1,.34-.14,5.11,5.11,0,0,1,6.54,3.9A7.23,7.23,0,0,1,93,29.43L90,34.37a.55.55,0,0,1-.94-.56Z" style="fill:#b38a2e"/></g><g style="isolation:isolate"><path d="M92,28.87a6.33,6.33,0,0,0,1.1-3.93,3.59,3.59,0,0,0-1.91-2.61A3.55,3.55,0,0,0,88,21.91a6.38,6.38,0,0,0-2.94,2.84l-2.93,4.94a.48.48,0,0,1-.76.17.47.47,0,0,1-.19-.73l2.94-4.94L93.39,8.65a.48.48,0,0,1,.74-.19.49.49,0,0,1,.21.75l-7,11.84a1.32,1.32,0,0,1,.34-.14,5.11,5.11,0,0,1,6.54,3.9A7.23,7.23,0,0,1,93,29.43L90,34.37a.55.55,0,0,1-.94-.56Z" style="fill:none;stroke:#b1834d;stroke-width:1.3526500463485718px"/></g><g style="isolation:isolate"><path d="M113,40.9l-4.41,3.68-4.41,3.69a.48.48,0,0,1-.77-.09.47.47,0,0,1,.07-.75l1.12-.94a2.19,2.19,0,0,1-.39,0,5.16,5.16,0,0,1-4.88-5.85,7.15,7.15,0,0,1,2.69-4,7.13,7.13,0,0,1,4.37-1.94,5.1,5.1,0,0,1,4.89,5.85,1.68,1.68,0,0,1-.09.35l1.11-.92a.48.48,0,0,1,.77,0A.49.49,0,0,1,113,40.9Zm-2.77-.51a3.58,3.58,0,0,0-.94-3.09,3.53,3.53,0,0,0-2.86-1.45,6.41,6.41,0,0,0-3.71,1.71,6.16,6.16,0,0,0-2.32,3.33,3.48,3.48,0,0,0,.9,3.09,3.53,3.53,0,0,0,2.89,1.45,6.12,6.12,0,0,0,3.7-1.69A6.42,6.42,0,0,0,110.2,40.39Z" style="fill:#b38a2e"/></g><g style="isolation:isolate"><path d="M113,40.9l-4.41,3.68-4.41,3.69a.48.48,0,0,1-.77-.09.47.47,0,0,1,.07-.75l1.12-.94a2.19,2.19,0,0,1-.39,0,5.16,5.16,0,0,1-4.88-5.85,7.15,7.15,0,0,1,2.69-4,7.13,7.13,0,0,1,4.37-1.94,5.1,5.1,0,0,1,4.89,5.85,1.68,1.68,0,0,1-.09.35l1.11-.92a.48.48,0,0,1,.77,0A.49.49,0,0,1,113,40.9Zm-2.77-.51a3.58,3.58,0,0,0-.94-3.09,3.53,3.53,0,0,0-2.86-1.45,6.41,6.41,0,0,0-3.71,1.71,6.16,6.16,0,0,0-2.32,3.33,3.48,3.48,0,0,0,.9,3.09,3.53,3.53,0,0,0,2.89,1.45,6.12,6.12,0,0,0,3.7-1.69A6.42,6.42,0,0,0,110.2,40.39Z" style="fill:none;stroke:#b1834d;stroke-width:1.3526500463485718px"/></g><line x1="18.22" y1="101.54" x2="57.07" y2="150.1" style="fill:none;stroke:#b1834d;stroke-linecap:round;stroke-miterlimit:10;stroke-width:2.7117600440979004px"/><polyline points="57.07 150.1 57.07 135.07 17.13 85.88" style="fill:none;stroke:#b1834d;stroke-linecap:round;stroke-miterlimit:10;stroke-width:2.8043999671936035px"/><polyline points="57.07 135.46 57.07 119.89 18.7 72.61" style="fill:none;stroke:#b1834d;stroke-linecap:round;stroke-miterlimit:10;stroke-width:2.904279947280884px"/><line x1="94.99" y1="102.7" x2="57.07" y2="150.1" style="fill:none;stroke:#b1834d;stroke-linecap:round;stroke-miterlimit:10;stroke-width:2.7117600440979004px"/><polyline points="57.07 150.1 57.07 135.46 94.25 88.98" style="fill:none;stroke:#b1834d;stroke-linecap:round;stroke-miterlimit:10;stroke-width:2.7117600440979004px"/><polyline points="96.03 86.72 57.07 135.46 57.07 120.81" style="fill:none;stroke:#b1834d;stroke-linecap:round;stroke-miterlimit:10;stroke-width:2.7117600440979004px"/><line x1="57.07" y1="120.81" x2="96.03" y2="72.71" style="fill:none;stroke:#b1834d;stroke-linecap:round;stroke-miterlimit:10;stroke-width:2.9303300380706787px"/><path d="M16.86,81.44A40.18,40.18,0,0,1,57,41.26h0A40.18,40.18,0,0,1,97.25,81.44L95,121.63c0,22.19-15.77,40.18-38,40.18h0c-22.2,0-38-18-38-40.18Z" style="fill:none;stroke:#b1834d;stroke-linecap:round;stroke-miterlimit:10;stroke-width:2.7687699794769287px"/><line x1="57.07" y1="120.81" x2="57.07" y2="161.81" style="fill:none;stroke:#b1834d;stroke-linecap:round;stroke-miterlimit:10;stroke-width:2.4502100944519043px"/></svg>