<svg xmlns="http://www.w3.org/2000/svg" viewBox="0 0 163.19 176.49"><title>Asset 1</title><text transform="translate(29.84 62.75) rotate(-48.46)" style="font-size:48.69512176513672px;fill:#b38a2e;stroke:#b1834d;stroke-width:1.3526500463485718px;font-family:SimplePrint-Regular, Simple Print">m</text><text transform="matrix(0.89, -0.45, 0.45, 0.89, 47.33, 46.1)" style="font-size:48.69512176513672px;fill:#b38a2e;stroke:#b1834d;stroke-width:1.3526500463485718px;font-family:SimplePrint-Regular, Simple Print">â</text><text transform="translate(65.6 38.4) rotate(-8.09)" style="font-size:48.69512176513672px;fill:#b38a2e;stroke:#b1834d;stroke-width:1.3526500463485718px;font-family:SimplePrint-Regular, Simple Print">t</text><text transform="matrix(0.98, 0.19, -0.19, 0.98, 82.49, 36.98)" style="font-size:48.69512176513672px;fill:#b38a2e;stroke:#b1834d;stroke-width:1.3526500463485718px;font-family:SimplePrint-Regular, Simple Print">c</text><text transform="translate(101.3 41.8) rotate(30.76)" style="font-size:48.69512176513672px;fill:#b38a2e;stroke:#b1834d;stroke-width:1.3526500463485718px;font-family:SimplePrint-Regular, Simple Print">h</text><text transform="translate(117.94 52.76) rotate(50.13)" style="font-size:48.69512176513672px;fill:#b38a2e;stroke:#b1834d;stroke-width:1.3526500463485718px;font-family:SimplePrint-Regular, Simple Print">a</text><line x1="39.36" y1="114.83" x2="78.21" y2="163.39" style="fill:none;stroke:#b1834d;stroke-linecap:round;stroke-miterlimit:10;stroke-width:2.7117600000000004px"/><polyline points="78.21 163.39 78.21 148.36 38.27 99.17" style="fill:none;stroke:#b1834d;stroke-linecap:round;stroke-miterlimit:10;stroke-width:2.8044000000000002px"/><polyline points="78.21 148.75 78.21 133.18 39.84 85.9" style="fill:none;stroke:#b1834d;stroke-linecap:round;stroke-miterlimit:10;stroke-width:2.9042800000000004px"/><line x1="116.13" y1="115.99" x2="78.21" y2="163.39" style="fill:none;stroke:#b1834d;stroke-linecap:round;stroke-miterlimit:10;stroke-width:2.7117600000000004px"/><polyline points="78.21 163.39 78.21 148.75 115.39 102.27" style="fill:none;stroke:#b1834d;stroke-linecap:round;stroke-miterlimit:10;stroke-width:2.7117600000000004px"/><polyline points="117.17 100.01 78.21 148.75 78.21 134.1" style="fill:none;stroke:#b1834d;stroke-linecap:round;stroke-miterlimit:10;stroke-width:2.7117600000000004px"/><line x1="78.21" y1="134.1" x2="117.17" y2="86" style="fill:none;stroke:#b1834d;stroke-linecap:round;stroke-miterlimit:10;stroke-width:2.93033px"/><path d="M38,94.73A40.18,40.18,0,0,1,78.21,54.55h0a40.18,40.18,0,0,1,40.18,40.18l-2.22,40.19c0,22.19-15.77,40.18-38,40.18h0c-22.2,0-38-18-38-40.18Z" style="fill:none;stroke:#b1834d;stroke-linecap:round;stroke-miterlimit:10;stroke-width:2.7687700000000004px"/><line x1="78.21" y1="134.1" x2="78.21" y2="175.1" style="fill:none;stroke:#b1834d;stroke-linecap:round;stroke-miterlimit:10;stroke-width:2.45021px"/></svg>