<svg xmlns="http://www.w3.org/2000/svg" xmlns:xlink="http://www.w3.org/1999/xlink" version="1.1" style="shape-rendering:geometricPrecision; text-rendering:geometricPrecision; image-rendering:optimizeQuality; fill-rule:evenodd; clip-rule:evenodd" viewBox="28.5 85.2 925.06 162.41">
<g><path style="opacity:0.947" fill="#3e3b14" d="M 333.5,85.5 C 359.175,83.6213 382.009,90.6213 402,106.5C 402.667,107.5 402.667,108.5 402,109.5C 397.99,114.341 393.823,119.008 389.5,123.5C 359.258,101.061 328.924,100.895 298.5,123C 297.5,123.667 296.5,123.667 295.5,123C 291.167,118 286.833,113 282.5,108C 297.388,95.5528 314.388,88.0528 333.5,85.5 Z"/></g>
<g><path style="opacity:0.951" fill="#3e3b14" d="M 592.5,126.5 C 613.884,125.449 631.717,132.782 646,148.5C 649.021,152.544 651.521,156.877 653.5,161.5C 653.167,162.167 652.833,162.833 652.5,163.5C 646.592,166.038 640.758,168.705 635,171.5C 621.916,148.94 603.416,142.773 579.5,153C 563.289,163.595 557.123,178.428 561,197.5C 569.338,218.847 584.838,228.014 607.5,225C 619.605,221.558 628.772,214.391 635,203.5C 641.696,205.764 647.862,208.93 653.5,213C 642.006,235.096 623.673,246.596 598.5,247.5C 566.625,245.123 546.792,228.456 539,197.5C 536.209,158.141 554.042,134.475 592.5,126.5 Z"/></g>
<g><path style="opacity:0.954" fill="#3e3b14" d="M 28.5,128.5 C 35.5,128.5 42.5,128.5 49.5,128.5C 49.3342,133.179 49.5008,137.845 50,142.5C 71.3925,126.441 94.2258,124.274 118.5,136C 126.254,140.587 132.921,146.42 138.5,153.5C 160.698,127.851 187.365,122.017 218.5,136C 237.165,147.145 247.331,163.645 249,185.5C 249.5,206.164 249.667,226.831 249.5,247.5C 242.167,247.5 234.833,247.5 227.5,247.5C 227.667,225.497 227.5,203.497 227,181.5C 221.574,161.906 208.741,151.24 188.5,149.5C 168.259,151.24 155.426,161.906 150,181.5C 149.699,203.172 149.699,224.838 150,246.5C 142.587,247.481 135.087,247.814 127.5,247.5C 127.667,225.497 127.5,203.497 127,181.5C 121.607,161.945 108.774,151.278 88.5,149.5C 68.2259,151.278 55.3926,161.945 50,181.5C 49.5,203.497 49.3334,225.497 49.5,247.5C 42.5,247.5 35.5,247.5 28.5,247.5C 28.5,207.833 28.5,168.167 28.5,128.5 Z"/></g>
<g><path style="opacity:0.954" fill="#3e3b14" d="M 334.5,128.5 C 360.218,126.223 380.385,135.556 395,156.5C 398.655,163.132 401.321,170.132 403,177.5C 403.5,200.831 403.667,224.164 403.5,247.5C 396.5,247.5 389.5,247.5 382.5,247.5C 379.03,224.19 366.364,208.023 344.5,199C 331.583,194.183 318.25,191.35 304.5,190.5C 304.5,209.5 304.5,228.5 304.5,247.5C 297.167,247.5 289.833,247.5 282.5,247.5C 282.333,226.164 282.5,204.831 283,183.5C 287.658,153.345 304.825,135.011 334.5,128.5 Z M 338.5,149.5 C 361.608,149.291 376.108,160.291 382,182.5C 382.667,187.833 382.667,193.167 382,198.5C 367.973,185.402 351.473,176.902 332.5,173C 324.849,171.574 317.182,170.24 309.5,169C 316.597,158.467 326.263,151.967 338.5,149.5 Z"/></g>
<g><path style="opacity:0.964" fill="#3e3b14" d="M 431.5,128.5 C 455.215,147.187 481.048,150.52 509,138.5C 512.867,144.395 516.367,150.561 519.5,157C 507.537,162.991 494.87,166.157 481.5,166.5C 481.5,193.5 481.5,220.5 481.5,247.5C 474.5,247.5 467.5,247.5 460.5,247.5C 460.833,220.159 460.5,192.825 459.5,165.5C 444.643,162.223 431.31,155.889 419.5,146.5C 418.417,145.635 418.251,144.635 419,143.5C 423.378,138.627 427.545,133.627 431.5,128.5 Z"/></g>
<g><path style="opacity:0.953" fill="#3e3b14" d="M 682.5,128.5 C 689.833,128.5 697.167,128.5 704.5,128.5C 704.333,151.836 704.5,175.169 705,198.5C 720.162,184.503 737.995,175.67 758.5,172C 766.436,170.508 774.436,169.675 782.5,169.5C 782.5,155.833 782.5,142.167 782.5,128.5C 789.5,128.5 796.5,128.5 803.5,128.5C 803.5,168.167 803.5,207.833 803.5,247.5C 796.5,247.5 789.5,247.5 782.5,247.5C 782.5,228.5 782.5,209.5 782.5,190.5C 762.702,191.267 744.368,196.767 727.5,207C 713.739,217.021 706.072,230.521 704.5,247.5C 697.167,247.5 689.833,247.5 682.5,247.5C 682.5,207.833 682.5,168.167 682.5,128.5 Z"/></g>
<g><path style="opacity:0.956" fill="#3e3b14" d="M 885.5,128.5 C 915.61,126.815 937.11,139.481 950,166.5C 951.408,170.057 952.408,173.724 953,177.5C 953.5,200.831 953.667,224.164 953.5,247.5C 946.5,247.5 939.5,247.5 932.5,247.5C 932.5,228.5 932.5,209.5 932.5,190.5C 912.175,191.22 893.509,197.054 876.5,208C 863.322,217.852 855.988,231.019 854.5,247.5C 847.167,247.5 839.833,247.5 832.5,247.5C 832.333,226.831 832.5,206.164 833,185.5C 836.881,153.791 854.381,134.791 885.5,128.5 Z M 888.5,149.5 C 905.004,149.085 918.004,155.585 927.5,169C 907.323,170.793 888.323,176.46 870.5,186C 864.693,189.327 859.526,193.494 855,198.5C 852.318,172.491 863.485,156.158 888.5,149.5 Z"/></g>
</svg>