<svg xmlns="http://www.w3.org/2000/svg" viewBox="0 0 113.88 49.39"><title>Asset 12</title><path d="M14.33,34.44a8.11,8.11,0,0,0-3.52-2,2.38,2.38,0,0,0-2.29.74A2.31,2.31,0,0,0,8,35.51a8.15,8.15,0,0,0,2.44,3.26l4.3,3.82a.46.46,0,0,1,.05.75.48.48,0,0,1-.76,0l-4.3-3.81a8,8,0,0,0-3.53-2A2.38,2.38,0,0,0,4,38.29a2.28,2.28,0,0,0-.46,2.36,7.87,7.87,0,0,0,2.44,3.26l4.3,3.81a.49.49,0,0,1,0,.78.47.47,0,0,1-.76,0L5.2,44.73.9,40.92a.48.48,0,0,1-.06-.77.5.5,0,0,1,.79,0l.77.68a3.29,3.29,0,0,1,.73-3.22A3.31,3.31,0,0,1,6.45,36.5a7.72,7.72,0,0,1,1,.29,4.93,4.93,0,0,1-.4-.95,3.28,3.28,0,0,1,.67-3.43A3.3,3.3,0,0,1,11,31.34a8.82,8.82,0,0,1,4,2.28l4.3,3.81a.46.46,0,0,1,0,.75.49.49,0,0,1-.77.07Z" style="fill:#ac7e22;stroke:#ac7e22;stroke-width:1.3526500000000001px"/><path d="M21.6,15.89l1.5-3.17,3.39.65A.5.5,0,0,1,27,14a.48.48,0,0,1-.62.39l-2.62-.49-1.12,2.43a.55.55,0,0,1-.73.28A.5.5,0,0,1,21.6,15.89Zm9.6,1.48,2.61,5.12,2.6,5.12a.55.55,0,0,1-1,.5l-.66-1.31a3.12,3.12,0,0,1-.05.39,4.61,4.61,0,0,1-2.65,3.23,4.61,4.61,0,0,1-4.14.22,7.13,7.13,0,0,1-3.26-3.51,7.18,7.18,0,0,1-.92-4.69,4.58,4.58,0,0,1,2.62-3.24A4.6,4.6,0,0,1,30.55,19a2.58,2.58,0,0,1,.33.16l-.66-1.28a.48.48,0,0,1,.23-.74A.49.49,0,0,1,31.2,17.37ZM30.09,20a3.62,3.62,0,0,0-3.23.22,3.54,3.54,0,0,0-2.05,2.47,6.28,6.28,0,0,0,.84,4,6.23,6.23,0,0,0,2.73,3,3.51,3.51,0,0,0,3.21-.19A3.56,3.56,0,0,0,33.65,27a6.19,6.19,0,0,0-.82-4A6.44,6.44,0,0,0,30.09,20Z" style="fill:#ac7e22;stroke:#ac7e22;stroke-width:1.3526500000000001px"/><path d="M42,10.7l1.93-.27L42.6,1.29q-.08-.53.48-.6a.47.47,0,0,1,.6.45L45,10.28l3.64-.52c.36,0,.56.09.6.43a.48.48,0,0,1-.45.63l-3.64.52,1.33,9.35a4.19,4.19,0,0,0,1.13,2.57,2.32,2.32,0,0,0,2.07.57,2.69,2.69,0,0,0,1.44-.63,2.81,2.81,0,0,0,.74-1.36c.07-.33.29-.46.66-.38a.45.45,0,0,1,.38.63A3.49,3.49,0,0,1,51.83,24a4,4,0,0,1-2,.88,3.4,3.4,0,0,1-3-.86,5.11,5.11,0,0,1-1.46-3.19l-1.33-9.35-1.93.28a.49.49,0,0,1-.61-.48A.47.47,0,0,1,42,10.7Z" style="fill:#ac7e22;stroke:#ac7e22;stroke-width:1.3526500000000001px"/><path d="M72.59,23.21a4.58,4.58,0,0,1-5.13,2.19A4.6,4.6,0,0,1,64.05,23a7.15,7.15,0,0,1-.43-4.77A7.17,7.17,0,0,1,65.77,14a4.57,4.57,0,0,1,4-1,4.91,4.91,0,0,1,2.64,1.34A4.85,4.85,0,0,1,73.78,17c.06.37-.09.59-.45.63a.5.5,0,0,1-.63-.44,3.85,3.85,0,0,0-1-2,3.93,3.93,0,0,0-2.08-1,3.51,3.51,0,0,0-3.13.7,6.3,6.3,0,0,0-1.8,3.67A6.2,6.2,0,0,0,65,22.53a3.49,3.49,0,0,0,2.65,1.82A3.88,3.88,0,0,0,70,24.17a3.73,3.73,0,0,0,1.68-1.54.55.55,0,0,1,.93.58Z" style="fill:#ac7e22;stroke:#ac7e22;stroke-width:1.3526500000000001px"/><path d="M92,28.88a6.34,6.34,0,0,0,1.09-3.94,3.58,3.58,0,0,0-1.9-2.6A3.5,3.5,0,0,0,88,21.92a6.29,6.29,0,0,0-2.94,2.84L82.14,29.7a.48.48,0,0,1-.75.17.47.47,0,0,1-.19-.73l2.94-4.94L93.39,8.65a.47.47,0,0,1,.73-.18.48.48,0,0,1,.21.74l-7,11.85a1.75,1.75,0,0,1,.34-.14,4.57,4.57,0,0,1,4.14.47,4.62,4.62,0,0,1,2.41,3.42A7.32,7.32,0,0,1,93,29.44L90,34.38a.49.49,0,0,1-.76.17.47.47,0,0,1-.18-.73Z" style="fill:#ac7e22;stroke:#ac7e22;stroke-width:1.3526500000000001px"/><path d="M113,40.9l-4.41,3.69-4.41,3.68a.48.48,0,0,1-.77-.09.48.48,0,0,1,.07-.75l1.12-.94a2.17,2.17,0,0,1-.38,0,5.17,5.17,0,0,1-4.89-5.85,7.2,7.2,0,0,1,2.69-4,7.13,7.13,0,0,1,4.38-1.94,5.11,5.11,0,0,1,4.88,5.85,1.2,1.2,0,0,1-.08.35l1.1-.92a.49.49,0,0,1,.78,0A.5.5,0,0,1,113,40.9Zm-2.77-.51a3.61,3.61,0,0,0-.93-3.09,3.55,3.55,0,0,0-2.86-1.45,6.36,6.36,0,0,0-3.71,1.71,6.18,6.18,0,0,0-2.33,3.33,3.51,3.51,0,0,0,.9,3.09,3.6,3.6,0,0,0,2.9,1.46,6.17,6.17,0,0,0,3.69-1.7A6.27,6.27,0,0,0,110.19,40.39Z" style="fill:#ac7e22;stroke:#ac7e22;stroke-width:1.3526500000000001px"/></svg>