<svg xmlns="http://www.w3.org/2000/svg" viewBox="0 0 44.57 51.33"><title>Asset 1</title><path d="M26.19,51.33c-1.46-.18-2-1.33-3.19-1.73a86.33,86.33,0,0,1-8.81-.27c-.88.32-.93,1.41-2,1.23s-1.14-1.39-.52-2.39C8.13,33.73,3.53,20.32,0,5.87.61,5,1.44,5.58,2.25,5.49A24.37,24.37,0,0,0,5.91,4.42c2.24-.69,4.1-1.88,6.18-1.58a20.73,20.73,0,0,0,1.82,8.42A32.1,32.1,0,0,0,13.67.91C14.81.13,16.58.59,18,.55c1.65-.05,3.38-.09,5-.2s3.43-.77,4.75.07a16.7,16.7,0,0,0,.17,7.14c1.31-1.78,2-4.17,3-6.25,4.29,1.62,8.68,4.32,13.22,4.82,1.22.73-.46,1.44-.87,2.09-.86,1.31-1.3,3.4-2,5.28-2,5-4.1,10.52-6.25,15.58s-4.1,10.32-6.34,15.58A35.44,35.44,0,0,0,26.19,51.33ZM42.54,7.09C39.06,5.64,35.6,4.17,32,2.86c-1.48,1.5-2.17,3.83-3,6,3.22,2,7.22,3.2,11.27,4.37C41,11.15,41.82,9.18,42.54,7.09ZM39.77,14.6c-3.23-2.06-7.54-3.07-11.55-4.38a38.5,38.5,0,0,0-2.76,6.4A46.28,46.28,0,0,0,37,21.27C38.16,19.29,38.8,16.77,39.77,14.6Zm-3.21,8.21c-3.34-2.19-7.65-3.38-11.65-4.94-1.14,2.51-2.28,5-3.33,7.64,3.68,1.77,7.53,4.09,11.82,4.8A61.66,61.66,0,0,0,36.56,22.81ZM32.79,31.7c-3.93-1.56-7.14-3.83-12-4.52a53.93,53.93,0,0,0-3,7.51c3.69,1.8,7.86,3.86,12,4.8A49.33,49.33,0,0,0,32.79,31.7Zm-3.64,9.46a40.63,40.63,0,0,0-12-5.08c-1.53,2.54-2.49,5.67-3.77,8.48,4.1,1.59,7.84,3.52,12.1,4.94A57.83,57.83,0,0,0,29.15,41.16ZM27,9.78c-3.43-.58-8,.09-11.48.39-.22,1.83-.47,4.85.18,6.3,3.1.44,6-.52,9-.7C25.31,13.66,26.58,12.17,27,9.78Zm-.71-8.54a72.71,72.71,0,0,0-10.64.39,37.69,37.69,0,0,0-.11,7.28A63.12,63.12,0,0,0,26.58,8.1,26.72,26.72,0,0,0,26.26,1.24ZM23.78,17.29a48.13,48.13,0,0,0-8.13.58,62.79,62.79,0,0,0,.17,6.86c1.56.45,3.15-.26,4.9-.07A30.29,30.29,0,0,0,23.78,17.29Zm-7.87,8.84a40,40,0,0,0-.1,6.57,3.09,3.09,0,0,0,1.54,0c.91-2.29,2-4.36,2.76-6.82A10.82,10.82,0,0,0,15.91,26.13Zm0,20.57a2.22,2.22,0,0,0,0,1.68c1.22-.08,2.79.22,3.78-.09A13.26,13.26,0,0,0,15.91,46.7Zm-.09-12.46a6.47,6.47,0,0,0-.17,2.1c.66-.41.8-1.35,1-2.23C16.23,34,16.15,34.25,15.82,34.24ZM12.15,45.38a6.78,6.78,0,0,0,.8,2.81c.8.12,1-.35,1.68-.39C14.82,46,13.75,45.43,12.15,45.38Zm2.53-19c-.08-1.48,0-4.52-.18-6.72-3.06,1-6.59,1.44-8.86,3.22a51,51,0,0,0,1.72,6.18c2.76-.56,5.44-1.2,7.32-2.67Zm-.31,1.81c-2.19.68-4.45,1.29-6.47,2.14C8.29,32.33,9,34,9.49,36a15.09,15.09,0,0,0,5.07-1.6c-.14-1.9.79-4.76-.19-6.15Zm0,7.84A9.61,9.61,0,0,0,10,37.36a32,32,0,0,0,1.59,6.32c2.46-1.39,3.13-4.41,2.79-7.68Zm0-17.91c-.74-2.39-.7-4.72-1.72-6.75-3,1.16-6.74,1.63-9.13,3.51.6,2,1,4.17,1.59,6.18a29.73,29.73,0,0,0,9.28-2.93ZM8,11.72c1-.33,4.48-1.26,4.23-2.17a37.64,37.64,0,0,0-1.6-5.2A25.85,25.85,0,0,0,5.91,5.4C4.69,5.74,2.28,6.08,2,7.3,1.51,9,3,11.16,3.13,13.06a22.51,22.51,0,0,0,4.92-1.33Z" style="fill:#bc866e;fill-rule:evenodd"/><path d="M21.75,39.51v.42c-.48,0-.8,0-.69-.57A.89.89,0,0,1,21.75,39.51Z" style="fill:#bc866e;fill-rule:evenodd"/><path d="M20.22,39.07h-.7c.06-.34-.25-.31-.13-.71a.55.55,0,0,1,.83.71Z" style="fill:#bc866e;fill-rule:evenodd"/><path d="M19.17,43.81c-1.74.42-3.46,0-3.48-1.45C15.65,39.46,21.54,41.55,19.17,43.81ZM17.38,42c0,.56.26.76.83.71C18.26,42.12,17.91,41.91,17.38,42Z" style="fill:#bc866e;fill-rule:evenodd"/><path d="M18.41,38.62c-.44.06-.54-.21-.84-.29a1.28,1.28,0,0,1,.16-.84h.7C18.66,37.94,18.72,38.24,18.41,38.62Z" style="fill:#bc866e;fill-rule:evenodd"/></svg>