<svg xmlns="http://www.w3.org/2000/svg" viewBox="0 0 32.03 50.7"><title>Asset 1</title><path d="M3.26,48c.07-3.69,7.55-3.27,9.78-4.41.33-.22.82.31,1.17.21a94.2,94.2,0,0,0,.26-14.93c-4.67-1-10,.07-14.47-3.51C1.3,18,1.86,10.86,2.45,3.67,2.94,1,6.18.73,8.3.45A56.8,56.8,0,0,1,24.3.7a1,1,0,0,1-.55,1.13c1,.4,1.84.21,2.86.76.78,7.6,3.1,14.9,5.42,22.18-2.6,1.75-5.41,2.47-8.19,3.4-1.76,3.6,3.3,5.77,1.08,9.47-2,.11-1.68-2.37-3-3.44,1-2.13.25-3.88,0-5.75a13.17,13.17,0,0,0-4,.38,104.83,104.83,0,0,0-.6,15.44c1.42.43,5.25-.07,7.53,1,1.49.72,3.4,2.19,2.84,3.35S23.52,50,22,50.2c-2.31.25-4.31.47-6.09.49C11.35,50.74,6.92,50.57,3.26,48Zm22.67.11a2.33,2.33,0,0,1,.17-.26c-2.29-2.65-5.72-2-8.24-2.22-.48.58.51.86.18,1.42-.92.72-2.65,1.26-3.54.29-.62-.67.25-1.17-.4-1.94-2.78.21-6.63-.08-9.37,2.07,7.68,3.21,14.48,2.15,21.2.67Zm-2.24-14a1.54,1.54,0,0,0,.19,2.17l0,0a1.45,1.45,0,0,0-.14-2.05l-.09-.07ZM9.68,4.9C8.5,4.73,5,3.69,4.35,4.21c-1.07.86-.86,4.09-1,5.28-.59,4-.78,6.49-1.21,10.39C2,21.32,1.37,24.12,2,25,2.85,26.27,6,26.6,8,26.88c6.19.89,12.43.91,17.48-.49a13.3,13.3,0,0,0,4.09-2c1.21-.93-.42-4.45-.7-5.48-1.36-5.1-2.22-9.38-3.76-14.19A49.71,49.71,0,0,1,9.68,4.9Zm6.57,25A43.55,43.55,0,0,0,16,40.54a45.26,45.26,0,0,0,.25-10.66ZM17.7,2.32c.92-.64,2-.44,3-.85C15.21,1,9.7.34,4.81,2.65c7,2.08,13.68,2.53,19.86.69C22.23,2.43,20.06,2.83,17.7,2.32Z" style="fill:#d1a969;fill-rule:evenodd"/></svg>