<svg xmlns="http://www.w3.org/2000/svg" viewBox="0 0 50.63 46.96"><title>Asset 1</title><path d="M27.22,44.88c2.69,1.31,5.57.89,8.37,1.67-1.07.81-3,.22-4.61,0s-3.46,0-4.79-.94c-.09-2,1.71-1.94,3.19-2.16A45.38,45.38,0,0,1,38.25,43a54.6,54.6,0,0,0,6,.08c1.45-.14,5-.71,5.44-2.08.5-1.71-3-2.39-4.55-2.62a20.78,20.78,0,0,0-7.12.37c-1.14.23-2.41.9-3.44.08.23-.7,1.1-.45,1.63-.51,3-.37,5.65-1.21,9.21-.63,1.67.27,6.76,1.22,4.75,4-.85,1.16-2.8,1.78-4.07,2C40.41,44.69,32,42.73,27.22,44.88Z" style="fill:#8a8985;fill-rule:evenodd"/><path d="M22,30.67c-2.62-3.27-5.84-6.44-8.73-10-2-2.39-4.23-5-6.41-7.57a17.84,17.84,0,0,0-2.06-2.52c-.43-.33-1-.4-1.41-.7C1.74,8.76,1.47,6.88,0,5.49.21,3.33,1.86.9,3.81.83,4,.53,3.56.15,4.05,0,5.68.7,6.14,2.56,7.41,3.63A13.84,13.84,0,0,1,9.75,5.47c.42.54.56,1.33,1,1.89,4.39,6,9.79,11.28,14.33,17.36.29.19,1.18,1,1.49,1.27,1.35,1.69,1.42,2.58,3.7,4,.41,2.81,2.62,5.14,3.62,7.79-.87,1.24-1.36.65-2.39,0A41.94,41.94,0,0,0,26.59,35ZM31.25,35c-.81-1.32-.92-3.23-2.63-4.06-.18.56.38.93.1,1.51a1,1,0,0,1-1.48.07l-.07-.07a1.82,1.82,0,0,1-.59,1.23,34.48,34.48,0,0,0,3.83,2.5A4.3,4.3,0,0,0,31.25,35ZM18.41,17.83c-2.71-3.12-5.53-7-8.38-10A2.63,2.63,0,0,0,8.47,7s-4.82.75-1.56,4.79C11.91,18,17.24,24.05,22.33,30l3.47,3.22s.93-.63.74-1.45c0,0,1.24.08,1.13-.76,0,0,.34-.94.76-.71l.65-.13s.3-.19-.43-.81S18.41,17.83,18.41,17.83ZM4.19,8.57A4.91,4.91,0,0,1,7.41,5.18C5.86,4.59,3.7,6.89,4.19,8.57ZM3.28,8c.34-2.17,2.18-2.68,3.4-3.37C5.2,4.3,2.74,6.18,3.28,8ZM4.47,1.54C3.28,1.14,1.08,3,1,4.66c-.05,1.07.87,1.76,1.45,2.53A5.49,5.49,0,0,1,6.27,3.71c-.66-.63-.86-1.8-1.8-2.13Z" style="fill:#8a8985;fill-rule:evenodd"/><line x1="5.23" y1="8.56" x2="26.4" y2="32.64" style="fill:none"/><line x1="6.78" y1="7.57" x2="27.62" y2="31.94" style="fill:none"/><line x1="7.66" y1="6.38" x2="28.5" y2="30.75" style="fill:none"/></svg>