<svg xmlns="http://www.w3.org/2000/svg" viewBox="0 0 84.49 17.74"><defs><style>.cls-1{fill:#ac7e22;stroke:#ac7e22;stroke-width:0.91px;}</style></defs><title>Fichier 2</title><g id="Calque_2" data-name="Calque 2"><g id="Calque_1-2" data-name="Calque 1"><path class="cls-1" d="M9.75,13a5.51,5.51,0,0,0-.54-2.7,1.59,1.59,0,0,0-1.4-.82,1.54,1.54,0,0,0-1.42.82A5.48,5.48,0,0,0,5.83,13v3.88a.32.32,0,0,1-.36.36.32.32,0,0,1-.36-.36V13a5.48,5.48,0,0,0-.56-2.7,1.58,1.58,0,0,0-1.4-.82,1.5,1.5,0,0,0-1.39.82A5.18,5.18,0,0,0,1.2,13v3.88c0,.24-.13.36-.38.36a.32.32,0,0,1-.36-.36V9.16c0-.25.12-.38.36-.38a.34.34,0,0,1,.38.38v.69a2.2,2.2,0,0,1,2-1.07,2.23,2.23,0,0,1,2,1.2,4.39,4.39,0,0,1,.29.62,3.77,3.77,0,0,1,.3-.62,2.22,2.22,0,0,1,2-1.2,2.22,2.22,0,0,1,2,1.2A5.89,5.89,0,0,1,10.49,13v3.88a.32.32,0,0,1-.36.36c-.26,0-.38-.12-.38-.36Z"/><path class="cls-1" d="M25.64,9.16v7.76c0,.24-.13.36-.38.36a.32.32,0,0,1-.36-.36v-1a1.73,1.73,0,0,1-.15.22,3.13,3.13,0,0,1-2.58,1.13,3.13,3.13,0,0,1-2.57-1.13A4.86,4.86,0,0,1,18.71,13a4.84,4.84,0,0,1,.89-3.11,3.09,3.09,0,0,1,2.57-1.15,3.12,3.12,0,0,1,2.58,1.15,1.26,1.26,0,0,1,.15.2v-1c0-.25.12-.38.36-.38A.34.34,0,0,1,25.64,9.16Zm-1.47,1.21a2.42,2.42,0,0,0-2-.85,2.37,2.37,0,0,0-2,.85A4.26,4.26,0,0,0,19.45,13a4.14,4.14,0,0,0,.73,2.65,2.36,2.36,0,0,0,2,.87,2.41,2.41,0,0,0,2-.87A4.14,4.14,0,0,0,24.9,13,4.26,4.26,0,0,0,24.17,10.37Zm-3.86-5,1.87-1.45L24,5.31a.34.34,0,0,1,.08.52.33.33,0,0,1-.5,0l-1.43-1.1L20.77,5.9a.37.37,0,0,1-.53-.05A.34.34,0,0,1,20.31,5.33Z"/><path class="cls-1" d="M32.74,7.05h1.32V.82c0-.24.12-.36.38-.36a.32.32,0,0,1,.36.36V7.05h2.48a.32.32,0,0,1,.36.35c0,.25-.12.38-.36.38H34.8v6.38A2.8,2.8,0,0,0,35.31,16a1.53,1.53,0,0,0,1.33.58,1.8,1.8,0,0,0,1-.28,1.93,1.93,0,0,0,.62-.84.32.32,0,0,1,.48-.2.31.31,0,0,1,.2.46,2.36,2.36,0,0,1-.89,1.19,2.64,2.64,0,0,1-1.43.39,2.29,2.29,0,0,1-1.91-.85,3.49,3.49,0,0,1-.67-2.27V7.78H32.74c-.24,0-.36-.13-.36-.38A.32.32,0,0,1,32.74,7.05Z"/><path class="cls-1" d="M53.61,15.18a3.37,3.37,0,0,1-1.2,1.58,3.45,3.45,0,0,1-1.92.52,3.13,3.13,0,0,1-2.57-1.13A4.86,4.86,0,0,1,47,13a4.84,4.84,0,0,1,.89-3.11,3.09,3.09,0,0,1,2.57-1.15,3.29,3.29,0,0,1,1.92.56,3.22,3.22,0,0,1,1.2,1.56.32.32,0,0,1-.21.48.35.35,0,0,1-.48-.22A2.59,2.59,0,0,0,52,9.93a2.68,2.68,0,0,0-1.51-.41,2.37,2.37,0,0,0-2,.85A4.26,4.26,0,0,0,47.77,13a4.14,4.14,0,0,0,.73,2.65,2.36,2.36,0,0,0,2,.87A2.68,2.68,0,0,0,52,16.15a2.53,2.53,0,0,0,.92-1.24.37.37,0,0,1,.69.27Z"/><path class="cls-1" d="M68.15,13a4.33,4.33,0,0,0-.72-2.67,2.43,2.43,0,0,0-2-.85,2.37,2.37,0,0,0-2,.85A4.33,4.33,0,0,0,62.71,13v3.88c0,.24-.13.36-.38.36a.32.32,0,0,1-.36-.36V.82a.32.32,0,0,1,.36-.36c.25,0,.38.12.38.36v9.31a.84.84,0,0,1,.15-.2,3.45,3.45,0,0,1,5.14,0A4.94,4.94,0,0,1,68.89,13v3.88c0,.24-.13.36-.38.36a.32.32,0,0,1-.36-.36Z"/><path class="cls-1" d="M84,9.16v7.76c0,.24-.13.36-.38.36a.32.32,0,0,1-.36-.36v-1a1.06,1.06,0,0,1-.15.22,3.11,3.11,0,0,1-2.58,1.13A3.15,3.15,0,0,1,78,16.15,4.86,4.86,0,0,1,77.11,13,4.84,4.84,0,0,1,78,9.93a3.46,3.46,0,0,1,5.15,0,.84.84,0,0,1,.15.2v-1c0-.25.12-.38.36-.38A.34.34,0,0,1,84,9.16Zm-1.47,1.21a2.41,2.41,0,0,0-2-.85,2.37,2.37,0,0,0-2,.85A4.33,4.33,0,0,0,77.85,13a4.2,4.2,0,0,0,.73,2.65,2.36,2.36,0,0,0,2,.87,2.39,2.39,0,0,0,2-.87A4.14,4.14,0,0,0,83.3,13,4.26,4.26,0,0,0,82.57,10.37Z"/></g></g></svg>